<svg width="161" height="30" viewBox="0 0 161 30" fill="none" xmlns="http://www.w3.org/2000/svg">
<path d="M6.78891 29.36C5.98891 29.3333 5.21557 29.16 4.46891 28.84C3.72224 28.52 3.10891 28.08 2.62891 27.52C2.04224 26.8533 1.56224 26.2267 1.18891 25.64C0.84224 25.0533 0.628906 24.4133 0.548906 23.72C0.335573 22.2267 0.228906 20.8533 0.228906 19.6C0.228906 16.4533 0.868906 13.04 2.14891 9.36C2.89557 7.14667 3.73557 5.36 4.66891 4C6.05557 1.97333 7.92224 0.959999 10.2689 0.959999C10.7222 0.959999 11.2022 0.999999 11.7089 1.08C12.2156 1.16 12.5622 1.21333 12.7489 1.24C13.0956 1.29333 13.4022 1.45333 13.6689 1.72C14.7889 2.84 15.3489 4.06667 15.3489 5.4C15.3489 5.82667 15.2956 6.24 15.1889 6.64C15.1089 6.88 14.8689 7.12 14.4689 7.36C14.3622 7.41333 14.2689 7.44 14.1889 7.44C14.0556 7.44 13.9222 7.4 13.7889 7.32C13.6556 7.21333 13.5756 7.09333 13.5489 6.96C13.4156 6.66667 13.2689 6.17333 13.1089 5.48C12.9756 4.81333 12.6022 4.2 11.9889 3.64C11.6956 3.4 11.3356 3.28 10.9089 3.28C10.5089 3.28 10.2156 3.37333 10.0289 3.56C9.84224 3.74667 9.58891 3.98667 9.26891 4.28C8.94891 4.54667 8.69557 4.8 8.50891 5.04C8.21557 5.46667 7.92224 5.93333 7.62891 6.44C7.36224 6.94667 7.18891 7.26667 7.10891 7.4C6.62891 8.28 6.25557 9.18667 5.98891 10.12C5.72224 11.0533 5.44224 12.2267 5.14891 13.64C5.04224 14.2 4.85557 15.04 4.58891 16.16C4.34891 17.1467 4.22891 18.32 4.22891 19.68C4.22891 20.64 4.26891 21.6267 4.34891 22.64C4.42891 24 4.89557 25.3467 5.74891 26.68C5.96224 27.0533 6.25557 27.3333 6.62891 27.52C7.00224 27.7067 7.38891 27.8 7.78891 27.8C8.08224 27.8 8.32224 27.76 8.50891 27.68C10.0822 27.0667 11.3622 26.44 12.3489 25.8C13.3622 25.16 14.2822 24.28 15.1089 23.16C16.2022 21.6933 16.8289 20.84 16.9889 20.6C17.7889 19.2933 18.2289 18.5867 18.3089 18.48C18.9489 17.4133 19.3489 16.7467 19.5089 16.48C19.6956 16.4 19.8956 16.4267 20.1089 16.56C20.3222 16.6667 20.5622 16.8533 20.8289 17.12C20.9356 17.2533 20.9889 17.4533 20.9889 17.72C20.9889 17.9067 20.9622 18.0267 20.9089 18.08C20.2689 19.44 19.7356 20.44 19.3089 21.08C18.9089 21.72 18.2289 22.6533 17.2689 23.88L16.6289 24.72C16.0156 25.4933 15.2822 26.1867 14.4289 26.8C13.6022 27.4133 12.6289 28.0267 11.5089 28.64C10.8689 28.9867 10.1756 29.2 9.42891 29.28C8.70891 29.36 7.82891 29.3867 6.78891 29.36ZM37.6045 28.68C37.2845 28.6 36.8179 28.3467 36.2045 27.92C35.6179 27.4933 35.2445 27.1333 35.0845 26.84C34.6579 25.96 34.3379 24.8933 34.1245 23.64C33.9112 22.3867 33.8045 21.12 33.8045 19.84C33.8045 19.36 33.8312 18.7467 33.8845 18C34.0445 16.4533 34.1512 15.3467 34.2045 14.68C34.2312 14.28 34.1379 13.96 33.9245 13.72C33.7379 13.4533 33.4312 13.24 33.0045 13.08C32.3912 12.8133 31.9112 12.68 31.5645 12.68C31.1645 12.68 30.8712 12.9067 30.6845 13.36C30.4979 13.8667 30.3379 14.3333 30.2045 14.76C30.0712 15.16 29.9512 15.52 29.8445 15.84C29.5779 16.6933 29.3645 17.3333 29.2045 17.76C29.0712 18.24 28.8579 18.8267 28.5645 19.52C28.3779 19.9467 28.2045 20.4133 28.0445 20.92C27.6979 22.0133 27.0312 23.0533 26.0445 24.04C25.2979 24.8133 24.4579 25.4 23.5245 25.8C22.5912 26.1733 21.6445 26.36 20.6845 26.36C19.2179 26.36 17.8979 25.92 16.7245 25.04C15.5512 24.16 14.7645 22.9333 14.3645 21.36C14.0712 20.1867 13.9245 19.08 13.9245 18.04C13.9245 15.9867 14.4312 13.88 15.4445 11.72C15.6045 11.2933 15.9245 10.76 16.4045 10.12C16.6445 9.8 16.9912 9.56 17.4445 9.4C17.8712 9.24 18.3245 9.16 18.8045 9.16C19.5779 9.16 20.2045 9.36 20.6845 9.76C21.7512 10.6133 22.3645 11.68 22.5245 12.96C22.5779 13.6 22.6045 14.0667 22.6045 14.36C22.6045 16.84 21.8045 19.1733 20.2045 21.36C20.0712 21.5467 19.9112 21.7467 19.7245 21.96C19.5379 22.1467 19.3912 22.2933 19.2845 22.4C19.1779 22.5333 19.1245 22.7067 19.1245 22.92C19.1245 23.4 19.3245 23.76 19.7245 24C20.0445 24.24 20.4445 24.36 20.9245 24.36C21.2979 24.36 21.6312 24.2533 21.9245 24.04C23.7112 22.7867 25.1379 20.96 26.2045 18.56C26.6045 17.6533 27.0179 16.2667 27.4445 14.4C27.6312 13.52 27.7645 12.9333 27.8445 12.64C27.8979 12.5067 27.9245 12.2933 27.9245 12C27.9245 11.6267 27.8179 11.12 27.6045 10.48L27.3245 9.48C27.2712 9.24 27.3912 8.98667 27.6845 8.72C27.9779 8.42667 28.2445 8.30667 28.4845 8.36C28.6179 8.36 28.7912 8.38667 29.0045 8.44C29.0845 8.52 29.2045 8.61333 29.3645 8.72C29.5245 8.8 29.6312 8.89333 29.6845 9C29.9512 9.48 30.2979 9.86667 30.7245 10.16C31.1779 10.4267 31.6979 10.6667 32.2845 10.88C32.4179 10.9333 32.7779 11.0667 33.3645 11.28C33.9512 11.4667 34.4712 11.6667 34.9245 11.88C35.4045 12.0933 35.8179 12.32 36.1645 12.56C36.9112 13.0667 37.3245 13.72 37.4045 14.52C37.5112 15.16 37.5645 15.72 37.5645 16.2C37.5645 16.3867 37.5379 16.8267 37.4845 17.52L37.4045 18.52L37.3645 19.32C37.3112 20.0667 37.2845 20.5867 37.2845 20.88C37.2845 21.5733 37.3512 22.36 37.4845 23.24C37.5912 24.0133 37.9379 24.7067 38.5245 25.32C38.7645 25.5867 39.1379 25.72 39.6445 25.72C39.8845 25.72 40.0845 25.68 40.2445 25.6C41.2045 25.12 41.9245 24.5067 42.4045 23.76L46.3245 17.88C46.4045 17.7467 46.5512 17.6 46.7645 17.44C47.0045 17.28 47.2845 17.2 47.6045 17.2C47.6845 17.2 47.8579 17.2267 48.1245 17.28C48.2312 17.3333 48.3379 17.44 48.4445 17.6C48.5512 17.76 48.5912 17.8933 48.5645 18C48.5645 18.2133 48.4845 18.4667 48.3245 18.76C48.1645 19.0267 48.0579 19.2133 48.0045 19.32C46.7779 21.5067 45.8445 23.1333 45.2045 24.2C44.3512 25.6133 43.3512 26.7333 42.2045 27.56C41.0845 28.3867 39.9245 28.8 38.7245 28.8C38.3512 28.8 37.9779 28.76 37.6045 28.68ZM17.3245 19.16C17.4579 19.24 17.6179 19.16 17.8045 18.92C17.9912 18.68 18.1512 18.44 18.2845 18.2C19.1645 16.7067 19.6045 15.2533 19.6045 13.84C19.6045 13.44 19.5912 13.1467 19.5645 12.96C19.5645 12.8533 19.5245 12.7333 19.4445 12.6C19.3379 12.44 19.2312 12.3467 19.1245 12.32C19.0979 12.2933 19.0579 12.28 19.0045 12.28C18.8979 12.28 18.7912 12.32 18.6845 12.4C18.5512 12.48 18.4579 12.56 18.4045 12.64C18.0312 13.0667 17.7912 13.4667 17.6845 13.84C17.2312 15.6533 17.0045 17 17.0045 17.88C17.0045 18.0667 17.0312 18.32 17.0845 18.64C17.1379 18.9333 17.2179 19.1067 17.3245 19.16ZM45.4617 28.16C45.0351 27.7067 44.7551 27.2267 44.6217 26.72C44.4617 26.2133 44.3817 25.6267 44.3817 24.96L44.4217 23.16C44.4484 20.0933 45.5551 17.1467 47.7417 14.32C47.9284 14.0533 48.2084 13.7867 48.5817 13.52C48.9817 13.2533 49.2617 13.0667 49.4217 12.96C49.6351 12.8267 49.7817 12.7467 49.8617 12.72C50.3684 12.5067 50.8351 12.4 51.2617 12.4C51.8484 12.4 52.4084 12.5733 52.9417 12.92C53.2351 13.1067 53.4751 13.4133 53.6617 13.84C53.8751 14.2667 53.9817 14.7067 53.9817 15.16C53.9817 15.32 53.9551 15.5333 53.9017 15.8C53.6351 16.84 53.3684 17.7333 53.1017 18.48C52.8351 19.2 52.4751 19.8667 52.0217 20.48C50.5551 22.4533 49.4751 23.9867 48.7817 25.08C48.6484 25.2667 48.5817 25.5067 48.5817 25.8C48.5817 26.04 48.6484 26.32 48.7817 26.64C48.9684 27.0133 49.3017 27.3467 49.7817 27.64C50.2617 27.9067 50.6617 28.0133 50.9817 27.96C51.9951 27.7467 52.8884 27.4933 53.6617 27.2C54.4617 26.88 55.1951 26.4533 55.8617 25.92C57.1417 24.8 58.4617 23.5333 59.8217 22.12C59.8484 22.0933 60.0617 21.84 60.4617 21.36C60.4884 21.3333 60.9017 20.88 61.7017 20C62.0484 19.6267 62.4217 19.1467 62.8217 18.56C63.1151 18.1333 63.3817 17.8267 63.6217 17.64C63.8617 17.4267 64.1017 17.32 64.3417 17.32C64.6351 17.32 64.8884 17.4133 65.1017 17.6C65.3417 17.7867 65.4484 18.04 65.4217 18.36C65.3951 18.52 65.3017 18.76 65.1417 19.08C64.9817 19.4 64.8217 19.6667 64.6617 19.88C63.7817 21.1067 63.0617 22.0667 62.5017 22.76C61.6217 23.8267 60.7017 24.7867 59.7417 25.64C58.8084 26.4667 57.7284 27.28 56.5017 28.08C55.5951 28.64 54.5817 29.08 53.4617 29.4C52.3417 29.7467 51.2351 29.92 50.1417 29.92C48.1151 29.92 46.5551 29.3333 45.4617 28.16ZM49.1017 20.36C49.1551 20.3867 49.2217 20.4 49.3017 20.4C49.4084 20.3733 49.4751 20.3467 49.5017 20.32C50.4084 19.5467 50.8617 18.5733 50.8617 17.4C50.8617 17.24 50.8351 16.9733 50.7817 16.6C50.5417 16.6 50.3951 16.6267 50.3417 16.68C49.4884 17.5333 48.9817 18.6133 48.8217 19.92C48.8217 20 48.8617 20.0933 48.9417 20.2C49.0217 20.28 49.0751 20.3333 49.1017 20.36ZM61.4548 29.64C61.2415 29.5867 61.0415 29.4133 60.8548 29.12C60.6682 28.8267 60.6015 28.5867 60.6548 28.4C60.8148 27.5467 60.9482 26.9067 61.0548 26.48C61.5882 23.6267 62.0948 21.32 62.5748 19.56C63.1348 17.64 63.6148 16.16 64.0148 15.12C64.0682 14.96 64.1882 14.6 64.3748 14.04C64.5882 13.48 64.8282 13.0133 65.0948 12.64C65.3882 12.2667 65.7348 12.0533 66.1348 12C66.2682 11.9733 66.4548 11.96 66.6948 11.96C67.0148 11.96 67.3348 12 67.6548 12.08C67.8415 12.1067 67.9882 12.24 68.0948 12.48C68.2015 12.6933 68.2548 12.9467 68.2548 13.24C68.2548 13.48 68.2015 13.8133 68.0948 14.24C67.9882 14.72 67.9348 15.0667 67.9348 15.28C67.9348 15.5467 68.0282 15.7733 68.2148 15.96C68.4282 16.1467 68.6415 16.1867 68.8548 16.08C69.0948 15.9733 69.4015 15.8267 69.7748 15.64C70.1748 15.4533 70.5215 15.32 70.8148 15.24C71.4282 15.1067 71.9882 15.04 72.4948 15.04C73.1348 15.04 73.6815 15.1867 74.1348 15.48C74.6148 15.7467 75.0015 16.2267 75.2948 16.92L76.3748 16.32C77.5215 15.6267 78.5882 15.0133 79.5748 14.48C79.8948 14.32 80.2148 14.24 80.5348 14.24C80.9882 14.24 81.4015 14.3867 81.7748 14.68C82.1748 14.9467 82.4682 15.32 82.6548 15.8C83.0282 16.7067 83.2415 17.4133 83.2948 17.92C83.3748 18.8 83.4148 19.6933 83.4148 20.6L83.4948 22.4C83.5215 23.28 83.9082 24.32 84.6548 25.52C85.0815 26.2133 85.5748 26.56 86.1348 26.56C87.1748 26.56 88.3748 25.56 89.7348 23.56L93.2948 18.44L93.7748 17.68C94.2282 16.7733 94.6015 16.3067 94.8948 16.28C95.2415 16.2267 95.4948 16.2933 95.6548 16.48C95.8148 16.64 95.9348 16.92 96.0148 17.32C96.0682 17.6667 96.0015 18.08 95.8148 18.56C95.6282 19.0133 95.2282 19.7067 94.6148 20.64C94.0282 21.5467 93.2948 22.6267 92.4148 23.88L91.8948 24.6C91.0148 25.8267 90.1748 26.8133 89.3748 27.56C88.8148 28.0933 88.1748 28.5333 87.4548 28.88C86.7615 29.2 86.0548 29.36 85.3348 29.36C83.7882 29.36 82.4282 28.56 81.2548 26.96C80.7215 26.24 80.3748 25.4133 80.2148 24.48C80.0815 23.52 80.0015 22.2533 79.9748 20.68C79.9748 19.6933 79.9615 18.9733 79.9348 18.52C79.9348 18.36 79.8682 18.2 79.7348 18.04C79.6282 17.8533 79.5082 17.7333 79.3748 17.68C79.2948 17.6267 79.1748 17.6 79.0148 17.6C78.8282 17.6 78.6282 17.6533 78.4148 17.76C76.9748 18.6667 75.8682 20.08 75.0948 22L74.6148 23.32C74.4282 23.88 74.2015 24.4933 73.9348 25.16C73.8015 25.56 73.5615 25.88 73.2148 26.12C72.8948 26.36 72.5348 26.48 72.1348 26.48C71.8415 26.48 71.5882 26.4267 71.3748 26.32C71.2148 26.2667 71.0682 26.16 70.9348 26C70.8015 25.84 70.7215 25.6933 70.6948 25.56C70.6682 25.32 70.6548 24.9733 70.6548 24.52C70.6548 23.9867 70.6815 23.5867 70.7348 23.32C70.8148 22.8133 70.9615 22.08 71.1748 21.12L71.5748 18.92V18.8C71.5748 18.64 71.5482 18.48 71.4948 18.32C71.4415 18.1333 71.3615 18 71.2548 17.92C71.2015 17.8667 71.0815 17.84 70.8948 17.84C70.6282 17.84 70.4415 17.8533 70.3348 17.88C70.2282 17.88 70.0815 17.9733 69.8948 18.16C68.4015 19.6533 67.1748 21.2133 66.2148 22.84C65.2548 24.44 64.6015 26.1867 64.2548 28.08C64.1482 28.64 63.9348 29.0667 63.6148 29.36C63.2682 29.6533 62.8548 29.8 62.3748 29.8C62.0548 29.8 61.7482 29.7467 61.4548 29.64ZM101.605 27.92C101.205 28.3733 100.712 28.72 100.125 28.96C99.5655 29.1733 98.9788 29.28 98.3655 29.28C97.4055 29.28 96.5121 29.0267 95.6855 28.52C94.8855 28.0133 94.2988 27.2933 93.9255 26.36C93.8988 26.28 93.8321 26.1467 93.7255 25.96C93.6188 25.7733 93.5521 25.5867 93.5255 25.4C93.2588 24.2533 93.1255 23.0667 93.1255 21.84C93.1255 19.04 93.9121 16.4667 95.4855 14.12C95.6188 13.9067 95.9521 13.5067 96.4855 12.92C97.2321 12.0667 98.2455 11.64 99.5255 11.64C99.9788 11.64 100.365 11.7067 100.685 11.84C101.005 11.9467 101.232 12.1867 101.365 12.56C101.685 13.52 102.179 14.2 102.845 14.6C103.565 15 104.059 15.5467 104.325 16.24C104.619 16.9067 104.765 17.72 104.765 18.68V20.08V22.12C104.765 22.3067 104.912 22.5067 105.205 22.72C105.499 22.9067 105.739 22.9733 105.925 22.92C107.339 22.4133 108.565 21.52 109.605 20.24C110.032 19.7067 110.712 18.72 111.645 17.28L112.205 16.44C112.472 16.0933 112.779 16 113.125 16.16C113.339 16.2667 113.525 16.4667 113.685 16.76C113.845 17.0267 113.899 17.24 113.845 17.4C113.632 18.04 113.445 18.52 113.285 18.84C112.992 19.48 112.685 20.0133 112.365 20.44C112.072 20.8667 111.765 21.2533 111.445 21.6C111.125 21.9467 110.899 22.2133 110.765 22.4C109.459 23.9733 107.899 24.8133 106.085 24.92C105.259 24.9733 104.552 25.1867 103.965 25.56C103.379 25.9333 102.819 26.4667 102.285 27.16C102.152 27.3467 101.925 27.6 101.605 27.92ZM99.2855 26.8C100.112 26.2133 100.659 25.5733 100.925 24.88C100.979 24.7733 101.005 24.6267 101.005 24.44C101.005 24.12 100.885 23.7867 100.645 23.44C100.405 23.0933 100.232 22.8133 100.125 22.6L99.2855 20.76C98.9655 20.0667 98.8055 19.44 98.8055 18.88C98.8055 18.4533 98.8721 18.08 99.0055 17.76L99.4455 16.68C99.7388 15.9333 99.9521 15.36 100.085 14.96C100.219 14.56 100.245 14.2933 100.165 14.16C100.112 14.1067 100.045 14.08 99.9655 14.08C99.9121 14.0533 99.8588 14.0533 99.8055 14.08C99.7521 14.1067 99.6855 14.1333 99.6055 14.16C99.5521 14.1867 99.4721 14.2667 99.3655 14.4C99.2855 14.5333 99.1655 14.7333 99.0055 15C97.1121 17.3733 96.2455 20.0533 96.4055 23.04C96.4321 23.6 96.5388 24.1467 96.7255 24.68C96.9121 25.2133 97.1655 25.8 97.4855 26.44C97.5921 26.6 97.7521 26.7333 97.9655 26.84C98.1788 26.9467 98.3921 27 98.6055 27C98.8455 27 99.0721 26.9333 99.2855 26.8ZM110.581 28.88C110.181 28.88 109.781 28.6933 109.381 28.32C108.954 27.92 108.767 27.56 108.821 27.24C109.274 24.5733 110.194 21.2933 111.581 17.4C111.714 17.08 111.821 16.72 111.901 16.32C111.954 15.92 111.994 15.6533 112.021 15.52C112.181 14.56 112.367 13.8533 112.581 13.4C112.767 13.0533 112.927 12.7733 113.061 12.56C113.194 12.3467 113.381 12.2 113.621 12.12C113.781 12.0667 113.901 12.04 113.981 12.04C114.301 12.04 114.607 12.1867 114.901 12.48C115.007 12.6133 115.101 12.8133 115.181 13.08C115.261 13.32 115.247 13.5067 115.141 13.64C115.567 13.1333 116.074 12.7333 116.661 12.44C117.274 12.12 117.887 11.96 118.501 11.96C119.194 11.96 120.007 12.32 120.941 13.04C121.607 13.5467 121.981 14.2667 122.061 15.2C122.114 15.8933 122.141 16.92 122.141 18.28C122.141 19.4 122.154 20.2267 122.181 20.76C122.207 21.1867 122.274 21.6533 122.381 22.16C122.487 22.6667 122.554 23 122.581 23.16C122.687 23.48 122.927 23.7467 123.301 23.96C123.674 24.1467 123.927 24.1867 124.061 24.08C124.541 23.7333 125.034 23.2667 125.541 22.68C126.047 22.0667 126.461 21.4933 126.781 20.96C127.394 19.9467 127.927 19.04 128.381 18.24C128.861 17.4133 129.247 16.6667 129.541 16C129.647 15.7867 129.807 15.68 130.021 15.68C130.314 15.68 130.714 15.9333 131.221 16.44C131.461 16.68 131.567 16.8267 131.541 16.88C130.661 18.6933 129.834 20.2133 129.061 21.44C128.314 22.6667 127.394 23.8933 126.301 25.12C125.421 26.1067 124.447 26.6 123.381 26.6C122.927 26.6 122.501 26.5467 122.101 26.44C121.167 26.1733 120.527 25.6933 120.181 25C119.407 23.64 118.967 22.2667 118.861 20.88C118.807 20.4 118.754 19.68 118.701 18.72C118.647 17.76 118.594 17.04 118.541 16.56C118.514 16.4 118.421 16.2267 118.261 16.04C118.127 15.8533 118.007 15.76 117.901 15.76H117.821C117.554 15.76 117.234 15.92 116.861 16.24C115.874 17.1467 115.221 18.1867 114.901 19.36C114.554 20.4 114.234 21.5067 113.941 22.68L113.341 24.72C113.101 25.4667 112.781 26.3333 112.381 27.32C112.301 27.5867 112.194 27.88 112.061 28.2C111.954 28.3867 111.754 28.5467 111.461 28.68C111.141 28.8133 110.847 28.88 110.581 28.88ZM129.846 10.56C129.526 10.48 129.26 10.32 129.046 10.08C128.833 9.84 128.726 9.56 128.726 9.24C128.726 9.08 128.74 8.94667 128.766 8.84C129.14 7.48 130.033 6.45333 131.446 5.76H131.526C131.686 5.76 131.82 5.8 131.926 5.88C132.646 6.09333 133.006 6.58667 133.006 7.36C133.006 7.70667 132.926 8.08 132.766 8.48C132.633 8.85333 132.473 9.18667 132.286 9.48C132.02 9.85333 131.806 10.1067 131.646 10.24C131.326 10.48 130.926 10.6 130.446 10.6C130.18 10.6 129.98 10.5867 129.846 10.56ZM130.766 27.92C130.286 27.5467 129.86 27.0533 129.486 26.44C129.086 25.8267 128.873 25.2533 128.846 24.72C128.82 24.3733 128.78 24.08 128.726 23.84C128.673 23.5733 128.633 23.3467 128.606 23.16C128.393 21.88 128.286 20.9467 128.286 20.36C128.286 19.7467 128.433 18.9333 128.726 17.92C128.78 17.7333 128.846 17.5067 128.926 17.24C128.98 16.9467 129.033 16.6133 129.086 16.24C129.113 15.8933 129.26 15.5333 129.526 15.16C129.9 14.6533 130.406 14.4 131.046 14.4C131.286 14.4 131.553 14.5333 131.846 14.8C132.166 15.04 132.326 15.2667 132.326 15.48V19.08V20.88C132.38 22.5067 132.473 23.7067 132.606 24.48C132.66 24.7733 132.793 25.08 133.006 25.4C133.246 25.6933 133.406 25.8933 133.486 26C133.7 26.24 134.02 26.36 134.446 26.36C134.686 26.36 134.913 26.3067 135.126 26.2C136.113 25.6133 136.873 24.72 137.406 23.52C137.46 23.3333 137.526 23.1067 137.606 22.84C137.713 22.5733 137.82 22.3467 137.926 22.16C138.3 21.6 138.78 20.7067 139.366 19.48C139.633 18.92 139.913 18.36 140.206 17.8C140.526 17.2133 140.86 16.7067 141.206 16.28C141.5 15.9867 141.646 15.84 141.646 15.84C141.94 15.6 142.206 15.5067 142.446 15.56C142.686 15.5867 142.886 15.72 143.046 15.96C143.206 16.2 143.286 16.4667 143.286 16.76C143.286 17.08 143.153 17.5067 142.886 18.04C141.766 20.3333 140.94 22.0533 140.406 23.2C140.166 23.8133 139.846 24.3733 139.446 24.88C139.073 25.3867 138.54 26.0533 137.846 26.88L137.286 27.52C136.886 27.9733 136.366 28.3333 135.726 28.6C135.113 28.84 134.473 28.96 133.806 28.96C132.606 28.96 131.593 28.6133 130.766 27.92ZM148.565 29.36C147.845 29.2 147.272 28.76 146.845 28.04C146.738 27.88 146.592 27.6533 146.405 27.36C146.218 27.0667 146.045 26.84 145.885 26.68C145.778 26.5467 145.618 26.4533 145.405 26.4C145.192 26.3467 145.032 26.36 144.925 26.44C144.632 26.6 144.298 26.84 143.925 27.16C143.552 27.4533 143.298 27.6533 143.165 27.76C142.498 28.24 141.725 28.48 140.845 28.48C140.658 28.48 140.378 28.4533 140.005 28.4C139.525 28.32 139.112 28.1333 138.765 27.84C138.418 27.5467 138.178 27.16 138.045 26.68C137.832 25.9333 137.725 25.12 137.725 24.24C137.725 22.96 137.978 21.7333 138.485 20.56C138.992 19.3867 139.618 18.32 140.365 17.36C141.085 16.3733 142.045 15.1867 143.245 13.8L144.085 12.84C144.485 12.4133 144.925 12.0933 145.405 11.88C146.152 11.48 146.778 11.28 147.285 11.28C147.552 11.28 147.805 11.32 148.045 11.4L150.725 12.16C151.152 12.32 151.472 12.5733 151.685 12.92C151.925 13.2667 152.045 13.6667 152.045 14.12C152.045 14.36 152.005 14.6267 151.925 14.92C150.885 17.7467 149.978 21.1333 149.205 25.08C149.178 25.16 149.165 25.28 149.165 25.44C149.165 25.9733 149.432 26.5067 149.965 27.04C150.072 27.1467 150.218 27.24 150.405 27.32C150.618 27.3733 150.818 27.4 151.005 27.4C151.218 27.4 151.378 27.36 151.485 27.28C151.725 27.1467 151.965 27 152.205 26.84C152.472 26.6533 152.672 26.4667 152.805 26.28C154.058 24.7333 155.165 23.2533 156.125 21.84C157.832 18.7467 158.792 17.2 159.005 17.2H159.205C159.685 17.2 160.045 17.3333 160.285 17.6C160.418 17.7867 160.485 17.9733 160.485 18.16C160.485 18.3467 160.392 18.6933 160.205 19.2C159.805 20.1333 159.352 21 158.845 21.8C158.365 22.5733 157.632 23.6533 156.645 25.04C156.378 25.4667 155.898 26.1067 155.205 26.96L154.605 27.72C153.592 29 152.258 29.64 150.605 29.64C150.098 29.64 149.418 29.5467 148.565 29.36ZM141.565 25.68C141.645 25.6267 141.725 25.5867 141.805 25.56C141.912 25.5067 142.005 25.4533 142.085 25.4C143.632 24.1467 144.898 22.7333 145.885 21.16C146.898 19.56 147.592 17.84 147.965 16C148.045 15.8133 148.138 15.5867 148.245 15.32C148.352 15.0267 148.418 14.8 148.445 14.64L148.485 14.44C148.485 14.1733 148.392 13.92 148.205 13.68C148.178 13.6533 148.098 13.64 147.965 13.64C147.698 13.64 147.472 13.7067 147.285 13.84C146.192 14.72 145.258 15.7467 144.485 16.92C143.712 18.0933 142.965 19.4533 142.245 21C142.192 21.1067 142.138 21.24 142.085 21.4C142.058 21.5333 142.005 21.6667 141.925 21.8C141.632 22.44 141.418 22.9733 141.285 23.4C141.178 23.8267 141.138 24.2667 141.165 24.72C141.192 24.8267 141.258 24.9867 141.365 25.2C141.472 25.4133 141.538 25.5733 141.565 25.68Z" fill="black"/>
</svg>
