<svg width="109" height="31" viewBox="0 0 109 31" fill="none" xmlns="http://www.w3.org/2000/svg">
<path d="M9.48 30.52C9.21333 30.7867 8.82667 30.92 8.32 30.92C7.86667 30.92 7.45333 30.8133 7.08 30.6C6.70667 30.4133 6.46667 30.16 6.36 29.84C5.96 28.4533 5.65333 27.2933 5.44 26.36C5.22667 25.4267 5.10667 24.48 5.08 23.52C5.02667 22.4267 4.93333 21.6 4.8 21.04C4.77333 20.9067 4.68 20.7867 4.52 20.68C4.36 20.5467 4.2 20.4667 4.04 20.44C3.4 20.36 2.76 20.32 2.12 20.32L0.84 20.24C0.733333 20.2133 0.6 20.1333 0.44 20C0.28 19.8667 0.2 19.76 0.2 19.68C0.2 19.52 0.253333 19.36 0.36 19.2C0.44 19.04 0.546666 18.92 0.68 18.84C1 18.6267 1.62667 18.32 2.56 17.92C2.66667 17.8667 2.92 17.7733 3.32 17.64C3.8 17.4533 4.21333 17.28 4.56 17.12C4.77333 17.04 4.93333 16.92 5.04 16.76C5.17333 16.6 5.26667 16.4533 5.32 16.32C5.4 16.16 5.45333 16.0533 5.48 16C5.69333 15.6267 5.81333 15.2933 5.84 15C6.05333 12.0667 7.26667 9.17333 9.48 6.32C10.04 5.65333 10.32 4.81333 10.32 3.8C10.32 2.6 10.3333 1.69333 10.36 1.08C10.3867 0.973333 10.4933 0.853333 10.68 0.719999C10.8667 0.586666 11.0133 0.52 11.12 0.52H11.24C11.64 0.52 11.92 0.64 12.08 0.88C12.24 1.04 12.4533 1.33333 12.72 1.76L13.2 2.48C13.3067 2.58666 13.4667 2.68 13.68 2.76C13.8933 2.81333 14.0533 2.82667 14.16 2.8C14.7467 2.61333 15.24 2.44 15.64 2.28C15.96 2.14667 16.3067 2.01333 16.68 1.88C17.32 1.64 17.9467 1.52 18.56 1.52C19.84 1.52 21.2 2.05333 22.64 3.12C22.6933 3.14667 22.7333 3.21333 22.76 3.32C22.8133 3.4 22.84 3.46666 22.84 3.52C22.7867 3.70666 22.6933 3.85333 22.56 3.96C22.4267 4.04 22.28 4.05333 22.12 4C21.56 3.76 20.96 3.64 20.32 3.64C19.4667 3.64 18.5067 3.89333 17.44 4.4C16.3467 4.90667 15.44 5.42667 14.72 5.96C14.48 6.09333 14.2933 6.28 14.16 6.52C14.0267 6.76 13.96 7.02667 13.96 7.32C13.96 7.48 13.9733 7.6 14 7.68C14.3467 9.30667 14.56 10.4 14.64 10.96V15.08C14.64 15.2667 14.76 15.48 15 15.72C15.2667 15.9333 15.5067 16.0533 15.72 16.08L21.6 16.44C22.08 16.4667 22.4933 16.7733 22.84 17.36C22.92 17.44 22.96 17.56 22.96 17.72C22.96 17.8 22.9067 17.88 22.8 17.96C22.6933 18.0133 22.6 18.04 22.52 18.04L17.68 18.28C17.4133 18.28 16.96 18.3067 16.32 18.36L15.52 18.4C15.04 18.4533 14.64 18.6133 14.32 18.88C14 19.12 13.7867 19.4533 13.68 19.88C13.0933 21.9867 12.7067 23.4267 12.52 24.2C12.2 25.8 11.5067 27.4933 10.44 29.28C10.3333 29.4667 10.1733 29.68 9.96 29.92C9.77333 30.16 9.61333 30.36 9.48 30.52ZM10.36 16.04C10.7333 15.8267 10.96 15.6 11.04 15.36C11.12 15.04 11.1733 14.76 11.2 14.52C11.2267 14.28 11.2267 14.12 11.2 14.04C11.2 13.6933 11.2 13.3867 11.2 13.12C11.2267 12.8267 11.2267 12.5867 11.2 12.4C11.2 12.16 11.1467 12 11.04 11.92C10.96 11.84 10.84 11.8267 10.68 11.88C10.4133 11.9867 10.2533 12.0667 10.2 12.12C9.53333 13.08 9.2 13.92 9.2 14.64C9.2 15.04 9.29333 15.4267 9.48 15.8C9.61333 16.0667 9.77333 16.2 9.96 16.2C10.12 16.2 10.2533 16.1467 10.36 16.04ZM8.72 25.64C8.74667 25.6133 8.8 25.5733 8.88 25.52C8.96 25.44 9.01333 25.36 9.04 25.28C9.30667 24.5067 9.6 23.5333 9.92 22.36L10.16 21.48C10.2133 21.32 10.24 21.0933 10.24 20.8C10.24 20.4267 10.16 20.1333 10 19.92C9.84 19.7067 9.62667 19.6 9.36 19.6C9.01333 19.6 8.73333 19.7333 8.52 20C8.30667 20.2667 8.18667 20.6133 8.16 21.04V23.12L8.28 25C8.28 25.1333 8.42667 25.3467 8.72 25.64ZM32.2409 29.36C31.5209 29.2 30.9476 28.76 30.5209 28.04C30.4143 27.88 30.2676 27.6533 30.0809 27.36C29.8943 27.0667 29.7209 26.84 29.5609 26.68C29.4543 26.5467 29.2943 26.4533 29.0809 26.4C28.8676 26.3467 28.7076 26.36 28.6009 26.44C28.3076 26.6 27.9743 26.84 27.6009 27.16C27.2276 27.4533 26.9743 27.6533 26.8409 27.76C26.1743 28.24 25.4009 28.48 24.5209 28.48C24.3343 28.48 24.0543 28.4533 23.6809 28.4C23.2009 28.32 22.7876 28.1333 22.4409 27.84C22.0943 27.5467 21.8543 27.16 21.7209 26.68C21.5076 25.9333 21.4009 25.12 21.4009 24.24C21.4009 22.96 21.6543 21.7333 22.1609 20.56C22.6676 19.3867 23.2943 18.32 24.0409 17.36C24.7609 16.3733 25.7209 15.1867 26.9209 13.8L27.7609 12.84C28.1609 12.4133 28.6009 12.0933 29.0809 11.88C29.8276 11.48 30.4543 11.28 30.9609 11.28C31.2276 11.28 31.4809 11.32 31.7209 11.4L34.4009 12.16C34.8276 12.32 35.1476 12.5733 35.3609 12.92C35.6009 13.2667 35.7209 13.6667 35.7209 14.12C35.7209 14.36 35.6809 14.6267 35.6009 14.92C34.5609 17.7467 33.6543 21.1333 32.8809 25.08C32.8543 25.16 32.8409 25.28 32.8409 25.44C32.8409 25.9733 33.1076 26.5067 33.6409 27.04C33.7476 27.1467 33.8943 27.24 34.0809 27.32C34.2943 27.3733 34.4943 27.4 34.6809 27.4C34.8943 27.4 35.0543 27.36 35.1609 27.28C35.4009 27.1467 35.6409 27 35.8809 26.84C36.1476 26.6533 36.3476 26.4667 36.4809 26.28C37.7343 24.7333 38.8409 23.2533 39.8009 21.84C41.5076 18.7467 42.4676 17.2 42.6809 17.2H42.8809C43.3609 17.2 43.7209 17.3333 43.9609 17.6C44.0943 17.7867 44.1609 17.9733 44.1609 18.16C44.1609 18.3467 44.0676 18.6933 43.8809 19.2C43.4809 20.1333 43.0276 21 42.5209 21.8C42.0409 22.5733 41.3076 23.6533 40.3209 25.04C40.0543 25.4667 39.5743 26.1067 38.8809 26.96L38.2809 27.72C37.2676 29 35.9343 29.64 34.2809 29.64C33.7743 29.64 33.0943 29.5467 32.2409 29.36ZM25.2409 25.68C25.3209 25.6267 25.4009 25.5867 25.4809 25.56C25.5876 25.5067 25.6809 25.4533 25.7609 25.4C27.3076 24.1467 28.5743 22.7333 29.5609 21.16C30.5743 19.56 31.2676 17.84 31.6409 16C31.7209 15.8133 31.8143 15.5867 31.9209 15.32C32.0276 15.0267 32.0943 14.8 32.1209 14.64L32.1609 14.44C32.1609 14.1733 32.0676 13.92 31.8809 13.68C31.8543 13.6533 31.7743 13.64 31.6409 13.64C31.3743 13.64 31.1476 13.7067 30.9609 13.84C29.8676 14.72 28.9343 15.7467 28.1609 16.92C27.3876 18.0933 26.6409 19.4533 25.9209 21C25.8676 21.1067 25.8143 21.24 25.7609 21.4C25.7343 21.5333 25.6809 21.6667 25.6009 21.8C25.3076 22.44 25.0943 22.9733 24.9609 23.4C24.8543 23.8267 24.8143 24.2667 24.8409 24.72C24.8676 24.8267 24.9343 24.9867 25.0409 25.2C25.1476 25.4133 25.2143 25.5733 25.2409 25.68ZM46.7363 29.24C46.5496 29.2933 46.2696 29.32 45.8963 29.32C44.9629 29.32 44.1363 28.9733 43.4163 28.28C42.6963 27.56 42.1496 26.6267 41.7762 25.48C41.4029 24.3333 41.2162 23.1333 41.2162 21.88C41.2162 21.1867 41.2962 20.1733 41.4562 18.84C41.5629 17.8267 41.6296 17.0667 41.6562 16.56C41.8962 11.8933 43.4963 7.58667 46.4563 3.64C47.1763 2.68 48.1229 1.97333 49.2963 1.52C49.6963 1.33333 50.1363 1.24 50.6163 1.24C51.3363 1.24 52.0296 1.50667 52.6963 2.04C53.4963 2.68 53.8963 3.49333 53.8963 4.48C53.8963 4.82667 53.8696 5.09333 53.8163 5.28C53.2029 8.05333 52.0563 10.7467 50.3763 13.36C48.6696 16 47.0963 18.0533 45.6563 19.52C44.8029 20.4 44.4429 21.5067 44.5763 22.84L44.8163 25.44C44.8429 25.7867 44.9763 26.12 45.2163 26.44C45.4563 26.7333 45.7229 26.9067 46.0163 26.96C46.1229 26.9867 46.2563 27 46.4163 27C46.7896 27 47.1363 26.88 47.4563 26.64C48.4963 25.92 49.5896 24.8133 50.7363 23.32C50.7096 23.3467 51.1229 22.7733 51.9763 21.6C52.8296 20.3467 53.5496 19.32 54.1363 18.52C54.7496 17.72 55.2696 17.1467 55.6963 16.8C55.8029 16.6933 55.9229 16.64 56.0563 16.64C56.2429 16.64 56.4029 16.7733 56.5363 17.04C56.6963 17.4133 56.7763 17.7733 56.7763 18.12C56.7763 18.4133 56.7229 18.6533 56.6163 18.84C56.0296 19.9867 55.0696 21.4667 53.7363 23.28C52.4296 25.0667 51.3096 26.4267 50.3763 27.36C49.4163 28.2667 48.2029 28.8933 46.7363 29.24ZM45.1363 15.92C45.1896 15.9733 45.2429 16 45.2962 16C45.4563 16 45.6296 15.8667 45.8163 15.6L46.8563 14.04C47.9763 12.36 48.8563 11 49.4963 9.96C50.0029 9.16 50.4829 8.06667 50.9363 6.68C51.0963 6.22667 51.1763 5.78667 51.1763 5.36C51.1763 4.96 51.0963 4.56 50.9363 4.16C50.8829 3.92 50.7763 3.78666 50.6163 3.76H50.5363C50.4029 3.76 50.2829 3.81333 50.1763 3.92C49.4563 4.64 49.0029 5.14667 48.8163 5.44C47.1096 8.24 45.8163 11.4267 44.9363 15C44.9363 15.0533 44.9496 15.1867 44.9763 15.4C45.0029 15.6133 45.0563 15.7867 45.1363 15.92ZM60.7469 29.64C58.9069 29.64 57.5869 28.7867 56.7869 27.08C55.8269 25.1333 55.2402 23.2667 55.0269 21.48C54.9469 20.84 54.9069 20.1867 54.9069 19.52C54.9069 19.04 54.9202 18.68 54.9469 18.44C55.0002 18.12 55.0269 17.7867 55.0269 17.44C55.0269 16.6933 54.7469 16.3067 54.1869 16.28L51.6669 16.2C51.4802 16.1733 51.3335 16.08 51.2269 15.92C51.0935 15.7333 51.0269 15.5333 51.0269 15.32C51.0269 15.1333 51.0669 14.9867 51.1469 14.88C51.4135 14.48 51.5735 14.2533 51.6269 14.2C52.2135 13.72 52.6535 13.3733 52.9469 13.16C53.1602 12.9733 53.3869 12.8267 53.6269 12.72L54.3469 12.28C54.8269 11.9067 55.1069 11.44 55.1869 10.88L56.0669 4.64C56.0935 4.48 56.1335 4.33333 56.1869 4.2C56.2402 4.06667 56.2802 3.94667 56.3069 3.84C56.3869 3.57333 56.5602 3.36 56.8269 3.2C57.0935 3.01333 57.3735 2.92 57.6669 2.92C58.0669 2.92 58.4402 3.08 58.7869 3.4C59.1602 3.72 59.3469 4.05333 59.3469 4.4L59.3069 9C59.3069 9.24 59.3869 9.44 59.5469 9.6C59.7069 9.73333 59.8802 9.77333 60.0669 9.72L61.8669 9.2C62.1602 9.12 62.8002 8.94667 63.7869 8.68C64.7735 8.38667 65.6935 8.16 66.5469 8C67.0002 7.92 67.6935 7.88 68.6269 7.88C68.8135 7.90667 69.0002 8.08 69.1869 8.4C69.2135 8.45333 69.2269 8.52 69.2269 8.6C69.2269 8.81333 69.1069 8.97333 68.8669 9.08L68.1069 9.4C67.0935 9.69333 66.1069 10.0533 65.1469 10.48C64.2135 10.9067 63.0802 11.4533 61.7469 12.12L60.0669 12.96C59.1869 13.3867 58.7335 14.04 58.7069 14.92C58.6535 17.5333 58.6002 19.4933 58.5469 20.8C58.5202 21.7067 58.6002 22.6 58.7869 23.48C59.0002 24.36 59.2935 25.3733 59.6669 26.52C59.8002 26.9733 60.0269 27.32 60.3469 27.56C60.6935 27.8 61.0935 27.92 61.5469 27.92C61.9735 27.92 62.3735 27.8267 62.7469 27.64C64.0269 27 65.0669 26.08 65.8669 24.88L69.9869 18.8C70.1735 18.48 70.4535 18.1867 70.8269 17.92C71.0402 17.7333 71.2935 17.64 71.5869 17.64C71.6669 17.64 71.8135 17.6667 72.0269 17.72C72.2402 17.8 72.4002 17.9333 72.5069 18.12C72.6135 18.3067 72.6135 18.5067 72.5069 18.72C71.6802 20.6933 70.2669 23.0533 68.2669 25.8C66.3469 28.36 63.8402 29.64 60.7469 29.64ZM78.7644 29.36C78.0444 29.2 77.471 28.76 77.0444 28.04C76.9377 27.88 76.791 27.6533 76.6044 27.36C76.4177 27.0667 76.2444 26.84 76.0844 26.68C75.9777 26.5467 75.8177 26.4533 75.6044 26.4C75.391 26.3467 75.231 26.36 75.1244 26.44C74.831 26.6 74.4977 26.84 74.1244 27.16C73.751 27.4533 73.4977 27.6533 73.3644 27.76C72.6977 28.24 71.9244 28.48 71.0444 28.48C70.8577 28.48 70.5777 28.4533 70.2044 28.4C69.7244 28.32 69.311 28.1333 68.9644 27.84C68.6177 27.5467 68.3777 27.16 68.2444 26.68C68.031 25.9333 67.9244 25.12 67.9244 24.24C67.9244 22.96 68.1777 21.7333 68.6844 20.56C69.191 19.3867 69.8177 18.32 70.5644 17.36C71.2844 16.3733 72.2444 15.1867 73.4444 13.8L74.2844 12.84C74.6844 12.4133 75.1244 12.0933 75.6044 11.88C76.351 11.48 76.9777 11.28 77.4844 11.28C77.751 11.28 78.0044 11.32 78.2444 11.4L80.9244 12.16C81.351 12.32 81.671 12.5733 81.8844 12.92C82.1244 13.2667 82.2444 13.6667 82.2444 14.12C82.2444 14.36 82.2044 14.6267 82.1244 14.92C81.0844 17.7467 80.1777 21.1333 79.4044 25.08C79.3777 25.16 79.3644 25.28 79.3644 25.44C79.3644 25.9733 79.631 26.5067 80.1644 27.04C80.271 27.1467 80.4177 27.24 80.6044 27.32C80.8177 27.3733 81.0177 27.4 81.2044 27.4C81.4177 27.4 81.5777 27.36 81.6844 27.28C81.9244 27.1467 82.1644 27 82.4044 26.84C82.671 26.6533 82.871 26.4667 83.0044 26.28C84.2577 24.7333 85.3644 23.2533 86.3244 21.84C88.031 18.7467 88.991 17.2 89.2044 17.2H89.4044C89.8844 17.2 90.2444 17.3333 90.4844 17.6C90.6177 17.7867 90.6844 17.9733 90.6844 18.16C90.6844 18.3467 90.591 18.6933 90.4044 19.2C90.0044 20.1333 89.551 21 89.0444 21.8C88.5644 22.5733 87.831 23.6533 86.8444 25.04C86.5777 25.4667 86.0977 26.1067 85.4044 26.96L84.8044 27.72C83.791 29 82.4577 29.64 80.8044 29.64C80.2977 29.64 79.6177 29.5467 78.7644 29.36ZM71.7644 25.68C71.8444 25.6267 71.9244 25.5867 72.0044 25.56C72.111 25.5067 72.2044 25.4533 72.2844 25.4C73.831 24.1467 75.0977 22.7333 76.0844 21.16C77.0977 19.56 77.791 17.84 78.1644 16C78.2444 15.8133 78.3377 15.5867 78.4444 15.32C78.551 15.0267 78.6177 14.8 78.6444 14.64L78.6844 14.44C78.6844 14.1733 78.591 13.92 78.4044 13.68C78.3777 13.6533 78.2977 13.64 78.1644 13.64C77.8977 13.64 77.671 13.7067 77.4844 13.84C76.391 14.72 75.4577 15.7467 74.6844 16.92C73.911 18.0933 73.1644 19.4533 72.4444 21C72.391 21.1067 72.3377 21.24 72.2844 21.4C72.2577 21.5333 72.2044 21.6667 72.1244 21.8C71.831 22.44 71.6177 22.9733 71.4844 23.4C71.3777 23.8267 71.3377 24.2667 71.3644 24.72C71.391 24.8267 71.4577 24.9867 71.5644 25.2C71.671 25.4133 71.7377 25.5733 71.7644 25.68ZM87.8503 28.88C87.4503 28.88 87.0503 28.6933 86.6503 28.32C86.2236 27.92 86.037 27.56 86.0903 27.24C86.5436 24.5733 87.4636 21.2933 88.8503 17.4C88.9836 17.08 89.0903 16.72 89.1703 16.32C89.2236 15.92 89.2636 15.6533 89.2903 15.52C89.4503 14.56 89.637 13.8533 89.8503 13.4C90.037 13.0533 90.197 12.7733 90.3303 12.56C90.4636 12.3467 90.6503 12.2 90.8903 12.12C91.0503 12.0667 91.1703 12.04 91.2503 12.04C91.5703 12.04 91.877 12.1867 92.1703 12.48C92.277 12.6133 92.3703 12.8133 92.4503 13.08C92.5303 13.32 92.517 13.5067 92.4103 13.64C92.837 13.1333 93.3436 12.7333 93.9303 12.44C94.5436 12.12 95.157 11.96 95.7703 11.96C96.4636 11.96 97.277 12.32 98.2103 13.04C98.877 13.5467 99.2503 14.2667 99.3303 15.2C99.3836 15.8933 99.4103 16.92 99.4103 18.28C99.4103 19.4 99.4236 20.2267 99.4503 20.76C99.477 21.1867 99.5436 21.6533 99.6503 22.16C99.757 22.6667 99.8236 23 99.8503 23.16C99.957 23.48 100.197 23.7467 100.57 23.96C100.944 24.1467 101.197 24.1867 101.33 24.08C101.81 23.7333 102.304 23.2667 102.81 22.68C103.317 22.0667 103.73 21.4933 104.05 20.96C104.664 19.9467 105.197 19.04 105.65 18.24C106.13 17.4133 106.517 16.6667 106.81 16C106.917 15.7867 107.077 15.68 107.29 15.68C107.584 15.68 107.984 15.9333 108.49 16.44C108.73 16.68 108.837 16.8267 108.81 16.88C107.93 18.6933 107.104 20.2133 106.33 21.44C105.584 22.6667 104.664 23.8933 103.57 25.12C102.69 26.1067 101.717 26.6 100.65 26.6C100.197 26.6 99.7703 26.5467 99.3703 26.44C98.437 26.1733 97.797 25.6933 97.4503 25C96.677 23.64 96.237 22.2667 96.1303 20.88C96.077 20.4 96.0236 19.68 95.9703 18.72C95.917 17.76 95.8636 17.04 95.8103 16.56C95.7836 16.4 95.6903 16.2267 95.5303 16.04C95.397 15.8533 95.277 15.76 95.1703 15.76H95.0903C94.8236 15.76 94.5036 15.92 94.1303 16.24C93.1436 17.1467 92.4903 18.1867 92.1703 19.36C91.8236 20.4 91.5036 21.5067 91.2103 22.68L90.6103 24.72C90.3703 25.4667 90.0503 26.3333 89.6503 27.32C89.5703 27.5867 89.4636 27.88 89.3303 28.2C89.2236 28.3867 89.0236 28.5467 88.7303 28.68C88.4103 28.8133 88.117 28.88 87.8503 28.88Z" fill="#FE1111"/>
</svg>
