<svg width="58" height="103" viewBox="0 0 58 103" fill="none" xmlns="http://www.w3.org/2000/svg">
<path d="M27.1263 47.4235C27.2507 48.275 27.2727 49.1579 27.5252 49.9706C27.8636 51.0678 27.3733 52.0523 27.3184 53.0903C27.3129 53.2011 27.1501 53.3046 27.0074 53.4727C26.8976 53.2713 26.7897 53.1254 26.733 52.961C25.8237 50.3437 24.8083 47.756 24.0454 45.0944C23.1416 41.9451 23.5807 38.9344 25.6151 36.2081C25.3206 35.9292 24.9913 35.6558 24.7059 35.3418C23.61 34.1357 23.7362 32.5066 25.0809 31.6163C25.5694 31.2931 25.6975 31.0363 25.6279 30.4748C25.4121 28.7182 25.1614 26.9543 25.1157 25.1885C25.0352 22.1094 25.0827 19.0267 25.1084 15.9458C25.1138 15.2328 25.2163 14.5143 25.3297 13.8068C25.509 12.6857 26.0926 11.8139 27.1647 11.426C27.7484 11.2154 27.6788 10.8275 27.6953 10.399C27.7118 9.94647 27.6459 9.63986 27.1428 9.38681C25.6023 8.61289 25.2419 7.78725 25.6572 6.12673C25.8639 5.2974 26.1219 4.46252 26.4988 3.70153C27.1099 2.46953 27.838 1.29664 28.5735 0C28.9119 0.986335 28.8882 0.9771 28.568 1.81198C28.0228 3.23976 27.5087 4.67678 26.9873 6.1138C26.7933 6.64576 26.8555 7.16478 27.1775 7.62655C27.4886 8.07169 28.0813 8.12526 28.3045 7.64133C28.5479 7.10937 29.3455 7.16294 29.3547 6.49984C29.3657 5.63726 29.3583 4.77283 29.3272 3.91025C29.3108 3.48173 29.1955 3.05875 29.1717 2.63023C29.1425 2.10935 29.1644 1.58479 29.1644 0.796087C29.4553 1.18951 29.609 1.35205 29.7114 1.54415C30.4176 2.8685 30.8915 4.26119 30.864 5.79056C30.8403 7.08721 30.5603 8.27487 29.448 9.09128C29.0656 9.37018 28.9174 9.72852 28.8991 10.1977C28.8772 10.7241 28.965 11.0547 29.5303 11.3096C30.7927 11.8785 31.5958 12.8279 31.4477 14.3499C31.0744 18.1844 31.2336 22.0355 31.1092 25.8774C31.0635 27.2664 30.9317 28.6536 30.822 30.0407C30.8018 30.303 30.6975 30.5598 30.414 30.8202C30.3719 30.436 30.3445 30.0481 30.2822 29.6658C30.2219 29.289 30.0737 28.9196 30.0536 28.5409C29.9365 26.3835 29.7059 24.2206 29.7846 22.0688C29.8633 19.9262 30.2658 17.7965 30.5109 15.6595C30.5658 15.1829 30.5347 14.6971 30.5768 14.2187C30.6573 13.3395 30.1341 12.8741 29.4407 12.5804C28.7217 12.2756 27.902 12.3624 27.4831 12.9757C27.1117 13.5187 26.872 14.3462 26.969 14.9871C27.3056 17.1962 27.1611 19.4016 27.1574 21.6107C27.1501 25.0703 27.1574 28.5298 27.1574 32.139C27.741 32.1446 28.2954 32.139 28.8497 32.163C29.2248 32.1796 29.6035 32.224 29.9712 32.2997C30.0755 32.3219 30.2072 32.4937 30.2182 32.6082C30.2292 32.7153 30.1231 32.8741 30.0225 32.9443C29.384 33.3821 28.6576 33.3082 27.9459 33.2509C27.505 33.2159 27.0787 32.8113 26.6141 33.2362C26.5665 33.2805 26.2372 33.1327 26.1622 33.0016C26.0249 32.7633 25.9792 32.4715 25.8694 32.1168C25.3681 32.6451 24.9931 33.1401 25.2767 33.8845C25.5474 34.5993 26.1164 34.9152 26.8153 34.9946C28.4692 35.183 30.0389 34.8542 31.5044 34.0803C32.335 33.6407 32.3441 33.4652 31.8044 32.5712C31.7642 32.5047 31.7989 32.3921 31.7989 32.2997C32.818 32.1556 33.4894 32.4087 33.6961 33.0182C33.9084 33.6425 33.6303 34.4479 32.9808 34.9115C32.5563 35.2144 32.0788 35.4434 31.541 35.7537C31.7404 35.9754 31.9453 36.2007 32.1447 36.4279C32.7978 37.1741 33.1729 38.0386 33.1711 39.0434C33.1674 40.4822 33.3046 41.9285 32.9003 43.3433C32.8381 43.5631 32.871 43.8125 32.8564 44.1616C33.6175 43.8457 33.8315 43.2159 33.9907 42.6248C34.4133 41.0567 34.7445 39.4626 35.1543 37.8908C35.4616 36.7142 35.9336 35.6189 37.0533 34.8616C35.8916 33.6998 36.0635 32.4179 36.7862 31.1065C36.5173 30.9089 36.2264 30.7352 35.9849 30.5099C34.7335 29.337 34.9695 27.7873 36.5392 27.054C36.7094 26.9746 36.8759 27.0005 36.8704 26.7677C36.8594 26.2395 36.8612 25.7075 36.8173 25.1811C36.7514 24.3702 36.6344 23.5649 36.5722 22.7541C36.4606 21.3207 36.4258 19.8782 36.263 18.4504C36.0946 16.9783 36.5026 15.894 38.0047 15.3842C37.5162 14.7932 36.9911 14.3259 36.6801 13.7422C36.1001 12.6487 36.3416 11.5054 36.7679 10.4101C36.9417 9.96494 37.1796 9.54566 37.4046 9.12268C37.915 8.1659 38.4346 7.2165 38.9688 6.23386C39.2963 6.61251 39.5232 6.98562 39.3055 7.5028C39.0091 8.20653 38.7475 8.92504 38.4328 9.61954C38.0577 10.4526 37.6388 11.2764 37.7449 12.2239C37.7943 12.6635 37.9553 13.092 38.1437 13.8309C38.5499 12.7263 38.8389 11.9376 39.2103 10.9254C39.6842 12.0281 38.8975 12.8815 39.2707 13.7773C39.9732 13.6609 40.2824 13.1604 40.3007 12.5139C40.3208 11.8009 40.2239 11.0861 40.1708 10.3713C40.1544 10.1478 40.1068 9.92615 40.0318 9.42375C41.1094 10.4138 41.4789 11.4721 41.6088 12.573C41.7314 13.6 41.1021 14.3684 40.2513 15.0887C40.9447 16.0529 40.9228 17.1999 40.8789 18.3451C40.7654 21.2672 40.6428 24.1892 40.5239 27.1335C39.9879 26.9284 40.1141 26.4944 40.0592 26.1323C39.6512 23.4079 39.7519 20.6669 39.8013 17.9295C39.8013 17.7854 39.8324 17.6303 39.7939 17.4973C39.664 17.054 40.0848 16.3078 39.2689 16.2394C38.4438 16.1692 37.529 16.9007 37.4778 17.5656C37.4485 17.948 37.4833 18.3359 37.5125 18.7201C37.6589 20.6299 37.8565 22.5379 37.9443 24.4515C37.9827 25.3012 37.8034 26.1601 37.7211 27.0448C38.6285 27.2314 39.4683 27.405 40.6374 27.6469C39.5762 28.3193 38.7859 28.6277 37.8729 28.6924C37.0423 28.7515 37.0844 28.0145 36.7277 27.4604C36.6362 27.7762 36.5667 27.9794 36.5228 28.1881C36.3764 28.8826 36.4917 29.1837 37.0277 29.4922C37.6406 29.845 38.3139 29.8819 38.967 29.7101C39.4646 29.579 39.944 29.3389 40.394 29.0821C41.1515 28.6481 41.1405 28.6259 40.9886 27.6414C42.2876 28.009 42.5986 28.7219 41.9034 29.7729C41.7735 29.9706 41.5411 30.1054 41.4332 30.3104C41.3417 30.4822 41.2667 30.7777 41.3509 30.907C42.2473 32.2775 41.5119 33.3064 40.5752 34.3093C40.6447 33.8494 40.7362 33.3895 40.7782 32.9277C40.8075 32.6026 40.8313 32.2554 40.7544 31.9432C40.5459 31.0806 40.4361 31.0382 39.4829 31.2136C39.2963 31.2487 39.1042 31.2543 38.9139 31.2783C38.0797 31.3854 37.8638 31.5923 37.7467 32.3902C37.5436 33.7792 37.8729 34.289 39.267 34.3924C40.5495 34.4866 41.5576 35.0131 42.3205 36.0123C43.4603 37.5066 42.9316 39.736 40.6868 40.412C40.2879 40.5321 40.2221 40.4711 39.5579 39.7526C40.1105 39.4682 40.6849 39.2262 41.1972 38.8919C41.8412 38.4708 41.9125 37.9462 41.5137 37.2813C40.9648 36.3633 40.0665 35.992 39.0987 36.0031C38.184 36.0142 37.4759 36.5812 37.207 37.5047C36.9527 38.3729 36.7862 39.2687 36.5923 40.1535C36.316 41.415 36.1093 42.6932 35.2933 43.7663C34.7225 44.5162 34.1078 45.1184 33.0979 45.1775C32.86 45.1904 32.4941 45.3751 32.4283 45.5672C32.152 46.3744 31.9654 47.2129 31.7459 48.0386C31.7038 48.0515 31.6562 48.0571 31.6215 48.0811C31.5995 48.0958 31.5958 48.1402 31.583 48.1716L31.7093 48.0016C32.2289 47.4512 32.699 46.8417 33.2753 46.3633C34.7463 45.1442 36.1459 45.3917 37.0808 46.415C37.3351 46.6921 37.5235 47.0393 37.701 47.3773C37.99 47.9278 38.2517 48.4948 38.5151 49.06C39.5232 51.2192 41.3856 52.0984 43.5719 52.2444C44.7867 52.3256 46.3802 51.6681 46.6364 49.8229C46.7461 49.0286 46.801 48.2048 46.7278 47.4087C46.5815 45.7722 46.8687 44.2798 47.7597 42.889C48.3561 41.958 49.1849 41.367 50.2716 40.9218C49.5032 40.1738 48.4348 39.773 48.239 38.5169C48.0488 37.296 48.4952 36.3799 49.2105 35.4379C48.8483 35.183 48.4878 34.9669 48.1713 34.6991C47.4816 34.1135 47.22 33.1143 47.5255 32.3588C47.7798 31.729 48.894 31.0751 49.6423 31.1305C49.7191 31.1361 49.8124 31.2284 49.8527 31.306C49.8874 31.3725 49.8911 31.5129 49.849 31.5516C49.6039 31.7751 49.3221 31.9598 49.0879 32.1944C48.4622 32.8224 48.508 33.3969 49.3111 33.7921C50.5314 34.3943 51.8487 34.6252 53.1842 34.2761C53.8575 34.1006 54.5545 33.8531 55.1235 33.4615C55.9578 32.8871 55.8992 32.6636 54.9479 31.8546C54.7503 32.1224 54.5637 32.3939 54.3551 32.647C54.2893 32.7264 54.1338 32.8243 54.0734 32.7947C53.3599 32.4604 52.811 33.0958 52.1579 33.1106C51.8322 33.118 51.512 33.275 51.1864 33.286C50.6138 33.3027 50.3869 33.0921 50.3558 32.5417C50.2588 30.8202 50.1015 29.095 50.1125 27.3736C50.1253 25.1977 49.8508 23.0754 49.366 20.9661C49.28 20.5948 49.2288 20.2162 49.1776 19.8394C49.0422 18.8604 49.313 18.0385 50.0997 17.4123C50.3229 17.235 50.5314 17.0318 50.7272 16.8213C50.9742 16.5571 50.9138 16.2967 50.6467 16.0898C50.4967 15.9753 50.2954 15.9254 50.1545 15.8035C49.5417 15.2753 49.1666 14.566 49.2288 13.7847C49.3258 12.5527 49.8508 11.4611 50.7601 10.3085C50.751 11.849 49.7594 13.1936 50.9851 14.5955C51.2614 13.9214 51.4938 13.3543 51.7261 12.7873H51.9347C52.0188 13.31 52.103 13.829 52.1926 14.3887C52.9336 14.3019 53.0488 13.781 52.897 13.2546C52.7269 12.6672 52.3939 12.1279 52.1268 11.57C51.7572 10.798 51.276 10.0591 51.0382 9.24643C50.7729 8.34321 50.7235 7.37535 51.4572 6.37054C51.5743 6.81199 51.7261 7.11307 51.7224 7.41044C51.7005 8.68677 52.2329 9.72482 52.9848 10.6908C53.3068 11.1064 53.6544 11.5165 53.8904 11.9819C54.6643 13.5039 54.6863 14.9095 52.919 15.8405C54.6314 16.2819 54.6058 17.5915 54.5783 18.9232C54.4905 23.0089 54.4173 27.0947 54.3442 31.1785C54.3405 31.3632 54.3807 31.548 54.4027 31.7659C55.1601 31.173 55.9486 31.1915 56.6768 31.777C57.2659 32.2517 57.4598 33.0016 56.9402 33.6998C56.4152 34.4054 55.6815 34.9521 55.0101 35.5967C55.9121 37.3699 55.6541 39.1117 54.1539 40.7113C54.0734 40.7962 53.8849 40.7796 53.7477 40.8092C53.9215 40.0722 54.1722 39.3426 54.2472 38.5964C54.3112 37.9517 54.2252 37.2794 54.1173 36.6348C54.0185 36.0437 53.6508 35.7759 52.994 35.8368C52.3427 35.8978 51.6767 35.7962 51.0162 35.7962C50.8059 35.7962 50.5259 35.8313 50.3979 35.9661C49.6386 36.7733 49.6057 37.7984 49.7978 38.7885C49.9752 39.7046 50.6869 40.255 51.556 40.4693C52.2786 40.6466 53.0397 40.678 53.7825 40.7722C54.2435 41.1767 54.7357 41.5517 55.1583 41.9931C56.4664 43.3581 56.6219 45.3105 55.5809 46.8694C54.9333 47.8391 53.8063 48.179 52.6464 47.6341C53.0617 47.4919 53.4074 47.4346 53.6855 47.2647C54.8893 46.5369 55.2992 45.1664 54.7247 43.9122C54.1155 42.5823 52.6409 41.9174 51.2706 42.3533C49.7027 42.8539 48.658 44.2115 48.6214 45.8997C48.5958 47.0523 48.6763 48.2085 48.6653 49.3611C48.636 52.3792 46.6309 54.3574 43.6305 54.4368C40.1031 54.5329 37.6497 52.8871 36.0562 49.7988C35.7928 49.2891 35.6171 48.7349 35.3647 48.2214C35.0317 47.5436 34.6749 47.394 34.0035 47.7523C33.0375 48.2658 32.0752 48.8014 31.1842 49.4331C30.5384 49.8912 30.3426 50.6688 30.2969 51.4501C30.2713 51.9063 30.2914 52.3644 30.2914 53.1254C29.3528 51.8565 28.9284 50.7759 29.2705 49.5255C29.5724 48.4209 29.9273 47.3293 30.3133 46.2525C31.0598 44.1764 31.7623 42.0929 31.7788 39.8487C31.7825 39.3204 31.7843 38.7866 31.7221 38.2639C31.5611 36.9081 30.5969 36.21 29.2394 36.3947C28.7692 36.4593 28.2899 36.4796 27.816 36.4759C27.0733 36.4722 26.5464 36.7844 26.2134 37.4567C25.2254 39.4534 24.7754 41.5443 25.4852 43.7035C25.9115 45.0002 26.5976 46.2081 27.1684 47.4549L27.13 47.4161L27.1263 47.4235ZM53.4952 31.7474C52.7708 29.8246 52.9226 27.948 52.9757 26.0769C53.0543 23.3858 53.1257 20.6946 53.1806 18.0015C53.1842 17.8021 53.0196 17.4289 52.9354 17.4289C52.6903 17.4308 52.3372 17.5121 52.2237 17.6894C52.0078 18.0292 51.8121 18.0736 51.4352 18.0348C51.2303 18.0145 50.9248 18.286 50.7802 18.5039C50.429 19.0322 50.3283 19.5937 50.4528 20.2734C50.7528 21.9155 51.0858 23.5797 51.1096 25.2402C51.1352 27.0005 50.8004 28.7663 50.6631 30.5321C50.6247 31.0271 50.4692 31.5627 50.7272 31.9986C51.6548 31.9137 52.4982 31.8379 53.4952 31.7456V31.7474Z" fill="#FE1111"/>
<path d="M3.33879 41.1933C0.867107 39.8209 0.535963 38.2915 1.61538 35.8202C0.874425 35.2106 0.177377 34.4903 0.340204 33.4485C0.455464 32.7078 0.854301 32.0115 1.95567 31.8397C1.81846 32.1685 1.7526 32.3587 1.66295 32.5379C1.11226 33.6388 1.36474 34.3499 2.53929 34.7618C3.81264 35.2069 5.12807 35.2439 6.43801 34.9262C6.9393 34.8043 7.45157 34.6731 7.91261 34.4515C8.83286 34.0082 8.88774 33.6849 8.31144 32.839C8.22363 32.7115 8.21631 32.5268 8.1724 32.3698C8.34071 32.3551 8.51452 32.307 8.67735 32.3292C9.27743 32.4105 9.80799 32.6598 9.95435 33.3008C10.108 33.9768 10.066 34.6528 9.46038 35.1441C9.16766 35.3824 8.86396 35.6096 8.49074 35.9014C8.86579 36.8767 9.52442 37.9129 8.98288 38.9916C8.49988 39.9539 7.79918 40.8036 7.12591 41.8065C8.06446 42.6303 9.0213 43.5852 9.44026 44.8967C9.84641 46.1693 10.1666 47.4696 10.5215 48.7589C10.6477 49.2206 10.763 49.6843 10.8838 50.1479C11.4637 52.3995 15.0642 53.2694 16.6833 51.1416C17.5908 49.9502 18.3537 48.6979 18.8532 47.2775C19.2282 46.2136 19.7899 45.2808 20.8437 44.7526C21.7584 44.2927 22.8141 44.4811 23.4197 45.2439C23.5093 45.3566 23.5111 45.5745 23.4855 45.7334C23.4764 45.7869 23.255 45.8405 23.1342 45.8331C21.2956 45.7186 20.8583 46.0031 20.2381 47.8132C19.6618 49.4996 18.941 51.1065 17.8853 52.5528C16.0302 55.0943 12.4352 55.5118 10.0952 53.3932C8.90421 52.3145 8.49439 50.8239 8.23277 49.2834C8.05714 48.2454 7.91261 47.1963 7.64915 46.1804C7.28874 44.7895 6.55144 43.6314 5.26162 42.9129C3.56748 41.9691 1.98678 42.7614 1.69954 44.6935C1.45438 46.3392 1.98312 47.2018 3.56749 47.7633C3.87119 47.8704 4.16391 48.009 4.60483 48.1918C3.27659 48.9251 2.17339 48.5058 1.16166 47.8908C0.278 47.3551 -0.119006 46.4205 0.0310146 45.4083C0.296296 43.6185 1.05189 42.1242 2.89788 41.474C3.02961 41.4279 3.13938 41.3244 3.34062 41.1988V41.1933H3.33879ZM6.51302 41.3632C6.86429 40.7371 7.243 40.1368 7.55036 39.5014C8.02421 38.5243 7.8504 37.5582 7.35277 36.6439C7.26495 36.4833 6.99967 36.3281 6.82038 36.3318C5.92391 36.3503 5.02928 36.4334 4.13281 36.474C3.29489 36.5128 2.9363 36.8102 2.82104 37.6395C2.61796 39.0913 3.08632 40.0961 4.67435 40.7851C5.22869 41.0252 5.83244 41.1526 6.51668 41.3632H6.51302Z" fill="#FE1111"/>
<path d="M23.5861 43.1992C21.3321 43.4338 19.9527 42.3939 19.7203 40.4693C19.6453 39.8505 19.7002 39.2188 19.6545 38.5945C19.6233 38.1697 19.5758 37.7338 19.4459 37.3329C19.1422 36.3965 18.339 36.1767 17.5542 36.7677C16.9303 37.2369 16.762 37.948 16.612 38.6462C16.5754 38.8161 16.7748 39.071 16.9193 39.2391C17.0529 39.3943 17.2596 39.4848 17.5889 39.7101C16.7912 40.0167 16.2351 40.0703 15.7155 39.5827C15.2105 39.108 15.044 38.5871 15.3349 37.9037C15.6496 37.163 15.8801 36.3872 16.1436 35.6392C15.7393 35.0389 15.152 34.4386 14.9068 33.7182C14.7111 33.1401 14.9288 32.416 14.9727 31.5886C14.7477 31.4279 14.3543 31.1804 13.9957 30.8885C12.6986 29.8338 13.1487 28.2731 14.3177 27.8926C15.3221 27.5675 15.485 26.9709 15.3825 26.0677C15.1977 24.4515 15.0642 22.8298 14.8849 21.2117C14.7312 19.8098 14.808 18.4393 15.2837 17.102C15.4685 16.5811 15.7887 16.2172 16.2698 15.9291C17.0035 15.4895 16.9705 15.2106 16.2168 14.771C14.7294 13.9047 14.4129 12.8002 15.2307 11.293C15.366 11.0418 15.5417 10.8109 15.71 10.5781C15.7942 10.4636 15.9003 10.362 16.0046 10.2641C17.0327 9.31474 17.5871 8.23975 16.6321 6.52197C17.2322 6.83043 17.5706 6.90247 17.728 7.11119C17.9731 7.43812 18.1908 7.84263 18.253 8.24159C18.3976 9.16513 17.8908 9.89657 17.3913 10.6077C17.0876 11.0381 16.7492 11.4444 16.4729 11.8914C16.2021 12.331 16.1418 12.7909 16.6613 13.2324C16.7327 13.1234 16.8242 13.0403 16.848 12.9405C16.9468 12.5342 17.1004 12.2497 17.4206 12.7688C17.6712 13.1751 17.9695 13.1437 18.253 12.9239C18.6574 12.6099 19.0105 12.2276 19.4148 11.8471C19.5849 12.7448 19.3361 13.5371 18.7104 14.1393C18.5403 14.3018 18.3207 14.4108 18.1341 14.5586C17.481 15.0776 17.5121 15.2734 18.2951 15.6834C19.3123 16.2172 19.5392 17.2424 19.6526 18.2213C19.7551 19.1134 19.5868 20.0351 19.5483 20.9457C19.5246 21.5183 19.4752 22.0946 19.5172 22.6635C19.6362 24.2372 19.8228 25.8054 19.9307 27.3791C19.9746 28.0126 19.949 28.6074 20.518 29.0692C20.9863 29.4478 20.9662 30.0222 20.7522 30.5265C20.6058 30.8719 20.604 31.1212 20.7686 31.4611C21.3065 32.5638 21.0888 33.5945 20.3753 34.5531C20.2619 34.7046 20.1978 34.8911 20.0643 35.1516C21.2498 36.0714 21.4931 37.3976 21.4657 38.8272C21.4565 39.2594 21.4437 39.6953 21.4712 40.1257C21.5389 41.1767 21.8554 42.1002 22.8397 42.6543C23.0336 42.7633 23.2019 42.9185 23.5879 43.2029V43.1992H23.5861ZM18.7946 28.2805C18.6994 27.4585 18.5641 26.7123 18.5384 25.9624C18.4964 24.7618 18.4909 23.5575 18.5384 22.3587C18.5933 21.0233 18.7122 19.6879 18.8312 18.3561C18.8806 17.7983 18.747 17.3162 18.4451 16.8619C18.103 16.3502 17.5962 16.474 17.1517 16.5848C16.7638 16.6827 16.257 16.7843 16.268 17.3587C16.2845 18.3007 15.8838 19.2058 16.2058 20.194C16.4674 20.9956 16.515 21.8859 16.5516 22.7411C16.6302 24.5863 16.7071 26.4371 16.3796 28.2805H18.7946ZM19.552 34.6565C19.9234 33.2602 19.9746 32.7411 19.6435 32.0762C19.5429 31.873 19.2337 31.6477 19.0251 31.6514C18.3683 31.6643 17.7115 31.7603 17.062 31.8712C16.8626 31.9044 16.6138 32.0411 16.5132 32.2092C16.0302 33.0053 16.3119 34.252 17.0785 34.7803C17.2139 34.8726 17.4243 34.904 17.5926 34.8874C18.2439 34.8265 18.8915 34.7378 19.552 34.6565ZM15.1044 28.2417C14.8739 28.7588 14.5665 29.132 14.583 29.4903C14.6086 30.0499 15.205 30.1977 15.6368 30.3178C16.268 30.4914 16.9431 30.6262 17.5889 30.5911C18.1872 30.5579 18.7763 30.2919 19.3599 30.1035C19.6929 29.9964 19.7807 29.7082 19.6471 29.4127C19.5319 29.156 19.3709 28.9288 18.9885 29.1153C18.6958 29.2576 18.3463 29.2723 18.0317 29.3721C16.8882 29.7322 16.01 29.3259 15.1044 28.2417Z" fill="#FE1111"/>
<path d="M6.69228 32.6968C5.98974 29.9521 5.44638 27.3643 5.85985 24.5974C6.12147 22.8538 5.97877 21.0437 5.97877 19.2649C5.97877 18.6517 5.33295 18.3063 4.75847 18.5667C4.65236 18.6148 4.56637 18.7644 4.52613 18.8863C4.48222 19.0174 4.49319 19.1707 4.49868 19.3148C4.56272 21.2339 4.58467 23.1419 4.31573 25.0629C4.13095 26.3854 4.25353 27.7522 4.24621 29.1006C4.24072 30.3012 4.24621 31.5036 4.24621 32.7485C5.06401 33.1216 6.10135 32.852 6.82035 33.7977C5.97694 33.9177 5.24879 34.0766 4.51515 34.1135C3.65893 34.156 3.68089 34.1006 3.33145 33.2288C3.14483 32.7615 3.08446 32.2147 2.53011 31.934C2.23922 31.7862 2.25569 31.5202 2.54292 31.2432C2.70575 31.0862 2.79357 30.7168 2.74051 30.4822C2.26666 28.3728 2.59964 26.2838 2.81552 24.1855C2.95273 22.8538 3.03872 21.5165 3.13935 20.1811C3.15764 19.9428 3.11922 19.699 3.13935 19.4589C3.23082 18.4023 3.44854 17.4289 4.63041 17.3089V15.1755C4.63041 15.1755 4.58833 15.0906 4.51515 15.0555C2.68562 14.1689 2.18982 13.1382 2.85394 11.2431C3.13386 10.4452 3.65527 9.7322 4.08155 8.98783C4.6176 8.05506 5.49577 7.22388 4.9213 5.97157C4.89752 5.9217 4.98534 5.76654 5.0512 5.74068C5.1628 5.6982 5.37685 5.66865 5.41161 5.72406C5.61286 6.03252 5.86534 6.35022 5.92754 6.69747C6.07024 7.48801 5.75922 8.19913 5.37685 8.87886C4.97802 9.58813 4.58833 10.3029 4.21877 11.027C3.82542 11.7972 3.82725 12.6081 4.14376 13.3912C4.25719 13.6739 4.55174 13.8807 4.76213 14.1227C4.98534 13.914 5.21037 13.7071 5.53053 13.4079C5.61286 13.6184 5.64579 13.8401 5.77203 13.9731C5.86351 14.0691 6.15806 14.1227 6.22575 14.0562C6.57336 13.7108 6.85328 13.31 6.54226 12.791C6.27332 12.344 5.97328 11.9136 5.708 11.4629C5.62384 11.3207 5.60555 11.1378 5.55798 10.9734C5.7702 10.9254 6.00621 10.7924 6.19282 10.8441C7.44971 11.1969 8.45411 13.1437 6.96854 14.3961C6.10866 15.1201 5.88546 15.8109 5.93669 16.7899C5.94767 17.0226 5.85802 17.2609 5.8013 17.5564C6.83499 18.0163 7.08563 18.9325 7.11307 20.0148C7.15881 21.7899 7.34359 23.5649 7.32164 25.3381C7.2942 27.6395 7.12771 29.9373 7.00513 32.2369C6.99964 32.3496 6.85694 32.4567 6.68496 32.6931L6.69228 32.6968Z" fill="#FE1111"/>
<path d="M32.3679 93.3804C33.5845 93.0516 34.7462 92.9833 35.8732 93.4524C38.8169 94.6752 39.0127 97.9981 37.2069 99.6678C35.9537 100.826 34.4773 101.411 32.8984 101.748C30.2218 102.318 27.5123 102.309 24.8339 101.748C23.394 101.445 22.0329 100.913 20.8272 99.9763C19.4404 98.8994 18.7964 97.5326 19.1642 95.8351C19.5264 94.1599 20.701 93.1144 22.2835 92.5677C22.7702 92.3996 23.2971 92.3386 23.813 92.2814C23.9502 92.2666 24.1094 92.4458 24.2594 92.5363C24.1496 92.7136 24.0801 92.9537 23.9228 93.0516C23.6465 93.2234 23.2971 93.2751 23.0117 93.4358C22.6403 93.6445 22.2725 93.8791 21.9505 94.158C19.9692 95.8739 20.1668 97.6545 22.4189 98.977C23.7252 99.7454 25.1668 100.094 26.6103 100.242C29.0765 100.493 31.5501 100.392 33.9047 99.4443C34.4718 99.2153 35.0444 98.9419 35.5311 98.5762C36.3452 97.963 36.7551 97.1687 36.1037 95.9386C35.5823 94.9541 34.7499 94.3593 33.7565 93.953C33.2936 93.7627 32.8307 93.5706 32.3679 93.3804Z" fill="#FE1111"/>
<path d="M32.0697 50.4546C33.4162 50.1867 34.4169 50.3622 35.3628 50.8664C36.8411 51.6551 37.218 53.0996 36.2666 54.4849C35.9483 54.9485 35.5275 55.3973 35.0536 55.6891C32.5197 57.2425 29.8377 58.1088 26.7933 57.6655C25.4486 57.4697 24.1972 57.1613 23.0227 56.4852C21.7676 55.7612 21.2224 54.688 21.4017 53.2399C21.5572 51.9876 22.6952 50.63 23.91 50.3862C24.3399 50.2994 24.8357 50.4398 25.2785 50.5617C25.4541 50.6097 25.6645 50.8831 25.6773 51.0641C25.6846 51.1915 25.3919 51.4353 25.2126 51.4575C24.5576 51.5406 24.0234 51.8214 23.6319 52.3367C23.0263 53.1291 22.6988 54.2318 24.1369 54.9208C26.2993 55.9551 28.535 56.0733 30.7908 55.401C31.7788 55.1073 32.6972 54.5717 33.6394 54.1284C33.8498 54.0286 34.0474 53.8772 34.2175 53.7146C34.9018 53.0608 34.9201 52.5159 34.1974 51.9174C33.6229 51.4427 32.968 51.0641 32.0715 50.4546H32.0697Z" fill="#FE1111"/>
<path d="M30.0444 96.4649C29.759 95.0667 29.3729 93.6814 29.2138 92.2702C29.0454 90.7778 29.479 89.3186 29.8852 87.8908C30.4743 85.8203 31.1348 83.77 31.7385 81.7031C32.6679 78.5206 32.4831 75.3584 31.5171 72.2166C31.1219 70.9347 31.1311 70.931 31.3726 69.9041C31.6818 70.2901 31.9763 70.5801 32.1812 70.9255C33.021 72.3385 33.4564 73.8863 33.7711 75.5044C34.3895 78.6887 33.7217 81.7124 32.7539 84.6843C31.8922 87.3275 31.1878 90.0057 30.6737 92.7338C30.5145 93.5761 30.5896 94.4608 30.542 95.3253C30.5219 95.6891 30.4597 96.0493 30.4176 96.4132L30.048 96.4686L30.0444 96.4649Z" fill="#FE1111"/>
<path d="M27.4464 95.9867C27.1756 95.4381 26.9963 95.174 26.9104 94.8821C25.9261 91.5315 24.9454 88.181 23.9886 84.823C23.4507 82.9371 23.566 80.9885 23.7599 79.0878C23.974 77.0006 24.4496 74.9393 24.8704 72.8798C25.0827 71.8436 25.5217 70.8758 26.184 70.0372C26.2865 69.9079 26.4896 69.8599 26.6451 69.7749C26.7146 69.9762 26.8701 70.1942 26.839 70.3789C26.7457 70.9423 26.5664 71.4927 26.4475 72.0523C25.7889 75.1536 25.3424 78.2788 25.3827 81.4613C25.3973 82.6711 25.5437 83.8477 25.9627 84.9929C26.2261 85.7096 26.3816 86.4669 26.6158 87.1946C27.236 89.1322 27.4244 91.1307 27.4446 93.1514C27.4537 93.9844 27.4446 94.8193 27.4446 95.9885L27.4464 95.9867Z" fill="#FE1111"/>
<path d="M31.7293 58.4172C33.1892 59.7767 33.5844 61.0253 33.0099 62.3847C32.4062 63.8125 31.2646 64.483 29.7534 64.5421C28.7032 64.5828 27.6659 64.5421 26.6743 64.1136C25.0863 63.4246 24.4203 62.1631 24.7295 60.4213C24.7972 60.0445 24.8063 59.6585 24.8539 59.2798C24.8832 59.0434 24.8777 58.7793 24.9856 58.5835C25.1155 58.3434 25.3497 58.1605 25.5382 57.9518C25.7614 58.1716 26.1364 58.3637 26.1803 58.6149C26.2956 59.2687 26.2718 59.9503 26.2919 60.6208C26.3248 61.7216 26.667 62.1742 27.7006 62.4586C27.9293 62.5214 28.158 62.5916 28.3904 62.6249C30.3205 62.9019 31.1694 62.1945 31.4054 60.5044C31.4658 60.0778 31.4274 59.6382 31.4731 59.2096C31.4969 58.9917 31.6067 58.7848 31.7293 58.4209V58.4172Z" fill="#FE1111"/>
<path d="M26.8061 64.6567C26.7714 64.7879 26.7622 64.9338 26.6982 65.0483C26.0542 66.1861 26.2079 66.6442 27.3459 67.1263C28.2222 67.4975 29.1242 67.431 30.0188 67.3276C30.5805 67.2629 30.9464 66.851 31.0763 66.2895C31.1604 65.922 31.1787 65.5378 31.2281 65.1536C32.5508 65.547 33.0192 66.7199 32.3276 67.7801C31.8501 68.5152 31.1275 68.8976 30.317 69.0324C28.8223 69.2836 27.3788 69.0915 26.0506 68.2825C25.1413 67.7284 24.7461 66.9286 24.8266 65.8666C24.9162 64.6844 25.4925 64.3187 26.8043 64.6549H26.8061V64.6567Z" fill="#FE1111"/>
<path d="M28.4765 71.2766C27.4337 76.3099 27.2983 81.1196 27.3074 85.9811C27.1812 85.5859 27.033 85.1961 26.9361 84.7935C26.8135 84.2855 26.7019 83.7702 26.6397 83.253C26.583 82.7783 26.583 82.2944 26.5811 81.816C26.5738 80.5193 26.5244 79.219 26.5921 77.9279C26.6854 76.1658 26.9452 74.4203 27.4337 72.7155C27.58 72.202 27.7776 71.7458 28.4765 71.2785V71.2766Z" fill="#FE1111"/>
<path d="M34.1022 96.0697C33.0868 97.8614 31.508 98.4561 29.8925 98.8182C28.5204 99.1248 27.0842 99.3372 25.67 98.881C24.4241 98.4802 23.2422 97.9962 22.7409 96.6238C22.6622 96.4096 22.6183 96.151 22.664 95.9349C22.6933 95.789 22.8927 95.6523 23.0464 95.571C23.0903 95.5489 23.3099 95.7225 23.3337 95.8315C23.6849 97.479 25.0205 97.8244 26.3377 97.9888C28.1435 98.2123 29.9492 97.9722 31.6598 97.322C32.4429 97.0247 33.1619 96.5592 34.1041 96.0716H34.1022V96.0697Z" fill="black"/>
<path d="M29.77 71.9434C30.3664 73.7165 30.3774 75.3401 30.2384 76.936C29.9877 79.8322 29.5925 82.7136 29.2486 85.6006C29.2413 85.6597 29.1022 85.7022 28.8809 85.8463C28.9723 85.1887 29.0931 84.6438 29.1169 84.0971C29.2504 81.1288 29.3657 78.1587 29.4755 75.1887C29.5029 74.4203 29.4718 73.65 29.5047 72.8817C29.5157 72.6268 29.6438 72.3774 29.7718 71.9452H29.77V71.9434Z" fill="#FE1111"/>
<path d="M27.1646 47.4623C27.0457 46.4686 27.0109 45.4545 26.7913 44.4848C26.3779 42.6692 26.6468 40.8479 26.6121 39.0304C26.6084 38.8088 26.7054 38.5465 26.8407 38.3692C26.9615 38.2122 27.1975 38.0866 27.3914 38.0718C27.4866 38.0644 27.6915 38.3415 27.6933 38.4929C27.7006 39.1154 27.6366 39.7379 27.6201 40.3622C27.5945 41.2672 27.5634 42.1741 27.5762 43.0792C27.5927 44.374 27.6421 45.6706 27.6896 46.9654C27.7043 47.394 27.4152 47.3995 27.1261 47.4254L27.1646 47.4642V47.4623Z" fill="#FE1111"/>
<path d="M28.1744 47.937C28.2202 47.163 28.233 46.3854 28.319 45.6152C28.4397 44.5254 28.6428 43.443 28.7599 42.3533C28.8514 41.4962 28.8733 40.6299 28.9154 39.7674C28.9264 39.5291 28.8294 39.2539 28.9154 39.0562C29.0124 38.8346 29.2392 38.6185 29.4606 38.5317C29.5502 38.4966 29.8905 38.7921 29.9143 38.9657C29.9875 39.4829 30.0168 40.0223 29.9601 40.5413C29.7295 42.6783 29.3783 44.7951 28.8093 46.8694C28.7032 47.2554 28.5147 47.6156 28.3647 47.9887C28.3007 47.9702 28.2366 47.9536 28.1726 47.9351L28.1744 47.937Z" fill="#FE1111"/>
</svg>
