<svg width="379" height="836" viewBox="0 0 379 836" fill="none" xmlns="http://www.w3.org/2000/svg">
<path d="M372.491 47.7374C372.345 47.7275 371.665 47.706 370.984 47.6102C370.554 47.5573 370.262 47.8416 370.006 48.2961C369.763 48.7292 369.52 49.1821 369.256 49.5936C369.041 49.9308 368.867 50.2895 368.832 50.7754C368.756 51.6944 368.276 52.4217 368.291 53.3936C367.979 54.0696 367.915 54.8812 367.763 55.6415C367.632 56.296 367.402 56.8977 367.173 57.4878C367.042 57.8365 367.048 58.1423 367.145 58.458C367.276 58.8795 367.436 59.3241 367.29 59.7671C367.048 60.5158 366.999 61.2976 366.978 62.1108C366.895 65.1075 366.917 68.0943 366.958 71.0926C366.979 72.4545 366.784 73.8677 367.249 75.1669C367.263 75.8528 367.29 76.5487 367.298 77.2346C367.312 79.7669 367.292 82.3007 367.326 84.8329C367.34 85.9734 367.292 87.1238 367.638 88.2213C367.763 88.6114 367.722 89.1188 367.735 89.5833C367.763 90.7337 367.784 91.8841 367.805 93.0345C367.811 93.6147 367.833 94.1634 367.971 94.7237C368.075 95.1353 368.117 95.6212 368.117 96.0642C368.123 98.365 368.11 100.666 368.096 102.977C368.089 103.778 368.068 104.56 367.854 105.34C367.611 106.206 367.77 107.155 367.784 108.062C368.207 109.119 368.075 110.289 368.124 111.429C368.159 112.231 368.173 113.023 368.436 113.773C368.52 114.016 368.395 114.428 368.352 114.755C368.338 114.871 368.256 115.019 368.283 115.072C368.845 116.285 368.394 117.806 368.81 119.072C368.935 119.462 368.929 119.97 368.935 120.423C368.97 123.304 368.991 126.175 369.025 129.056C369.039 130.196 368.886 131.356 369.268 132.454C369.364 132.728 369.33 133.13 369.323 133.467C369.309 136.813 369.288 140.148 369.282 143.493C369.282 144.242 368.81 144.981 369.247 145.751C369.261 147.239 369.386 148.728 369.052 150.194C368.956 150.616 368.948 151.092 368.942 151.545C368.9 156.031 368.872 160.526 368.831 165.011C368.789 170.077 368.747 175.143 368.692 180.209C368.685 180.663 368.685 181.148 368.581 181.571C368.462 182.035 368.505 182.415 368.581 182.868C368.65 183.29 368.671 183.819 368.567 184.219C368.365 185 368.331 185.781 368.324 186.582C368.275 191.415 368.199 196.26 368.172 201.094C368.151 204.661 368.2 208.24 368.213 211.807C368.213 212.038 368.179 212.313 368.248 212.483C368.519 213.106 368.207 213.813 368.4 214.435C368.546 214.889 368.476 215.332 368.359 215.765C368.331 215.871 368.262 216.008 368.289 216.083C368.72 217.635 368.484 219.269 368.554 220.863C368.616 222.35 368.574 223.85 368.574 225.349C368.581 227.312 368.581 229.264 368.588 231.228C368.588 231.914 368.609 232.578 368.769 233.254C368.894 233.772 368.845 234.383 368.873 234.954C368.894 235.534 368.783 236.083 368.721 236.643C368.666 237.16 368.852 237.73 368.895 238.289C368.936 238.859 368.916 239.44 368.714 239.967C368.548 240.41 368.569 240.821 368.721 241.264C368.867 241.686 368.873 242.14 368.881 242.605C368.887 243.154 368.52 243.587 368.729 244.22C368.854 244.61 368.874 245.106 368.874 245.56C368.868 248.325 368.846 251.091 368.812 253.856C368.806 254.299 368.729 254.763 368.625 255.186C368.514 255.651 368.514 256.072 368.646 256.517C368.868 257.287 368.903 258.142 368.695 258.871C368.459 259.704 368.563 260.38 368.723 261.172C368.848 261.805 368.875 262.553 368.647 263.198C368.446 263.747 368.418 264.274 368.606 264.834C368.641 264.94 368.696 265.066 368.675 265.152C368.557 265.7 368.398 266.239 368.454 266.819C368.509 267.378 368.696 267.907 368.718 268.466C368.752 269.373 368.822 270.302 368.544 271.178C368.454 271.474 368.433 271.843 368.433 272.181C368.412 274.018 368.405 275.864 368.405 277.7C368.405 278.608 368.314 279.537 368.613 280.413C368.675 280.593 368.662 280.877 368.613 281.077C368.134 283.094 368.419 285.171 368.412 287.231C368.412 287.442 368.509 287.664 368.564 287.874C368.689 288.348 368.599 288.771 368.46 289.193C368.356 289.52 368.356 289.857 368.454 290.184C368.62 290.723 368.613 291.292 368.669 291.862C368.759 292.664 368.211 293.371 368.572 294.173C368.586 294.859 368.607 295.545 368.621 296.231C368.635 297.032 368.635 297.846 368.635 298.647C368.635 303.027 368.614 307.396 368.635 311.776C368.642 312.799 368.649 313.834 368.892 314.826C369.079 315.596 369.044 316.409 368.898 317.201C368.857 317.412 368.767 317.665 368.808 317.834C369.21 319.511 368.968 321.263 369.03 322.974C369.092 324.695 369.064 326.425 369.079 328.156C369.085 329.075 369.064 329.971 369.3 330.868C369.432 331.374 369.384 331.997 369.391 332.567C369.425 337.285 369.46 342.014 369.46 346.731C369.46 347.438 369.467 348.093 369.661 348.747C369.751 349.043 369.71 349.424 369.766 349.751C369.911 350.552 369.342 351.228 369.62 352.052C369.842 352.696 369.766 353.402 369.772 354.088C369.779 354.89 369.793 355.703 369.751 356.504C369.731 356.947 369.592 357.371 369.509 357.813C369.919 358.752 369.766 359.83 369.766 360.843C369.766 366.827 369.731 372.812 369.71 378.795C369.704 382.246 369.724 385.698 369.704 389.149C369.669 394.099 369.607 399.048 369.564 403.998C369.558 404.811 369.468 405.582 369.266 406.352C369.161 406.742 369.182 407.281 369.28 407.692C369.391 408.167 369.329 408.537 369.259 408.98C369.162 409.644 369.155 410.342 369.148 411.028C369.107 413.444 369.086 415.861 369.051 418.289C369.037 419.091 369.037 419.882 368.795 420.643C368.67 421.033 368.691 421.54 368.684 421.983C368.649 423.829 368.629 425.666 368.594 427.514C368.587 427.978 368.643 428.505 368.51 428.876C368.073 430.069 368.233 431.345 368.19 432.591C368.114 434.892 368.08 437.193 368.038 439.494C368.024 440.189 367.997 440.856 367.782 441.499C367.698 441.742 367.782 442.163 367.851 442.48C367.956 442.935 368.032 443.335 367.858 443.789C367.615 444.401 367.587 445.12 367.601 445.794C367.671 448.56 367.546 451.313 367.518 454.079C367.504 455.219 367.608 456.389 367.233 457.467C367.198 458.849 367.143 460.222 367.122 461.604C367.06 466.555 367.018 471.503 366.962 476.454C366.956 476.802 366.976 477.149 366.942 477.488C366.893 477.931 366.768 478.364 366.747 478.807C366.733 479.125 366.927 479.419 366.802 479.789C366.663 480.211 366.636 480.634 366.753 481.108C366.996 482.111 367.01 483.113 366.691 484.116C366.601 484.401 366.595 484.781 366.595 485.12C366.56 491.336 366.533 497.553 366.511 503.769C366.511 504.339 366.511 504.919 366.685 505.458C366.72 505.552 366.761 505.701 366.734 505.776C366.345 506.979 366.56 508.266 366.512 509.523C366.463 510.673 366.484 511.823 366.477 512.974C366.471 514.461 366.318 515.961 366.678 517.407C366.449 518.167 366.553 518.937 366.658 519.698C366.373 520.299 366.867 521.038 366.519 521.628C366.505 522.199 366.428 522.789 366.484 523.337C366.553 524.002 366.693 524.615 366.49 525.321C366.386 525.689 366.47 526.24 366.56 526.661C366.782 527.684 366.769 528.678 366.553 529.701C366.463 530.134 366.47 530.608 366.394 531.041C366.262 531.822 366.845 532.56 366.443 533.352C366.428 534.038 366.401 534.724 366.394 535.41C366.387 536.212 366.38 537.025 366.394 537.826C366.394 538.048 366.428 538.291 366.498 538.491C366.63 538.859 366.498 539.124 366.422 539.441C366.373 539.641 366.318 539.927 366.373 540.096C366.678 541.078 366.818 542.048 366.443 543.051C366.685 543.578 366.394 544.17 366.498 544.676C366.623 545.256 366.685 545.773 366.492 546.332C366.373 546.681 366.602 546.977 366.602 547.292C366.609 549.942 366.602 552.58 366.596 555.23C366.596 555.663 366.249 555.99 366.464 556.507C366.575 556.782 366.638 557.15 366.645 557.478C366.673 559.894 366.673 562.311 366.686 564.739C366.686 565.425 366.693 566.12 366.693 566.808C366.693 567.494 366.664 568.19 366.707 568.876C366.748 569.53 367.006 570.163 366.79 570.849C367.117 571.831 366.992 572.886 366.999 573.91C367.034 577.477 367.034 581.056 367.055 584.623C367.061 585.542 367.061 586.449 367.284 587.335C367.346 587.578 367.089 587.978 367.097 588.285C367.118 588.928 367.382 589.563 367.146 590.228C367.521 591.178 367.402 592.244 367.41 593.267C367.438 596.381 367.417 599.484 367.438 602.598C367.445 603.505 367.418 604.424 367.674 605.31C367.889 606.07 367.848 606.894 367.59 607.642C367.507 607.874 367.465 608.075 367.556 608.265C367.888 608.983 367.798 609.817 367.806 610.608C367.826 612.454 367.764 614.29 367.812 616.138C367.861 617.731 367.652 619.368 368.118 620.898C368.089 621.806 368.27 622.745 367.965 623.611C367.882 623.854 367.861 624.032 367.951 624.244C368.167 624.761 368.152 625.341 368.152 625.911C368.173 629.478 368.194 633.057 368.214 636.624C368.221 637.543 368.165 638.46 368.485 639.315C368.547 639.473 368.479 639.758 368.444 639.979C368.409 640.201 368.249 640.453 368.292 640.602C368.763 642.386 368.5 644.253 368.556 646.07C368.611 647.906 368.597 649.753 368.584 651.6C368.563 654.481 368.514 657.352 368.48 660.233C368.445 662.999 368.418 665.752 368.396 668.518C368.389 669.098 368.312 669.647 368.181 670.195C368.076 670.617 368.056 671.093 368.049 671.546C368.008 673.498 367.973 675.461 367.959 677.414C367.952 678.015 367.869 678.554 367.668 679.05C367.536 679.387 367.584 679.714 367.668 680.042C367.987 681.266 368.008 682.501 367.73 683.736C367.674 683.967 367.598 684.157 367.688 684.369C367.931 684.949 367.494 685.476 367.612 686.005C367.786 686.787 367.827 687.483 367.626 688.306C367.452 689.035 367.501 689.889 367.495 690.691C367.46 694.491 367.453 698.289 367.376 702.089C367.3 705.889 367.405 709.688 367.418 713.487C367.424 715.218 367.404 716.939 367.404 718.669C367.397 720.157 367.342 721.646 367.668 723.091C367.751 723.449 367.571 723.745 367.481 724.061C367.384 724.398 367.39 724.725 367.487 725.053C367.577 725.37 367.619 725.654 367.543 726.023C367.342 727.015 367.251 728.028 367.605 729.02C367.709 729.315 367.654 729.674 367.543 730.001C367.481 730.182 367.418 730.466 367.467 730.613C367.779 731.616 367.709 732.608 367.487 733.621C367.397 734.043 367.369 734.519 367.348 734.962C367.313 735.996 367.327 737.031 367.279 738.064C367.209 739.532 367.369 741.061 366.883 742.444C366.938 742.877 367.105 743.373 367.014 743.732C366.827 744.524 366.855 745.315 366.806 746.107C366.722 747.585 366.882 749.115 366.41 750.509C366.348 751.765 366.291 753.031 366.23 754.287C366.188 755.089 366.201 755.88 365.973 756.651C365.855 757.052 365.841 757.548 365.827 758.001C365.778 759.257 365.856 760.533 365.446 761.717C365.349 762.001 365.376 762.393 365.362 762.74C365.348 763.089 365.348 763.426 365.341 763.775C365.327 764.46 365.327 765.156 365.307 765.842C365.278 766.528 365.383 767.257 365.154 767.879C364.919 768.512 365.286 769.188 365.015 769.831C364.87 770.179 364.911 770.717 364.904 771.181C364.856 774.284 364.786 777.386 364.779 780.5C364.779 781.196 364.481 781.831 364.592 782.464C364.711 783.14 364.773 783.804 364.849 784.49C364.925 785.155 365.091 785.809 365.216 786.464C365.237 786.569 365.245 786.695 365.265 786.801C365.335 787.149 365.515 787.381 365.745 787.402C366.196 787.445 366.653 787.487 367.106 787.508C367.501 787.518 367.856 787.688 368.161 788.057C368.522 788.49 368.883 788.87 369.369 788.902C369.508 788.911 369.668 789.039 369.771 789.186C370.409 790.168 371.048 791.149 371.666 792.163C371.811 792.406 371.965 792.754 371.965 793.06C371.979 793.936 372.346 794.559 372.582 795.255C372.943 796.29 372.943 797.482 373.297 798.506C373.283 799.308 373.269 800.111 373.256 800.913C372.881 801.799 372.923 802.896 372.583 803.825C372.361 804.449 372.125 804.997 371.785 805.462C371.188 806.275 370.397 806.422 369.689 805.863C368.794 805.156 368.08 804.164 367.531 802.886C367.406 802.602 367.315 802.275 367.176 802.02C366.69 801.135 366.059 800.406 365.747 799.351C365.129 797.262 364.31 795.33 363.859 793.125C363.748 792.576 363.574 792.068 363.422 791.541C363.311 791.173 363.235 791.151 362.915 791.361C362.568 791.592 362.228 791.835 361.881 792.047C361.521 792.259 361.215 792.574 360.93 792.966C359.799 794.518 358.814 796.249 357.988 798.191C357.822 798.571 357.703 799.014 357.502 799.341C356.885 800.354 356.301 801.377 355.837 802.592C355.42 803.68 354.803 804.576 354.385 805.663C354.115 806.381 353.684 806.888 353.442 807.584C353.233 808.186 353.081 808.829 352.79 809.367C352.595 809.716 352.665 810.265 352.901 810.496C353.338 810.929 353.809 811.278 354.192 811.858C354.567 812.429 355.018 812.862 355.199 813.685C355.219 813.791 355.261 813.928 355.324 813.959C356.371 814.688 356.726 816.323 357.329 817.6C357.94 818.898 358.377 820.397 358.717 821.906C358.981 823.078 359.342 824.26 359.244 825.569C359.21 826.033 359.314 826.476 359.439 826.9C359.599 827.448 359.585 828.007 359.46 828.577C359.363 829.01 359.224 829.453 359.23 829.896C359.259 831.078 358.82 831.838 358.279 832.503C358.105 832.714 357.898 832.861 357.689 832.977C357.404 833.136 357.113 833.242 356.821 833.357C356.502 833.494 356.28 833.03 355.981 833.009C355.752 832.999 355.524 832.977 355.301 832.934C355.155 832.903 355.002 832.85 354.87 832.756C354.731 832.66 354.614 832.513 354.489 832.387C353.996 831.87 353.476 831.405 353.01 830.825C352.545 830.245 352.143 829.538 351.698 828.914C350.79 827.627 350.352 825.885 349.762 824.291C349.693 824.101 349.658 823.858 349.658 823.627C349.644 822.804 349.457 822.075 349.262 821.316C349.103 820.683 349.075 819.986 348.922 819.321C348.825 818.919 348.818 818.371 348.922 817.981C349.304 816.546 349.193 815.047 349.262 813.569C349.277 813.295 349.027 812.883 348.846 812.883C347.638 812.862 346.424 812.852 345.217 812.84C343.995 813.61 342.69 813.346 341.42 813.579C340.996 813.653 340.608 814.181 340.128 814.106C339.503 814.012 339.025 814.792 338.379 814.751C337.859 814.708 337.317 814.794 336.838 815.215C336.776 815.268 336.699 815.331 336.629 815.343C336.026 815.417 335.415 815.448 334.817 815.564C334.22 815.68 333.671 816.123 333.047 816.113C332.444 816.113 331.854 816.219 331.27 816.577C330.938 816.789 330.528 816.746 330.153 816.777C329.626 816.82 329.105 816.862 328.598 817.199C328.334 817.379 328.008 817.336 327.71 817.379C326.738 817.495 325.76 817.4 324.802 817.918C324.323 818.182 323.755 818.065 323.227 818.098C322.555 818.151 321.874 817.886 321.235 818.519C321.013 818.741 320.652 818.657 320.353 818.709C319.388 818.857 318.375 818.551 317.459 819.301C316.931 819.344 316.397 819.407 315.869 819.428C315.412 819.45 314.974 819.513 314.537 819.777C314.266 819.946 313.946 819.967 313.649 819.989C312.968 820.042 312.289 820.073 311.608 820.095C311.005 820.116 310.421 820.189 309.825 820.485C309.339 820.728 308.777 820.812 308.277 820.4C308.117 820.273 308.02 820.285 307.854 820.379C307.577 820.538 307.271 820.643 306.979 820.663C306.374 820.716 305.771 820.704 305.16 820.716C304.931 820.716 304.703 820.663 304.48 820.726C303.744 820.916 303.043 821.338 302.259 821.253C301.509 821.169 300.746 821.285 299.989 821.316C299.233 821.347 298.476 821.412 297.72 821.4C297.324 821.4 296.991 821.643 296.63 821.781C296.353 821.886 296.013 821.886 295.742 821.759C295.437 821.6 295.195 821.6 294.889 821.759C294.612 821.906 294.292 821.906 293.993 821.906C288.919 821.99 283.846 821.906 278.772 821.726C278.182 821.704 277.634 821.134 277.029 821.505C276.467 821.062 275.842 821.187 275.246 821.136C274.26 821.062 273.281 821.03 272.296 820.967C272.074 820.957 271.824 820.957 271.636 820.809C271.066 820.366 270.463 820.407 269.858 820.407C269.407 820.407 268.95 820.354 268.499 820.366C268.027 820.376 267.611 820.207 267.201 819.86C267 819.691 266.764 819.691 266.555 819.891C266.215 820.219 265.827 820.313 265.466 820.144C265.098 819.976 264.765 819.776 264.39 820.06C263.98 819.701 263.522 819.701 263.064 819.691C262.682 819.681 262.307 819.66 261.925 819.66C260.336 819.628 258.747 819.554 257.157 819.597C256.414 819.619 255.644 819.46 254.915 819.934C254.651 820.103 254.325 820.072 254.027 820.081C251.911 820.124 249.787 820.144 247.669 820.177C247.142 820.187 246.601 820.093 246.101 820.42C245.684 820.695 245.219 820.124 244.831 820.632C243.853 820.695 242.867 820.769 241.889 820.822C241.437 820.843 240.98 820.853 240.529 820.865C239.383 821.698 238.155 821.329 236.955 821.404C236.344 821.447 235.782 821.594 235.199 821.921C234.574 822.27 233.887 822.342 233.228 822.628C232.59 822.903 231.875 822.797 231.195 822.84C230.598 822.883 229.987 822.777 229.411 823.199C229.224 823.336 228.966 823.293 228.744 823.305C223.824 823.442 218.895 823.42 213.974 823.283C212.232 823.23 210.49 823.177 208.748 823.124C208.221 823.114 207.692 823.114 207.193 822.756C206.999 822.618 206.749 822.629 206.527 822.619C203.195 822.534 199.871 822.491 196.54 822.376C195.568 822.344 194.569 822.597 193.618 822.017C193.513 821.954 193.347 822.08 193.222 822.154C192.861 822.397 192.48 822.354 192.105 822.354C190.515 822.354 188.926 822.311 187.336 822.344C186.663 822.354 185.983 822.281 185.33 822.734C185.074 822.913 184.74 822.862 184.435 822.871C183.075 822.924 181.707 822.913 180.346 823.009C179.375 823.071 178.382 822.744 177.445 823.452C177.258 823.589 176.994 823.493 176.772 823.505C175.03 823.505 173.288 823.695 171.546 823.547C171.324 823.526 171.054 823.504 170.88 823.663C170.179 824.318 169.408 824.118 168.665 824.169C167.603 824.243 166.549 824.222 165.487 824.253C164.807 824.275 164.134 824.232 163.474 824.622C163.14 824.822 162.731 824.738 162.35 824.749C159.469 824.78 156.596 824.771 153.716 824.855C152.522 824.886 151.294 824.506 150.134 825.266C149.683 825.276 149.225 825.329 148.773 825.298C148.169 825.257 147.565 825.425 146.969 825.139C146.372 824.853 145.823 825.445 145.22 825.318C144.623 825.19 144.012 825.286 143.401 825.286C142.874 825.286 142.339 825.308 141.812 825.296C141.208 825.286 140.604 825.233 139.993 825.233C139.389 825.223 138.779 825.276 138.175 825.276C133.559 825.255 128.936 825.245 124.321 825.214C123.939 825.214 123.571 825.298 123.218 825.519C122.842 825.762 122.502 825.129 122.135 825.361C121.399 825.815 120.671 825.931 119.941 825.392C119.587 825.539 119.226 825.592 118.873 825.402C118.393 825.876 117.852 825.751 117.325 825.751C114.452 825.751 111.571 825.719 108.697 825.761C108.031 825.771 107.336 825.666 106.692 826.141C106.497 826.278 106.255 826.299 106.032 826.299C101.868 826.256 97.7032 826.204 93.5389 826.152C92.866 826.142 92.1714 826.333 91.5464 825.731C91.2551 825.815 90.9637 825.89 90.6789 825.974C89.8115 825.382 88.8886 825.668 87.9929 825.605C86.1744 825.478 84.3558 825.478 82.5448 825.394C81.9481 825.362 81.3513 825.384 80.7611 825.004C80.435 824.792 80.0186 824.845 79.6436 824.823C78.0544 824.739 76.4652 824.676 74.8749 824.602C74.4238 824.581 73.9792 824.539 73.5422 824.253C73.2781 824.073 72.952 824.053 72.6607 824.042C70.5443 823.979 68.4202 823.936 66.2962 823.883C65.6233 823.862 64.9364 823.946 64.3179 823.366C64.2135 823.271 63.9917 823.313 63.8874 823.428C63.4711 823.862 62.9993 823.186 62.6036 823.628C61.8884 823.143 61.1188 823.248 60.3753 823.227C55.8294 823.133 51.29 823.058 46.7442 822.974C44.7038 822.943 42.6559 822.9 40.6156 822.89C38.4992 822.88 36.3752 822.89 34.2577 822.89C33.8272 822.89 33.362 823.523 33.3348 824.167C33.2935 824.969 33.2163 825.782 33.2587 826.584C33.3141 827.681 32.863 828.536 32.7728 829.57C32.6826 830.594 32.2869 831.481 31.9543 832.377C31.6901 833.094 31.3227 833.675 30.9477 834.235C30.1705 835.417 29.2129 836.05 28.0954 835.997C27.8737 835.987 27.6508 835.891 27.4432 835.785C27.228 835.68 27.0334 835.405 26.8258 835.395C25.5344 835.332 24.8061 834.002 24.0702 832.683C23.9245 832.43 23.8202 832.103 23.7376 831.785C23.6267 831.364 23.5919 830.888 23.4669 830.476C23.293 829.906 23.3484 829.41 23.481 828.83C23.5995 828.324 23.2104 827.807 23.4115 827.215C23.5506 826.814 23.6408 826.371 23.7104 825.928C23.9322 824.546 24.4115 823.415 25.0844 822.433C25.8616 821.314 26.6812 820.323 27.791 820.111C28.5335 819.425 29.3802 819.478 30.1922 819.329C30.3662 819.298 30.539 818.759 30.4629 818.496C30.401 818.285 30.3238 818.085 30.2683 817.873C29.9009 816.354 29.2063 815.098 28.727 813.673C28.6302 813.377 28.4563 813.124 28.3041 812.881C27.4638 811.551 26.6312 810.222 25.7779 808.903C25.1398 807.921 24.5496 806.824 23.8202 806.022C22.9038 805.019 21.9875 804.006 21.0374 803.088C20.0863 802.169 19.0732 801.399 18.0177 800.756C17.8514 800.65 17.5177 800.936 17.497 801.22C17.4003 802.465 17.2883 803.7 17.0601 804.924C16.6155 807.31 16.2339 808.797 15.2763 810.381C14.6654 811.394 14.0273 812.397 13.3327 813.273C12.6946 814.075 11.8816 814.476 11.1185 814.972C10.2163 815.015 9.29991 815.278 8.47378 814.434C8.28681 814.243 8.07811 814.075 7.85636 814C6.98131 813.695 6.42694 812.703 5.89865 811.753C5.51711 811.067 5.30188 810.169 5.21818 809.252C5.05839 807.5 5.34971 805.832 5.77364 804.229C6.02366 803.278 6.30845 802.339 6.63456 801.442C6.99544 800.45 7.32155 799.384 8.13354 798.994C8.26507 798.931 8.3629 798.71 8.46617 798.539C8.82706 797.938 9.22925 797.379 9.74993 797.168C10.4782 796.883 11.1522 796.313 11.9359 796.344C12.7686 796.376 13.6012 796.344 14.4273 796.335C14.698 796.335 15.1285 795.511 15.0871 795.078C15.0252 794.402 14.7328 793.822 14.7545 793.105C14.7752 792.419 14.7197 791.723 14.6991 791.035C14.2197 789.568 14.498 787.837 14.0121 786.359C13.8871 785.979 13.9425 785.462 13.9154 785.009C13.874 784.439 13.874 783.849 13.6653 783.341C13.3251 782.528 13.5469 781.505 13.2349 780.682C12.9577 779.943 13.0131 779.12 12.9577 778.328C12.9229 777.864 12.8468 777.431 12.7425 776.998C12.6381 776.576 12.5968 776.112 12.5479 775.667C12.4925 775.097 12.5544 774.454 12.3957 773.978C12.0631 773.017 12.2435 771.908 11.9305 770.969C11.8337 770.664 11.7642 770.327 11.7152 769.988C11.5696 768.974 11.7848 767.887 11.5065 766.917C11.2565 766.041 11.3261 765.09 11.1598 764.236C10.8054 762.315 10.8272 760.373 10.7989 758.431C10.7924 757.839 10.7021 757.312 10.5695 756.763C10.4793 756.383 10.6598 755.95 10.563 755.475C10.3413 754.368 10.313 753.206 10.6043 752.099C10.6663 751.856 10.6663 751.718 10.5837 751.475C10.4793 751.18 10.4239 750.831 10.4174 750.494C10.3826 748.994 10.3684 747.507 10.3684 746.008C10.3684 745.206 10.4032 744.414 10.1673 743.644C10.0489 743.254 10.063 742.747 10.0565 742.294C10.0152 739.297 9.96624 736.31 9.94559 733.312C9.93907 732.499 9.90428 731.729 9.70971 730.948C9.54992 730.315 9.55753 729.567 9.73036 728.922C9.84885 728.468 9.82058 728.089 9.75102 727.625C9.64666 726.97 9.65427 726.263 9.64666 725.577C9.57709 718.549 9.62601 711.529 9.68797 704.501C9.74993 697.483 9.73689 690.453 9.8195 683.435C9.84015 681.851 9.59775 680.205 10.0554 678.655C10.1043 678.486 10.0412 678.222 9.99342 678.022C9.79884 677.124 9.91733 676.195 9.84776 675.288C9.79884 674.58 10.2434 674.022 10.0423 673.324C9.81297 672.554 9.91733 671.741 9.89015 670.939C9.8695 670.253 9.89015 669.557 9.89015 668.87C9.89015 668.068 9.89668 667.255 9.89668 666.453C9.89668 665.767 9.89668 665.071 9.89668 664.384C9.9032 660.933 9.89668 657.481 9.91081 654.03C9.91733 652.078 9.95972 650.115 9.98038 648.162C9.9869 647.467 10.0358 646.801 10.2021 646.136C10.3065 645.724 10.2989 645.239 10.3065 644.786C10.3413 642.485 10.3619 640.184 10.3902 637.873C10.3967 637.409 10.3065 636.976 10.1815 636.543C10.0565 636.121 10.376 635.677 10.1673 635.245C9.96624 634.812 10.4032 634.422 10.1956 633.968C9.96624 633.462 10.001 632.87 9.99451 632.3C9.98798 631.835 9.9532 631.382 9.94559 630.918C9.93907 630.454 9.95211 629.999 9.94559 629.536C9.94559 629.305 9.95972 629.04 9.89668 628.86C9.376 627.445 9.66079 625.926 9.64666 624.459C10.2717 621.419 9.96624 618.295 10.0423 615.214C10.1043 612.564 10.0978 609.917 10.126 607.267C10.1402 606.348 10.1402 605.441 10.3902 604.555C10.5087 604.153 10.4869 603.657 10.5011 603.204C10.5217 602.403 10.5152 601.589 10.5424 600.788C10.5565 600.333 10.5217 599.796 10.6608 599.426C11.188 598.032 11.0565 596.523 11.0913 595.046C11.1196 594.023 11.1054 592.998 11.3413 592.016C11.0565 591.352 11.2228 590.728 11.3761 590.052C11.4946 589.525 11.4946 588.923 11.5076 588.353C11.5359 586.507 11.5076 584.671 11.5696 582.823C11.6315 581.008 11.4174 579.129 11.9446 577.388C11.9794 576.006 12.0207 574.623 12.0555 573.241C12.0761 572.324 12.0696 571.395 12.1316 570.476C12.187 569.6 12.6522 568.777 12.2424 567.848C12.7631 565.378 12.4642 562.813 12.6175 560.312C12.6936 559.056 12.6588 557.821 12.9164 556.577C13.0968 555.722 13.0414 554.75 13.0555 553.833C13.0838 551.997 13.0697 550.15 13.0968 548.314C13.111 547.522 13.0414 546.699 13.3392 545.96C13.3947 545.823 13.3327 545.527 13.2773 545.337C13.1523 544.894 13.0827 544.387 13.2012 543.997C13.5479 542.909 13.5066 541.77 13.5132 540.62C13.5414 537.169 13.6034 533.707 13.6588 530.256C13.6653 529.919 13.6447 529.527 13.7349 529.243C14.0338 528.261 13.9914 527.227 14.0056 526.194C14.0675 521.022 14.1164 515.84 14.1925 510.668C14.2132 509.412 14.0958 508.124 14.5121 506.942C14.5263 506.257 14.5534 505.561 14.561 504.875C14.6023 500.959 14.6513 497.043 14.6654 493.128C14.6654 492.42 14.7273 491.777 14.9426 491.154C14.4078 489.624 14.7556 487.977 14.7132 486.394C14.6643 484.673 14.7415 482.943 14.7621 481.212C14.7763 479.597 14.7969 477.994 14.7969 476.379C14.7969 475.799 14.9078 475.26 14.9839 474.711C15.0535 474.216 14.81 473.624 14.8034 473.075C14.7828 471.693 14.7969 470.31 14.8317 468.928C14.8458 468.495 15.0121 468.062 15.0469 467.631C15.0676 467.325 14.8947 467.039 14.998 466.66C15.1643 466.059 14.8176 465.33 15.1437 464.73C15.1578 464.044 15.1785 463.348 15.1926 462.662C15.248 457.48 15.3035 452.298 15.3589 447.117C15.3654 446.431 15.3382 445.723 15.5741 445.1C15.6926 444.773 15.7133 444.424 15.6024 444.118C15.3317 443.358 15.3872 442.556 15.4361 441.755C15.4774 441.09 15.8872 440.489 15.61 439.781C15.4013 439.232 15.8394 438.684 15.5611 438.176C15.6372 437.406 15.8252 436.677 15.7481 435.854C15.6861 435.178 15.7481 434.472 15.7546 433.786C15.7611 432.985 15.7546 432.171 15.7611 431.37C15.7676 430.568 15.7817 429.755 15.7894 428.953C15.7959 428.267 15.7894 427.571 15.8035 426.885C15.81 426.084 15.8383 425.271 15.8448 424.469C15.8513 423.667 15.8448 422.854 15.8448 422.052C15.8448 421.367 15.8513 420.671 15.8589 419.985C15.8654 419.183 15.8872 418.38 15.8872 417.568C15.9013 415.383 15.9155 413.2 15.922 411.015C15.922 408.829 15.9078 406.646 15.9078 404.461C15.9078 403.195 15.9144 401.929 15.922 400.661C15.922 400.091 15.8731 399.501 15.9361 398.94C16.0198 398.149 15.5198 397.421 15.8524 396.618C15.5535 395.816 15.9839 395.088 15.9568 394.327C15.9426 393.873 15.9426 393.388 15.8318 392.987C15.6372 392.322 15.6448 391.656 15.6165 390.97C15.5959 390.4 15.9774 389.926 15.7828 389.334C15.5611 388.679 15.6578 387.983 15.6437 387.297C15.6296 386.727 15.6644 386.147 15.6644 385.567C15.6437 382.453 15.6154 379.35 15.5948 376.238C15.5883 375.552 15.6089 374.856 15.5807 374.17C15.56 373.484 15.5665 372.777 15.4415 372.122C15.3165 371.468 15.5665 370.825 15.3513 370.149C15.1991 369.675 15.2545 369.02 15.2545 368.45C15.2687 361.653 15.2959 354.856 15.31 348.07C15.3241 339.668 15.3241 331.257 15.3306 322.857C15.3306 322.508 15.3372 322.171 15.3448 321.822C15.3513 320.787 15.3796 319.754 15.3654 318.72C15.3513 317.697 15.5111 316.63 15.1295 315.67C15.5393 314.773 15.1578 313.908 15.0676 313.032C15.0535 312.916 15.0611 312.801 15.0611 312.683C15.0611 312.566 15.0611 312.452 15.0611 312.335C15.0404 307.839 15.0198 303.353 14.9991 298.857C14.9991 298.626 15.0274 298.383 14.985 298.171C14.4502 295.712 14.7426 293.148 14.6034 290.636C14.5752 290.065 14.6034 289.485 14.5893 288.905C14.5752 288.219 14.6513 287.523 14.4295 286.869C14.2556 286.363 14.5893 285.813 14.3741 285.232C14.2349 284.874 14.2904 284.335 14.2838 283.882C14.2556 281.232 14.2349 278.585 14.2001 275.935C14.1936 275.028 14.2904 274.077 13.9012 273.266C13.9219 272.811 13.9295 272.358 13.9632 271.904C13.9773 271.682 14.1088 271.429 14.0675 271.271C13.5958 269.487 13.9219 267.619 13.7969 265.803C13.7349 264.895 13.7827 263.988 13.5121 263.112C13.3936 262.722 13.4218 262.215 13.4077 261.762C13.3795 260.611 13.3458 259.461 13.3664 258.31C13.3805 257.54 12.9153 256.801 13.3045 256C13.3392 255.925 13.3392 255.757 13.311 255.663C12.9088 254.481 13.0262 253.203 13.012 251.947C13.0055 251.145 12.9707 250.332 12.9501 249.53C12.9294 248.729 12.9153 247.925 12.9012 247.124C12.5262 246.459 13.0327 245.562 12.6446 244.886C12.5827 244.78 12.6794 244.453 12.7207 244.241C12.762 244.03 12.9153 243.767 12.8729 243.63C12.3251 241.868 12.6512 240 12.5957 238.195C12.5403 236.474 12.5675 234.744 12.5892 233.013C12.5957 232.212 12.6729 231.43 12.5957 230.607C12.512 229.699 12.5468 228.77 12.5338 227.851C12.1446 227.175 12.6381 226.299 12.3044 225.572C12.2001 225.341 12.2142 224.864 12.2903 224.569C12.4914 223.798 12.6164 223.112 12.3598 222.278C12.2142 221.792 12.249 221.149 12.249 220.579C12.2555 215.967 12.2696 211.365 12.2838 206.752C12.2838 206.415 12.2696 206.035 12.3598 205.729C12.5262 205.17 12.5338 204.673 12.3805 204.114C12.3044 203.818 12.3251 203.428 12.3598 203.091C12.3946 202.764 12.5468 202.458 12.5685 202.131C12.5892 201.813 12.3598 201.519 12.5196 201.161C12.7349 200.655 12.3946 200.126 12.5609 199.536C12.7273 198.934 12.6718 198.185 12.7066 197.509C12.7349 196.939 12.7555 196.359 12.762 195.789C12.7762 194.638 12.7555 193.488 12.8033 192.338C12.8794 190.523 12.6164 188.665 13.0881 186.903C12.6088 185.858 13.3175 184.961 13.2479 183.938C13.186 183.03 13.2479 182.101 13.2544 181.182C13.2686 180.148 13.2545 179.103 13.3099 178.068C13.3936 176.601 13.1642 175.072 13.6643 173.657C13.761 173.382 13.7132 172.981 13.7197 172.634C13.761 170.682 13.7958 168.718 13.8447 166.766C13.873 165.625 13.8099 164.475 14.136 163.368C14.2545 162.978 14.2056 162.46 14.2121 162.006C14.2534 159.821 14.3023 157.637 14.323 155.452C14.3295 154.639 14.3925 153.869 14.635 153.12C14.7252 152.836 14.6904 152.444 14.6969 152.107C14.7382 149.921 14.7523 147.726 14.8154 145.541C14.8567 144.064 14.7871 142.565 15.148 141.108C15.3002 140.485 15.2382 139.746 15.2524 139.051C15.2872 137.551 15.3078 136.064 15.3491 134.565C15.3698 133.879 15.3904 133.203 15.585 132.548C15.7035 132.146 15.7035 131.651 15.71 131.198C15.7654 128.666 15.8068 126.132 15.8491 123.599C15.8698 122.565 15.8285 121.542 16.1133 120.55C16.2524 120.044 16.2242 119.421 16.2242 118.851C16.2448 115.854 16.384 112.867 16.335 109.869C16.3285 109.277 16.397 108.729 16.5992 108.223C16.1622 106.324 16.4122 104.35 16.3774 102.408C16.3426 100.456 16.3916 98.4923 16.3492 96.5402C16.3079 94.5981 16.5155 92.6246 16.0437 90.7353C15.9676 90.4296 16.0231 90.0494 16.0231 89.7006C15.9948 86.2494 15.9741 82.7883 15.9328 79.3371C15.9187 78.314 16.0578 77.2578 15.6828 76.2975C15.6622 75.6115 15.6339 74.9256 15.6133 74.2297C15.572 72.9636 15.5372 71.6975 15.5024 70.4298C15.1132 69.248 15.2252 67.9604 15.1698 66.7042C15.1285 65.6811 15.1698 64.6364 14.8024 63.686C14.698 63.4216 14.7469 63.01 14.7263 62.6629C14.685 61.977 14.6295 61.3224 14.4697 60.6464C14.2197 59.5704 14.0045 58.4613 13.6436 57.4597C13.4632 56.9539 13.1718 56.5621 12.7349 56.5935C12.6588 56.5935 12.5827 56.5935 12.5055 56.5935C11.9011 56.5836 11.2978 56.5836 10.6869 56.5721C10.5348 56.5721 10.375 56.5721 10.2358 56.4977C9.59014 56.1489 8.91728 56.0332 8.26507 55.7688C7.75853 55.5688 7.23785 55.3572 6.76608 55.0299C6.01605 54.5241 5.19101 54.2481 4.55184 53.3737C4.33009 53.068 4.05943 52.825 3.78115 52.6564C2.83002 52.0647 2.14955 50.9672 1.54626 49.8068C0.941883 48.6465 0.484252 47.306 0.262502 45.8284C0.192933 45.3854 0.221196 44.878 0.0885805 44.478C-0.105994 43.8862 0.0744487 43.4119 0.116842 42.8631C0.186411 41.997 0.303809 41.3226 0.908186 41.0053C1.01906 40.9425 1.0745 40.6466 1.1582 40.4565C1.28973 40.1607 1.44952 39.9706 1.69301 39.9078C2.28325 39.7491 2.91481 40.1078 3.47679 39.602C3.60832 39.4863 3.74093 39.602 3.88659 39.7078C5.11492 40.5937 6.33019 41.4813 7.44003 42.7044C8.71727 44.1193 10.0847 45.3424 11.375 46.7474C12.2501 47.7077 13.0131 48.7639 13.5403 50.2085C13.6447 50.5044 13.8251 50.7358 13.9849 50.9903C14.1588 51.2746 14.3947 51.2548 14.6165 51.2217C14.7621 51.2002 14.9219 51.1275 15.0393 51.0101C15.4839 50.5771 15.9763 50.2184 16.3437 49.6597C17.0862 48.5308 18.0993 47.8664 18.6895 46.4928C19.4319 45.8499 19.9526 44.8879 20.432 43.8334C20.7309 43.1689 21.1124 42.5987 21.4799 42.0185C22.3266 40.6995 22.993 39.159 23.5897 37.5756C24.1169 36.1822 24.7278 34.8847 25.2692 33.5128C25.5398 32.8269 25.9072 32.1723 26.0323 31.4335C26.2616 30.0715 26.754 28.9112 27.1214 27.6649C27.5519 26.2087 27.8432 24.6683 28.3498 23.2435C28.6346 22.4418 28.4954 21.4286 28.8009 20.5939C28.8357 20.5096 28.69 20.1724 28.5791 20.0667C27.7878 19.3592 27.1497 18.3989 26.4758 17.47C25.4551 16.0452 24.7474 14.2833 24.0256 12.5312C23.7963 11.961 23.5604 11.3593 23.4778 10.6519C23.4158 10.1031 23.2973 9.50148 23.0821 9.05851C22.5614 7.961 22.7147 6.6106 22.4016 5.43872C22.3603 5.28004 22.4299 5.00566 22.4919 4.81558C22.6658 4.27675 22.6103 3.68667 22.6658 3.12634C22.8049 1.70157 23.6865 0.233812 24.5463 0.0652187C25.3029 -0.0818872 26.0594 0.00240988 26.7671 0.498272C27.1073 0.741245 27.4128 1.14124 27.7595 1.31149C28.6965 1.73297 29.2585 2.83048 29.814 3.90815C30.1814 4.6255 30.439 5.47012 30.751 6.26185C30.6749 7.34944 31.2782 8.15108 31.2782 9.22711C31.2782 9.67008 31.3749 10.1345 31.4934 10.5461C31.6532 11.0949 31.7021 11.6436 31.7086 12.2238C31.7228 13.7229 31.7499 15.2204 31.7434 16.7097C31.7369 17.713 31.8336 18.3989 32.6598 18.7576C33.1043 18.9576 33.5207 19.1691 33.8674 19.6435C34.1033 19.9609 34.374 20.0865 34.6859 20.1295C36.7263 20.3939 38.7666 20.4981 40.8145 20.3096C41.3417 20.2567 41.8483 20.2038 42.3689 19.908C42.7787 19.6766 43.257 19.7179 43.7081 19.6964C44.319 19.665 44.9158 19.6534 45.4854 19.2419C45.6169 19.1477 45.7767 19.0419 45.9159 19.0617C46.9985 19.1989 47.9562 18.2799 49.0258 18.2799C49.7063 18.2799 50.303 17.6154 51.0107 17.6568C51.615 17.6882 52.2183 17.594 52.8292 17.5295C53.051 17.508 53.2869 17.4551 53.4814 17.308C53.9043 16.9807 54.3695 17.0551 54.8141 16.9493C55.4109 16.8122 56.0566 17.1807 56.6044 16.7378C57.1664 16.2832 57.8056 16.4634 58.3469 16.0733C58.8535 15.7146 59.36 15.6717 59.8948 15.6518C60.422 15.6303 60.9427 15.6089 61.4362 15.2188C61.6862 15.0188 62.0188 15.0188 62.3178 14.9973C63.2265 14.9444 64.1363 14.9229 65.0451 14.8816C65.3505 14.8717 65.6831 14.9758 65.9473 14.8072C66.8288 14.2585 67.7376 14.4485 68.6398 14.4386C71.3671 14.4171 74.0955 14.47 76.8228 14.4287C78.1761 14.4072 79.5436 14.5973 80.8904 14.0799C81.0154 14.0271 81.1817 14.0799 81.3067 14.1642C81.9731 14.5857 82.6666 14.5014 83.3123 14.2271C83.909 13.9626 84.4917 13.8684 85.0961 13.8155C85.9222 13.7411 86.769 13.8684 87.5397 13.2452C88.0669 13.2238 88.6017 13.2452 89.1289 13.1609C89.9474 13.0337 90.7942 13.3196 91.5855 12.6866C91.8279 12.4866 92.1758 12.5709 92.4812 12.5593C93.6193 12.5279 94.7509 12.5163 95.889 12.4849C96.5618 12.4634 97.2564 12.6122 97.8945 12.0833C98.0054 11.9891 98.2141 11.9891 98.3315 12.0833C98.8935 12.5576 99.5109 12.4006 100.109 12.4948C100.574 12.5791 101.011 12.432 101.435 12.1461C101.65 11.999 101.886 11.9874 102.087 12.1775C102.58 12.6519 103.108 12.4948 103.635 12.4419C104.093 11.9031 104.648 12.5477 105.134 12.1577C105.335 11.999 105.571 12.0519 105.78 12.242C106.196 12.6221 106.661 12.6221 107.106 12.4948C107.62 12.3362 108.105 12.2304 108.625 12.4734C108.799 12.5576 109.042 12.2932 109.257 12.1891C110.063 12.9279 110.854 12.6436 111.638 12.1362C112.609 12.1362 113.602 11.7461 114.553 12.3676C114.699 12.4618 114.817 12.4304 114.969 12.3246C115.178 12.1973 115.406 12.0932 115.621 12.0932C116.982 12.0833 118.349 12.0932 119.71 12.1246C119.931 12.1345 120.167 12.2188 120.355 12.3891C120.612 12.6105 120.778 12.3676 120.973 12.2519C121.195 12.1246 121.41 12.1246 121.633 12.2734C121.764 12.3577 121.945 12.5378 122.035 12.4734C122.833 11.8618 123.679 12.2932 124.491 12.1775C124.881 12.1246 125.227 12.3362 125.574 12.599C125.775 12.7576 126.005 12.7576 126.22 12.556C126.476 12.3031 126.768 12.1874 127.081 12.2072C127.608 12.2386 128.143 12.1229 128.643 12.513C128.705 12.556 128.788 12.6072 128.844 12.5758C130.1 11.88 131.391 12.3444 132.668 12.2915C134.029 12.2287 135.395 12.3345 136.756 12.3444C138.04 12.3543 139.331 12.313 140.615 12.313C141.906 12.3031 143.19 12.2915 144.482 12.313C147.813 12.3659 151.145 12.3444 154.477 12.3874C156.066 12.4089 157.655 12.4618 159.245 12.4816C159.703 12.4915 160.141 12.6089 160.543 12.9775C160.82 13.2304 161.154 13.2089 161.425 13.0304C162.3 12.4287 163.174 12.4072 164.062 12.8833C164.214 12.9676 164.333 12.9775 164.492 12.8618C164.915 12.5345 165.409 12.4601 165.825 12.6816C166.928 13.2618 168.06 13.1362 169.184 13.1775C170.544 13.2403 171.905 13.1345 173.272 13.2519C174.632 13.3676 175.993 13.2519 177.36 13.2733C180.012 13.3163 182.656 13.3576 185.308 13.4419C186.058 13.4634 186.807 13.4105 187.536 13.9064C187.862 14.1279 188.278 14.0651 188.653 14.075C190.472 14.1378 192.29 14.1692 194.101 14.2337C194.553 14.2436 195.018 14.2337 195.434 14.5709C195.58 14.6866 195.705 14.6337 195.857 14.508C196.204 14.2237 196.593 14.2651 196.968 14.2766C202.569 14.3196 208.177 14.3609 213.779 14.4138C218.172 14.4568 222.566 14.508 226.958 14.5609C228.396 14.5824 229.839 14.6353 231.276 14.6766C231.803 14.6866 232.332 14.6237 232.831 15.0254C233.011 15.1725 233.268 15.1196 233.49 15.1312C235.836 15.2155 238.182 15.2898 240.535 15.3626C240.986 15.3725 241.444 15.3725 241.84 15.8055C242.041 16.027 242.27 15.9213 242.492 15.9328C243.852 15.9857 245.219 16.0485 246.58 16.1328C247.185 16.1642 247.767 16.2485 248.364 16.5345C248.926 16.8088 249.557 16.756 250.162 16.8188C250.766 16.8816 251.363 16.8717 251.946 17.2303C252.278 17.4419 252.682 17.4518 253.057 17.4733C253.889 17.5361 254.722 17.5576 255.556 17.6105C256.007 17.6419 256.458 17.6535 256.882 17.9791C257.076 18.1262 257.319 18.1692 257.542 18.1906C258.444 18.265 259.367 18.1378 260.213 18.7824C260.818 18.8452 261.421 18.8981 262.025 18.9625C262.622 19.0254 263.233 18.9625 263.795 19.4369C263.976 19.5956 264.232 19.5642 264.455 19.5956C265.503 19.7427 266.585 19.5113 267.571 20.2815C268.176 20.3443 268.779 20.3873 269.383 20.4716C270.279 20.5989 271.195 20.3443 272.069 20.946C272.389 21.1675 272.812 21.0402 273.193 21.0617C275.088 21.146 276.976 21.2419 278.871 21.3146C279.474 21.3361 280.072 21.3576 280.648 21.7162C280.912 21.8848 281.245 21.822 281.544 21.8435C283.584 21.9377 285.632 22.0121 287.672 22.108C288.047 22.1295 288.435 22.0766 288.79 22.2237C289.089 22.3509 289.352 22.5195 289.643 22.2865C290.205 22.708 290.81 22.6451 291.406 22.6666C292.69 22.7195 293.981 22.7724 295.265 22.8468C295.564 22.8683 295.883 22.8683 296.153 23.0468C296.473 23.2584 296.715 23.0567 297.007 22.984C297.298 22.9113 297.632 22.8898 297.895 23.0468C298.401 23.3526 298.915 23.4154 299.449 23.427C306.341 23.6584 313.227 23.8286 320.119 23.6385C320.937 23.617 321.784 23.7443 322.569 23.1956C322.853 23.3013 323.138 23.4071 323.415 23.5013C323.818 23.0584 324.276 23.1741 324.727 23.1741C325.859 23.1526 326.997 23.0898 328.129 23.0584C329.031 23.0369 329.941 23.0799 330.815 22.5939C331.092 22.4352 331.411 22.541 331.696 22.7625C331.973 22.984 332.252 23.0997 332.557 22.8683C332.828 22.6567 333.127 22.5724 333.432 22.5625C334.265 22.541 335.098 22.5096 335.931 22.4468C336.833 22.384 337.75 22.541 338.603 21.898C339.755 22.0352 340.797 21.0749 341.941 21.1278C342.476 21.1493 342.899 20.4204 343.454 20.4948C344.01 20.5691 344.468 20.1047 344.961 19.8402C347.161 18.6898 348.883 17.6022 350.361 16.389C350.694 16.1146 351.007 15.7973 351.312 15.4601C351.562 15.1857 351.743 14.7956 351.749 14.3097C351.756 13.0436 351.735 11.7775 351.764 10.5097C351.784 9.35933 351.792 8.21885 352.104 7.12134C352.249 6.61556 352.264 6.00235 352.284 5.4321C352.319 4.37592 352.652 3.43708 352.854 2.46685C353.014 1.70652 353.485 1.20074 353.93 0.746204C353.992 0.683394 354.062 0.640419 354.139 0.618932C355 0.323067 355.791 0.556123 356.492 1.37926C356.666 1.57925 356.791 1.88503 356.908 2.17098C357.63 3.99741 357.79 4.79905 357.776 6.69821C357.769 7.49985 357.706 8.30315 357.644 9.10479C357.616 9.44198 357.595 9.83371 357.47 10.075C357.013 10.994 356.72 12.0701 356.179 12.8932C355.541 13.875 354.93 14.8981 354.298 15.9014C354.118 16.1857 354.139 16.5245 354.202 16.8617C354.285 17.3047 354.438 17.7278 354.444 18.1708C354.451 18.8782 354.514 19.5328 354.756 20.1543C354.832 20.3443 354.86 20.5757 354.895 20.7972C355.215 22.9608 355.5 24.3542 356.006 25.9906C356.554 27.7525 357.138 29.4831 357.686 31.2467C358.186 32.8401 358.942 34.0963 359.865 35.1409C359.927 35.2037 360.011 35.2252 360.066 35.2996C361.565 37.6219 363.467 39.0879 365.223 40.84C366.23 41.8433 367.333 42.6135 368.409 43.4466C368.604 43.5937 368.854 43.5838 369.082 43.5937C369.304 43.6036 369.539 43.6036 369.728 43.3507C370.123 42.8119 370.519 42.2846 370.907 41.7259C371.462 40.9342 372.135 40.3954 372.76 39.7524C372.879 39.6251 373.045 39.6152 373.183 39.5524C373.683 39.3094 374.176 38.9822 374.682 38.845C375.633 38.5805 376.466 39.0764 377.216 39.964C377.722 40.5557 378.077 41.2416 378.028 42.2863C378 42.8565 378.021 43.4367 377.993 44.0069C377.952 44.8399 377.674 45.5689 377.32 46.1391C376.966 46.7094 376.488 47.1209 376.029 47.5325C375.848 47.7011 375.598 47.754 375.377 47.7639C374.539 47.7705 373.782 47.749 372.491 47.7374ZM347.595 808.736C348.428 808.746 349.26 808.746 350.094 808.767C350.26 808.767 350.399 808.705 350.49 808.483C350.976 807.323 351.51 806.204 351.927 805.001C352.177 804.272 352.433 803.586 352.808 803.027C353.356 802.225 353.787 801.296 354.141 800.283C354.356 799.672 354.627 799.133 354.912 798.594C355.578 797.349 356.279 796.113 356.841 794.763C357.667 792.789 358.791 791.259 359.909 789.718C360.478 788.926 361.145 788.421 361.893 788.135C362.039 788.082 362.199 788.039 362.31 787.913C362.421 787.797 362.546 787.564 362.546 787.386C362.539 786.004 362.532 784.621 362.47 783.249C362.441 782.69 362.192 782.151 362.192 781.602C362.199 779.776 362.005 777.92 362.428 776.135C362.332 775.586 362.359 775.069 362.47 774.498C362.595 773.855 362.566 773.136 362.588 772.441C362.616 771.406 362.609 770.373 362.643 769.327C362.678 768.303 362.615 767.257 362.949 766.287C363.046 766.003 363.019 765.611 363.039 765.274C363.129 763.68 363.011 762.044 363.476 760.535C363.538 760.335 363.517 760.08 363.525 759.849C363.595 757.907 363.49 755.933 363.983 754.075C364.017 753.156 364.094 752.229 364.073 751.31C364.045 750.234 364.44 749.327 364.483 748.302C364.538 746.92 364.579 745.537 364.601 744.165C364.608 743.585 364.615 743.014 364.782 742.476C364.941 741.958 364.587 741.4 364.858 740.851C364.976 740.608 364.989 740.196 364.997 739.859C365.046 736.408 365.101 732.957 365.115 729.496C365.136 722.362 365.144 715.226 365.15 708.092C365.157 699.912 365.254 691.744 365.316 683.565C365.323 682.764 365.4 681.994 365.573 681.212C365.733 680.483 365.691 679.628 365.677 678.827C365.671 678.499 365.456 678.184 365.456 677.866C365.462 677.423 365.63 676.99 365.657 676.536C365.706 675.734 365.698 674.921 365.712 674.119C365.768 671.47 365.823 668.832 365.872 666.182C365.886 665.496 365.878 664.81 366.073 664.156C366.163 663.85 366.184 663.491 366.191 663.152C366.233 661.771 366.282 660.387 366.282 659.015C366.282 654.868 366.253 650.719 366.261 646.572C366.261 645.643 366.255 644.758 366.011 643.87C365.907 643.49 366.005 642.972 366.039 642.52C366.053 642.298 366.199 642.065 366.164 641.887C365.762 639.733 365.984 637.538 365.949 635.364C365.928 633.983 365.921 632.599 365.894 631.227C365.887 630.657 365.935 630.024 365.803 629.518C365.539 628.505 365.582 627.492 365.574 626.457C365.553 622.657 365.539 618.859 365.525 615.059C365.525 614.257 365.47 613.434 365.539 612.642C365.615 611.735 365.102 610.922 365.421 610.014C365.144 609.35 365.234 608.717 365.449 608.062C365.546 607.756 365.505 607.398 365.38 607.08C365.227 606.669 365.185 606.226 365.185 605.75C365.171 602.753 365.157 599.766 365.129 596.768C365.123 596.313 365.101 595.839 364.998 595.418C364.866 594.859 364.818 594.31 364.818 593.728C364.818 592.462 364.803 591.196 364.818 589.928C364.824 589.601 364.901 589.252 364.984 588.947C365.046 588.715 365.025 588.545 364.97 588.302C364.873 587.869 364.789 587.416 364.789 586.971C364.761 584.555 364.761 582.138 364.754 579.72C364.754 578.803 364.803 577.874 364.519 577.008C364.796 575.879 364.254 574.791 364.422 573.662C364.401 567.679 364.387 561.684 364.366 555.699C364.366 555.362 364.387 554.97 364.29 554.696C364.02 553.935 364.069 553.134 364.069 552.332C364.075 549.567 364.103 546.802 364.103 544.036C364.11 537.24 364.103 530.443 364.124 523.646C364.138 518.232 364.194 512.828 364.214 507.415C364.235 502.698 364.221 497.969 364.242 493.252C364.257 490.149 364.298 487.035 364.326 483.933C364.361 479.553 364.382 475.184 364.41 470.804C364.416 470.234 364.375 469.611 364.514 469.095C364.778 468.103 364.785 467.069 364.813 466.045C364.834 465.244 364.793 464.431 364.793 463.629C364.793 462.943 364.821 462.247 364.827 461.561C364.841 460.76 364.841 459.946 364.856 459.145C364.862 458.343 364.876 457.53 364.884 456.728C364.89 456.042 364.863 455.335 365.14 454.733C365.05 453.963 364.898 453.214 364.953 452.411C364.995 451.841 364.953 451.26 365.148 450.733C365.3 450.322 365.294 449.857 365.3 449.393C365.335 447.092 365.356 444.791 365.411 442.49C365.439 441.35 365.349 440.189 365.772 439.135C365.827 438.988 365.744 438.702 365.716 438.48C365.688 438.269 365.571 438.026 365.606 437.857C365.995 436.064 365.786 434.206 365.905 432.39C365.966 431.482 365.933 430.563 366.21 429.687C366.294 429.434 366.189 429.023 366.126 428.705C366.036 428.262 365.939 427.839 366.112 427.386C366.264 426.975 366.299 426.532 366.307 426.056C366.348 423.406 366.397 420.758 366.452 418.109C366.466 417.538 366.481 416.937 366.598 416.419C366.883 415.195 366.848 413.929 366.883 412.684C366.959 409.697 366.938 406.701 366.98 403.714C367 402.12 366.834 400.484 367.306 398.954C367.368 398.763 367.34 398.499 367.347 398.268C367.368 395.735 367.382 393.213 367.396 390.679C367.431 384.812 367.48 378.932 367.507 373.065C367.521 369.729 367.493 366.395 367.493 363.048C367.493 362.468 367.423 361.919 367.277 361.37C367.132 360.822 367.146 360.242 367.306 359.693C367.465 359.154 367.625 358.532 367.451 358.037C367.222 357.372 367.458 356.696 367.312 356.095C367.125 355.303 367.194 354.501 367.173 353.699C367.152 353.014 367.18 352.318 367.173 351.632C367.159 346.799 367.138 341.964 367.118 337.12C367.118 336.665 367.173 336.149 367.056 335.758C366.764 334.754 366.84 333.721 366.834 332.696C366.799 330.047 366.772 327.399 366.75 324.749C366.736 323.262 366.882 321.763 366.486 320.316C366.402 320.021 366.451 319.63 366.445 319.293C366.424 317.447 366.403 315.611 366.396 313.763C366.382 309.394 366.382 305.014 366.375 300.644C366.375 300.179 366.445 299.674 366.334 299.272C365.938 297.826 366.098 296.317 366.084 294.839C366.063 292.189 366.09 289.541 366.098 286.892C366.133 278.48 366.168 270.079 366.202 261.667C366.202 260.972 366.237 260.296 366.452 259.662C366.605 259.208 366.487 258.765 366.348 258.353C366.196 257.92 366.23 257.446 366.278 257.003C366.334 256.56 366.48 256.137 366.528 255.694C366.577 255.239 366.508 254.765 366.57 254.322C366.681 253.52 366.105 252.803 366.48 251.99C366.508 251.937 366.445 251.778 366.418 251.672C366.244 251.008 366.244 250.332 366.403 249.656C366.48 249.339 366.543 249.001 366.577 248.664C366.626 248.2 366.487 247.767 366.411 247.324C366.321 246.785 366.688 246.268 366.515 245.677C366.425 245.372 366.376 245.086 366.446 244.707C366.702 243.251 366.655 241.742 366.55 240.264C366.515 239.821 366.341 239.42 366.522 238.967C366.418 238.418 366.494 237.901 366.563 237.33C366.688 236.327 366.702 235.304 366.467 234.269C366.237 233.288 366.265 232.221 366.452 231.22C366.543 230.745 366.571 230.387 366.424 229.942C366.327 229.658 366.327 229.278 366.327 228.939C366.307 225.825 366.327 222.722 366.278 219.61C366.258 218.132 366.431 216.613 366.001 215.177C365.911 214.881 365.96 214.491 365.96 214.154C365.953 212.655 365.939 211.157 365.939 209.658C365.939 207.812 365.939 205.975 365.939 204.128C365.946 202.164 365.946 200.212 365.96 198.248C365.974 196.402 365.966 194.566 366.036 192.718C366.112 190.787 365.786 188.812 366.3 186.924C366.009 186.038 366.015 185.151 366.321 184.275C366.05 183.652 366.321 182.977 366.245 182.311C366.175 181.688 366.405 180.992 366.411 180.328C366.467 176.181 366.501 172.032 366.543 167.885C366.557 166.154 366.571 164.434 366.577 162.703C366.584 160.973 366.536 159.242 366.612 157.521C366.682 155.822 366.362 154.06 366.911 152.424C366.932 152.35 366.876 152.202 366.842 152.107C366.661 151.558 366.612 151.031 366.862 150.492C367.008 150.186 366.973 149.859 366.883 149.521C366.55 148.308 366.522 147.074 366.842 145.849C366.903 145.606 366.952 145.459 366.883 145.226C366.606 144.35 366.64 143.442 366.834 142.545C366.903 142.208 366.945 141.922 366.834 141.584C366.653 141.046 366.702 140.465 366.702 139.885C366.702 137.236 366.702 134.588 366.696 131.948C366.689 128.834 366.675 125.732 366.675 122.619C366.675 121.69 366.634 120.804 366.439 119.907C366.273 119.147 366.28 118.314 366.509 117.543C366.578 117.3 366.613 117.122 366.53 116.91C366.321 116.393 366.349 115.813 366.343 115.233C366.314 113.502 366.294 111.781 366.259 110.051C366.252 109.596 366.252 109.112 366.14 108.7C365.966 108.036 365.932 107.37 365.925 106.674C365.919 105.524 365.911 104.373 365.89 103.223C365.884 102.768 365.876 102.272 365.759 101.872C365.53 101.102 365.509 100.31 365.502 99.5088C365.474 96.9766 365.461 94.4427 365.433 91.9105C365.433 91.5733 365.447 91.1816 365.349 90.8973C365.058 90.0312 365.085 89.1238 365.072 88.1949C365.058 87.2759 365.113 86.3056 364.94 85.4511C364.76 84.5437 364.676 83.6676 364.676 82.7486C364.676 79.752 364.676 76.7652 364.662 73.7669C364.662 72.7322 364.676 71.6876 364.607 70.6645C364.551 69.7785 364.107 68.9438 364.523 68.0149C364.551 67.962 364.468 67.8033 364.453 67.6976C364.398 67.2546 364.308 66.8 364.301 66.3472C364.273 64.6265 364.266 62.9174 364.634 61.2398C364.773 60.6067 364.724 59.8778 364.717 59.1819C364.711 58.3373 365.183 57.7043 365.183 56.8911C365.176 55.7192 365.46 54.6646 365.62 53.5556C365.786 52.4266 365.987 51.3391 366.362 50.3258C366.695 49.4283 366.994 48.4994 367.306 47.5821C367.375 47.3821 367.437 47.1705 367.507 46.9705C367.618 46.6217 367.458 45.8829 367.215 45.7986C366.549 45.5457 365.952 45.0697 365.348 44.6168C363.71 43.3821 361.905 41.6301 360.191 39.6665C358.803 38.5904 357.894 36.7012 356.845 35.0648C356.234 33.2186 355.138 31.8351 354.68 29.8517C353.854 28.2996 353.501 26.4104 353.077 24.5741C352.98 24.141 352.931 23.6881 352.778 23.2865C352.333 22.0518 352.167 20.7113 352.105 19.3179C352.084 18.822 351.939 18.6948 351.695 18.8435C350.64 19.4551 349.675 20.3625 348.599 20.9113C348.238 21.1014 347.871 21.1857 347.517 21.3658C347.17 21.5344 346.885 21.989 346.551 22.2518C346.357 22.4104 346.127 22.4947 345.913 22.5476C345.538 22.622 345.177 22.6848 344.816 22.9377C344.337 23.265 343.831 23.4765 343.332 23.7509C342.762 24.0567 342.124 23.8253 341.569 24.3212C341.097 24.7426 340.535 24.5426 340.014 24.6583C339.938 24.6683 339.848 24.6484 339.792 24.7013C339.029 25.3873 338.175 25.1658 337.356 25.303C336.76 25.3972 336.142 25.2402 335.579 25.7245C334.913 25.3443 334.275 26.1261 333.601 25.8402C331.935 25.8716 330.269 25.903 328.604 25.9344C328.374 25.9344 328.118 25.8815 327.931 26.0187C327.285 26.5046 326.605 26.4203 325.925 26.4401C323.955 26.503 321.99 26.5344 320.019 26.5988C319.72 26.6087 319.394 26.5889 319.13 26.7575C318.548 27.1162 317.943 27.0947 317.34 27.1063C313.176 27.1492 309.004 27.1691 304.84 26.9592C304.243 26.9277 303.591 27.212 303.056 26.7063C302.41 26.1145 301.897 27.0236 301.313 26.8864C301.092 26.8335 300.827 26.9492 300.64 26.812C299.925 26.2848 299.169 26.3691 298.412 26.3377C296.747 26.2749 295.08 26.222 293.415 26.1575C293.04 26.136 292.63 26.179 292.298 25.9674C291.785 25.6302 291.27 25.6187 290.743 25.5988C289.001 25.5245 287.259 25.4616 285.523 25.3873C284.996 25.3658 284.461 25.3344 283.934 25.303C282.706 24.5212 281.4 24.817 280.131 24.7327C278.771 24.6484 277.403 24.6385 276.042 24.5955C275.591 24.5741 275.147 24.5526 274.71 24.2782C274.439 24.1096 274.12 24.098 273.822 24.0782C272.76 23.9939 271.705 23.941 270.643 23.8782C270.338 23.8567 270.012 23.9212 269.741 23.7625C268.728 23.1394 267.666 23.2451 266.61 23.1708C266.389 23.1493 266.125 23.1278 265.965 22.9278C265.597 22.4848 265.236 23.0551 264.909 22.8534C264.479 22.579 264.028 22.5361 263.577 22.4947C262.972 22.4418 262.362 22.4319 261.758 22.379C261.459 22.3476 261.141 22.3361 260.876 22.1575C260.376 21.8088 259.856 21.7361 259.329 21.7245C258.502 21.703 257.67 21.8088 256.878 21.2386C256.622 21.0584 256.282 21.1642 255.983 21.1113C255.011 20.9427 254.019 21.1328 253.082 20.4782C252.762 20.2567 252.339 20.384 251.958 20.351C251.201 20.2881 250.444 20.2237 249.694 20.1609C248.931 19.4534 248.07 19.7592 247.251 19.6551C246.349 19.5394 245.432 19.5493 244.53 19.4749C244.231 19.4534 243.913 19.432 243.648 19.2435C243.218 18.9377 242.795 18.8948 242.33 18.8849C241.116 18.8749 239.908 18.7791 238.693 18.7047C238.394 18.6832 238.055 18.7262 237.811 18.5245C237.305 18.1229 236.791 18.1973 236.263 18.1973C231.037 18.103 225.817 17.9857 220.591 17.913C213.699 17.8187 206.806 17.7014 199.915 17.8386C199.158 17.8485 198.402 17.8386 197.645 17.8386C196.903 18.313 196.181 17.7543 195.445 17.7642C195.293 17.7642 195.14 17.7427 194.994 17.7328C192.419 17.67 189.844 17.627 187.269 17.5427C186.297 17.5113 185.304 17.6485 184.367 17.0254C184.111 16.8568 183.771 16.9411 183.472 16.9312C182.715 16.9212 181.958 16.9312 181.202 16.9097C179.459 16.8783 177.725 16.8353 175.982 16.8155C174.24 16.7841 172.505 16.7626 170.762 16.7411C170.457 16.7411 170.145 16.751 169.887 16.4882C169.485 16.0766 169.2 16.7196 168.832 16.7097C167.694 16.6667 166.562 16.6882 165.424 16.6667C165.278 16.6667 165.118 16.6039 164.993 16.4865C164.647 16.1593 164.327 16.0535 163.938 16.3593C163.446 16.7493 162.883 16.8237 162.404 16.475C161.662 15.9361 160.975 16.0204 160.218 16.3477C159.49 16.665 158.74 16.675 157.997 16.2733C157.269 15.8832 156.519 15.9361 155.769 16.2518C155.56 16.346 155.297 16.4733 155.117 16.3576C154.319 15.8403 153.479 15.9774 152.653 15.956C151.14 15.9246 149.626 15.9246 148.113 15.9031C147.732 15.9031 147.377 15.9973 147.01 16.1675C146.76 16.2832 146.448 16.0403 146.163 15.9675C145.532 16.4849 144.845 16.4006 144.164 16.389C135.377 16.3576 126.597 16.3262 117.811 16.2733C114.784 16.2518 111.752 16.1361 108.725 16.1791C106.38 16.2105 104.034 16.2105 101.687 16.1262C99.7924 16.0518 97.9043 16.1477 96.0096 16.1163C95.7107 16.1163 95.3781 16.0733 95.1139 16.232C94.4541 16.6336 93.7747 16.5807 93.1008 16.6122C92.1149 16.6551 91.13 16.6551 90.1441 16.675C89.8452 16.6849 89.4843 16.5692 89.2484 16.7807C88.5332 17.4039 87.7701 17.1923 87.0277 17.2766C85.9863 17.4039 84.9178 17.1394 83.9047 17.8254C83.6482 18.0055 83.3079 17.8997 83.0025 17.9097C81.7948 17.9311 80.5806 17.9626 79.3729 17.9626C79.061 17.9626 78.7762 18.0369 78.5055 18.2683C78.2348 18.4997 77.9294 18.5328 77.6239 18.5427C77.0196 18.5526 76.4098 18.5642 75.8054 18.5741C75.2782 18.584 74.7434 18.584 74.2162 18.5956C73.7651 18.6055 73.3074 18.627 72.8552 18.627C72.328 18.6369 71.7791 18.5212 71.266 18.67C70.7388 18.8287 70.2595 18.8287 69.7464 18.627C69.5518 18.5526 69.2888 18.6584 69.0942 18.7956C68.7398 19.0485 68.3865 19.1444 67.9974 19.1444C66.7832 19.1444 65.5755 19.1658 64.3602 19.1972C63.9852 19.2072 63.5689 19.1344 63.2428 19.3444C62.583 19.7873 61.9166 19.703 61.2373 19.7245C60.1753 19.746 59.1132 19.7774 58.0588 19.8088C57.5316 19.8187 57.0251 19.9146 56.5044 20.1774C55.9424 20.4617 55.2761 20.2931 54.7272 20.6105C53.9912 21.0319 53.2553 21.065 52.4988 21.1063C52.1238 21.1278 51.7281 21.1592 51.3879 21.3708C50.8813 21.6881 50.3606 21.708 49.8334 21.7923C49.4584 21.8452 49.028 21.7609 48.7225 22.0038C48.091 22.5096 47.3627 22.2253 46.7583 22.7427C46.0572 23.3443 45.2658 22.9427 44.5299 23.1972C44.3843 23.2501 44.2103 23.2187 44.0995 23.3344C43.6277 23.7989 43.0929 23.7774 42.5657 23.8303C42.2668 23.8617 41.9613 23.936 41.6841 24.0831C41.3928 24.2303 41.1145 24.379 40.8026 24.379C39.3655 24.3889 37.922 24.422 36.4849 24.422C36.0273 24.422 35.5969 24.2633 35.1664 24.0005C34.5414 23.6203 33.8968 23.2931 33.237 23.0931C32.7163 22.9344 32.2097 22.8088 31.7238 22.4501C31.5086 22.2914 31.0858 22.6303 30.9608 22.9889C30.8912 23.1889 30.7868 23.379 30.7521 23.5906C30.4118 25.4699 30.0238 27.3162 29.3498 29.0054C29.1976 29.3955 29.0726 29.8285 29.0031 30.2616C28.7878 31.6236 28.3085 32.7938 27.8791 33.9872C27.0812 36.1938 26.2138 38.3359 25.3105 40.4565C25.1507 40.8466 25.0116 41.2582 24.8387 41.6284C24.2419 42.959 23.6517 44.2879 22.8886 45.4168C21.6462 47.2631 20.432 49.1639 19.1819 51.0101C18.5362 51.9705 17.9047 52.9622 17.0655 53.5754C16.7329 53.8184 16.4753 54.2828 16.1839 54.6514C15.6774 55.3159 15.6633 55.5175 15.9068 56.382C16.1079 57.1208 16.3926 57.7853 16.5177 58.5985C16.6916 59.7059 16.8166 60.8563 17.0731 61.9125C17.3786 63.1571 17.2818 64.4133 17.3644 65.6596C17.3851 65.9968 17.3786 66.3769 17.4753 66.6728C17.7253 67.4215 17.7395 68.2133 17.746 69.0265C17.7601 70.4083 17.7742 71.7917 17.8079 73.1735C17.8221 73.6281 17.8221 74.1124 17.9329 74.514C18.1199 75.1686 18.1547 75.833 18.1623 76.5305C18.1764 78.7156 18.2036 80.8991 18.2384 83.0957C18.2449 83.666 18.2319 84.2776 18.3634 84.7949C18.5645 85.5866 18.5438 86.3784 18.5504 87.1701C18.5786 89.7023 18.5993 92.2362 18.6265 94.7684C18.633 95.57 18.633 96.3832 18.6406 97.1849C18.6471 98.1039 18.6612 99.0212 18.6688 99.9402C19.1058 100.71 18.5786 101.459 18.6275 102.231C18.6623 102.801 18.6971 103.35 18.8015 103.909C18.8982 104.415 18.6699 104.965 18.8634 105.534C19.0026 105.955 18.7732 106.41 18.7036 106.843C18.5851 107.624 18.4949 108.414 18.7319 109.206C18.7873 109.396 18.8286 109.661 18.7873 109.839C18.5232 110.843 18.5928 111.876 18.5786 112.91C18.5504 115.095 18.5167 117.29 18.4678 119.476C18.4188 121.639 18.5993 123.834 18.1069 125.966C17.9612 126.59 18.0579 127.338 18.0373 128.024C17.9471 131.117 18.1623 134.229 17.6003 137.269C17.559 137.49 17.5862 137.723 17.5721 137.955C17.4536 140.012 17.6623 142.102 17.2177 144.118C17.1829 144.287 17.322 144.54 17.3362 144.761C17.3644 145.216 17.4405 145.722 17.3427 146.112C17.1481 146.882 17.0514 147.652 17.0372 148.465C17.0231 149.5 16.9959 150.535 16.9753 151.579C16.9546 152.498 16.8992 153.426 16.9405 154.345C16.9959 155.421 16.6698 156.361 16.5796 157.374C16.5307 157.945 16.559 158.525 16.5448 159.105C16.51 161.174 16.4687 163.252 16.4263 165.321C16.4198 165.786 16.4677 166.282 16.3709 166.693C15.9818 168.245 16.0861 169.87 16.0242 171.463C15.9959 172.149 16.0176 172.857 15.8089 173.49C15.7328 173.721 15.7046 173.911 15.76 174.134C16.0372 175.148 15.9752 176.139 15.7317 177.153C15.6274 177.574 15.5926 178.039 15.5796 178.493C15.5176 181.258 15.4752 184.024 15.4198 186.777C15.3785 188.604 15.5861 190.46 15.0937 192.233C15.0382 192.433 15.073 192.688 15.0654 192.919C15.0165 195.685 14.9687 198.438 14.9132 201.204C14.885 202.575 14.9687 203.959 14.6013 205.278C14.5045 205.615 14.685 205.942 14.7676 206.248C14.8578 206.585 14.8437 206.903 14.761 207.251C14.685 207.569 14.5393 207.969 14.6089 208.222C14.7893 208.918 14.6708 209.541 14.5676 210.195C14.5328 210.395 14.5817 210.681 14.6643 210.85C14.8861 211.314 14.5121 211.694 14.6295 212.137C14.6784 212.337 14.761 212.633 14.7056 212.76C14.4208 213.446 14.5317 214.058 14.761 214.703C14.8654 215.008 14.8165 215.379 14.685 215.673C14.5882 215.894 14.5599 216.084 14.6295 216.306C14.8306 216.917 14.5045 217.646 14.8034 218.236C14.8176 219.038 14.8241 219.851 14.8524 220.653C14.873 221.245 14.7828 221.782 14.5882 222.299C14.5263 222.479 14.498 222.795 14.5599 222.954C14.9491 223.904 14.8654 224.949 14.8654 225.983C14.8719 227.947 14.8654 229.899 14.8937 231.863C14.9143 233.119 14.7687 234.385 15.1437 235.61C15.2622 235.99 15.1719 236.517 15.1926 236.972C15.2274 237.891 15.1926 238.798 14.9708 239.663C15.3872 241.097 15.1372 242.618 15.2208 244.096C15.2415 244.444 15.2274 244.782 15.235 245.13C15.2415 245.605 15.0132 246.016 14.9991 246.428C14.9784 246.955 15.2839 247.441 15.2491 248.043C15.2285 248.38 15.2904 248.739 15.2632 249.077C15.1937 249.848 15.7078 250.596 15.3122 251.378C15.6796 252.201 15.597 253.13 15.6176 254.048C15.6459 255.314 15.6937 256.58 15.7285 257.848C16.1513 259.504 16.0481 261.236 16.0828 262.955C16.1111 264.211 15.9513 265.477 16.3742 266.681C16.5057 267.049 16.4437 267.578 16.4503 268.043C16.4785 270.11 16.4916 272.19 16.5198 274.259C16.5198 274.48 16.4992 274.755 16.5753 274.923C16.9775 275.874 16.8525 276.928 16.8666 277.942C16.9014 281.044 16.9079 284.158 16.9285 287.27C16.9351 287.956 16.8666 288.717 17.0253 289.318C17.3025 290.332 17.247 291.355 17.2753 292.379C17.3036 293.53 17.2818 294.68 17.3036 295.831C17.3449 298.11 17.2068 300.411 17.546 302.67C17.2818 303.472 17.671 304.201 17.6645 304.993C17.6362 309.71 17.671 314.439 17.6851 319.156C17.6916 320.306 17.7058 321.457 17.7134 322.607C17.7199 323.863 17.6231 325.13 17.9699 326.343C18.0536 326.639 18.0047 327.029 17.9764 327.366C17.9351 327.82 17.8025 328.263 17.8025 328.706C17.8025 329.149 17.9764 329.582 17.9764 330.025C17.9906 331.977 17.9764 333.941 17.9482 335.905C17.9416 336.348 17.809 336.781 17.7329 337.214C18.0656 338.196 17.9416 339.25 17.9482 340.275C17.9623 348.571 17.9623 356.855 17.9623 365.151C17.9623 366.756 17.8862 368.359 18.233 369.921C18.3297 370.354 17.9764 370.765 18.108 371.218C18.3373 371.998 18.3851 372.759 18.0873 373.529C18.0525 373.613 18.0112 373.76 18.0319 373.835C18.4764 375.26 18.3025 376.779 18.296 378.256C18.2895 381.592 18.3449 384.926 18.3167 388.261C18.3101 389.169 18.3101 390.088 18.5319 390.983C18.7189 391.744 18.6982 392.567 18.5036 393.347C18.3927 393.768 18.1982 394.223 18.3851 394.645C18.6493 395.236 18.2808 395.732 18.3438 396.269C18.3851 396.606 18.5656 396.945 18.5384 397.24C18.4895 397.682 18.3721 398.063 18.5243 398.537C18.6906 399.076 18.6558 399.656 18.5178 400.215C18.4688 400.415 18.3721 400.669 18.4134 400.838C18.7884 402.527 18.5384 404.258 18.6004 405.967C18.621 406.568 18.5101 407.096 18.3438 407.623C18.8645 409.512 18.5101 411.486 18.5732 413.416C18.608 414.567 18.5525 415.717 18.5525 416.867C18.546 420.55 18.5938 424.234 18.5243 427.917C18.4547 431.58 18.7189 435.262 18.2601 438.904C18.3851 439.325 18.5025 439.78 18.3504 440.223C18.1982 440.677 18.3156 441.089 18.3221 441.52C18.3221 441.942 18.2319 442.353 18.3286 442.818C18.4188 443.229 18.4536 443.778 18.3427 444.148C18.1482 444.803 18.0862 445.436 18.0786 446.132C18.0503 450.163 18.0025 454.184 17.9471 458.216C17.9264 459.578 18.0862 460.971 17.6481 462.29C17.5644 462.533 17.6688 462.955 17.7449 463.26C17.9395 464.052 17.9808 464.875 17.7862 465.624C17.6058 466.31 17.4807 466.912 17.7308 467.576C17.6688 468.24 17.5568 468.907 17.5503 469.571C17.4884 475.439 17.446 481.318 17.3981 487.186C17.3633 491.45 17.3144 495.703 17.2666 499.966C17.2601 500.536 17.2873 501.159 17.1557 501.665C16.9198 502.562 16.9264 503.458 16.9133 504.377C16.8927 506.445 16.8644 508.524 16.8231 510.594C16.809 511.28 16.8231 511.997 16.6916 512.642C16.5731 513.233 16.6014 513.718 16.7122 514.278C16.7959 514.699 16.7818 515.185 16.6079 515.618C16.4481 516.02 16.4068 516.463 16.3992 516.937C16.3579 521.19 16.3089 525.443 16.247 529.698C16.2405 530.268 16.2753 530.891 16.1361 531.397C15.9002 532.283 15.8937 533.18 15.8861 534.099C15.8448 537.55 15.7959 541.002 15.7404 544.463C15.7263 545.149 15.6785 545.835 15.6437 546.521C15.3111 547.112 15.6296 547.808 15.498 548.463C15.3665 549.107 15.3796 549.825 15.3524 550.499C15.3241 551.185 15.3317 551.881 15.3176 552.568C15.2828 554.521 15.248 556.484 15.1991 558.436C15.185 558.891 15.1926 559.387 15.0741 559.787C14.8795 560.451 14.8589 561.117 14.8524 561.803C14.8241 563.649 14.7828 565.486 14.7415 567.322C14.7273 567.777 14.7415 568.272 14.623 568.684C14.3458 569.676 14.3589 570.701 14.3458 571.734C14.3252 573.464 14.2762 575.185 14.2273 576.915C14.2132 577.37 14.2556 577.886 14.1371 578.277C13.811 579.375 13.8806 580.535 13.8458 581.676C13.8045 583.057 13.7838 584.441 13.749 585.823C13.7349 586.287 13.7773 586.793 13.6588 587.185C13.3534 588.166 13.4023 589.211 13.3534 590.234C13.3121 591.153 13.3327 592.071 13.3186 592.999C13.3045 594.034 13.2838 595.067 13.2697 596.113C13.2555 597.032 13.2284 597.96 13.2208 598.879C13.2142 599.913 13.3458 600.989 13.1099 601.96C12.874 602.91 13.3947 603.722 13.2001 604.641C13.1099 605.062 13.1447 605.548 13.1164 606.003C12.7142 606.679 13.3251 607.586 12.887 608.241C12.8664 609.158 12.8381 610.077 12.8251 610.996C12.7903 613.297 12.7838 615.598 12.7349 617.908C12.7001 619.617 12.8533 621.369 12.3674 623.006C12.2011 625.761 12.1664 628.525 12.3185 631.28C12.3327 631.502 12.3805 631.744 12.4577 631.935C12.6099 632.315 12.437 632.589 12.374 632.905C12.312 633.242 12.2837 633.569 12.4088 633.897C12.6099 634.402 12.6588 634.973 12.6588 635.553C12.6653 637.283 12.6794 639.004 12.6653 640.734C12.637 643.849 12.5816 646.951 12.5685 650.065C12.562 650.888 12.5544 651.658 12.2283 652.376C12.1587 652.523 12.1664 652.862 12.2283 653.03C12.5827 653.896 12.5751 654.729 12.2979 655.648C12.1794 656.05 12.1587 656.546 12.1587 656.989C12.1522 660.091 12.1587 663.205 12.1587 666.308C12.1587 666.423 12.1381 666.561 12.1729 666.645C12.6175 667.942 12.4229 669.347 12.4642 670.719C12.4925 671.533 12.4783 672.334 12.2077 673.073C12.4718 673.822 12.3946 674.645 12.4229 675.437C12.4435 676.028 12.3327 676.556 12.1587 677.083C11.9718 677.632 11.999 678.212 12.1729 678.739C12.3533 679.288 12.4153 679.805 12.2142 680.364C12.0685 680.775 12.0403 681.23 12.0403 681.694C12.0468 683.425 12.0468 685.146 12.0337 686.876C11.999 691.709 11.937 696.554 11.9153 701.388C11.887 707.836 11.8946 714.286 11.887 720.734C11.887 721.198 11.9153 721.663 11.887 722.115C11.8522 722.696 11.8457 723.276 12.0468 723.793C12.2337 724.267 11.887 724.679 12.0055 725.071C12.1794 725.641 12.2207 726.158 11.9913 726.696C11.8522 727.013 11.8598 727.372 11.9566 727.677C12.1163 728.216 12.2066 728.743 12.2066 729.334C12.2066 730.6 12.2685 731.866 12.2272 733.134C12.1859 734.294 12.3033 735.424 12.3457 736.575C12.7131 737.651 12.6229 738.823 12.637 739.963C12.6653 743.646 12.6718 747.33 12.6925 751.013C12.6925 751.583 12.6164 752.173 12.8033 752.712C13.0186 753.356 13.0327 754.042 13.0457 754.728C13.074 756.11 13.0947 757.484 13.1218 758.865C13.136 759.32 13.1012 759.816 13.2055 760.216C13.4621 761.208 13.4697 762.242 13.5045 763.277C13.5327 764.079 13.5947 764.86 13.7545 765.641C13.9067 766.389 13.8795 767.224 13.949 768.026C13.9697 768.247 14.0534 768.459 14.0947 768.67C14.1643 768.998 14.2817 769.325 14.2893 769.652C14.3034 771.151 14.4762 772.586 14.7469 774.032C14.9339 775.003 14.8089 776.102 15.2045 777.019C15.1143 778.559 15.8089 779.869 15.7665 781.388C16.1829 782.295 15.947 783.445 16.2383 784.364C16.5155 785.24 16.5785 786.116 16.585 787.034C16.5916 787.488 16.5437 788.016 16.6687 788.396C17.0231 789.472 16.9601 790.644 17.0644 791.773C17.0927 792.11 17.0786 792.49 17.1753 792.786C17.4112 793.556 17.3764 794.358 17.397 795.161C17.4112 795.616 17.4177 796.08 17.4731 796.523C17.5014 796.723 17.6188 796.987 17.7297 797.04C18.2297 797.283 18.7221 797.589 19.2145 797.832C20.0961 798.244 20.9081 798.792 21.6233 799.678C21.8527 799.963 22.1234 800.196 22.4006 800.386C23.0321 800.819 23.5463 801.505 24.0659 802.169C24.3572 802.538 24.5931 803.035 24.9192 803.298C25.6061 803.847 26.1203 804.691 26.6823 805.452C27.1888 806.138 27.6193 807.004 28.1748 807.562C28.8346 808.239 29.14 809.315 29.6737 810.116C30.2009 810.918 30.5694 811.962 31.0553 812.838C31.8467 814.263 32.3467 815.919 32.7837 817.64C33.0609 818.738 33.2141 818.928 33.8946 818.928C35.0327 818.928 36.1643 818.875 37.3024 818.918C38.1209 818.949 38.9677 818.675 39.7666 819.245C39.871 819.319 40.0438 819.192 40.1764 819.139C40.7732 818.928 41.3635 818.896 41.9537 819.233C42.0233 819.276 42.1059 819.381 42.1548 819.349C43.0983 818.673 44.0984 819.043 45.0702 818.99C46.0561 818.948 47.0409 819 48.0268 819.053C49.0747 819.106 50.1432 818.769 51.1639 819.433C51.2194 819.465 51.3096 819.433 51.3726 819.391C51.8651 818.969 52.4064 819.063 52.9271 819.116C53.8923 819.222 54.8913 818.885 55.8283 819.496C56.1055 819.338 56.4044 819.075 56.6957 819.285C57.1262 819.59 57.5708 819.643 58.0219 819.653C58.9306 819.685 59.8405 819.675 60.7492 819.749C61.6449 819.824 62.5678 819.518 63.4287 820.171C63.5254 820.245 63.6993 820.075 63.8385 820.043C64.1374 819.981 64.4352 819.863 64.7342 819.875C65.706 819.916 66.6984 819.728 67.6419 820.276C67.9267 820.118 68.2115 819.896 68.5094 820.086C68.8637 820.318 69.217 820.423 69.6062 820.435C71.0432 820.466 72.4791 820.51 73.9162 820.594C74.6662 820.635 75.4358 820.447 76.151 821.005C76.2 821.047 76.2967 821.027 76.3521 820.974C76.9489 820.478 77.5185 820.815 78.0946 821.058C78.5599 820.615 78.9414 821.323 79.3925 821.27C79.8436 821.217 80.3013 821.291 80.7524 821.313C82.0361 821.366 83.3275 821.419 84.6113 821.503C84.9102 821.524 85.2221 821.577 85.4928 821.734C85.7352 821.881 85.9233 821.777 86.1309 821.691C86.27 821.628 86.457 821.533 86.5679 821.617C87.2059 822.113 87.894 822.038 88.5734 822.05C91.1485 822.124 93.7237 822.166 96.2988 822.25C97.1945 822.281 98.1108 822.071 98.9707 822.671C99.5185 822.101 100.144 822.303 100.74 822.291C102.864 822.248 104.981 822.27 107.105 822.248C107.709 822.238 108.341 822.333 108.903 822.08C109.507 821.805 110.09 821.784 110.693 821.774C113.42 821.733 116.149 821.711 118.869 821.668C119.626 821.658 120.383 821.605 121.139 821.574C122.083 820.929 123.075 821.205 124.054 821.225C124.346 821.235 124.631 821.415 124.915 821.509C125.477 821.014 126.102 821.214 126.699 821.192C127.532 821.161 128.364 821.171 129.198 821.214C130.024 821.257 130.871 820.992 131.655 821.604C132.141 821.171 132.676 821.245 133.196 821.245C136.68 821.235 140.165 821.245 143.642 821.255C146.745 821.265 149.855 821.298 152.957 821.286C153.623 821.286 154.318 821.476 154.95 820.896C155.046 820.802 155.255 820.886 155.38 820.981C155.734 821.255 156.081 821.382 156.449 821.065C156.795 820.781 157.177 820.812 157.559 820.8C159.607 820.779 161.648 820.769 163.695 820.738C164.07 820.728 164.5 820.822 164.812 820.579C165.249 820.252 165.673 820.579 166.11 820.399C166.61 820.187 167.151 820.209 167.678 820.167C168.129 820.136 168.587 820.146 169.038 820.146C169.565 820.146 170.1 820.177 170.627 820.146C171.002 820.124 171.391 820.103 171.738 819.914C172.175 819.671 172.606 819.577 173.065 819.566C174.578 819.544 176.091 819.491 177.61 819.438C177.909 819.428 178.242 819.481 178.506 819.311C179.166 818.878 179.839 818.974 180.519 818.952C181.505 818.921 182.49 818.943 183.469 818.858C184.517 818.774 185.586 819.08 186.621 818.531C186.732 818.468 186.898 818.647 187.037 818.7C187.183 818.752 187.363 818.868 187.474 818.784C188.189 818.235 188.946 818.341 189.702 818.351C193.409 818.394 197.115 818.447 200.821 818.498C201.12 818.498 201.453 818.455 201.717 818.625C202.445 819.1 203.195 819.015 203.952 819.047C205.617 819.11 207.284 819.162 208.949 819.215C209.407 819.225 209.851 819.247 210.267 819.605C210.566 819.858 210.844 819.627 211.128 819.458C211.26 819.374 211.454 819.29 211.559 819.374C212.266 819.923 213.037 819.786 213.787 819.828C215.3 819.903 216.813 819.944 218.327 820.009C218.632 820.019 218.937 820.009 219.235 820.093C219.666 820.209 220.047 820.695 220.54 820.346C220.984 820.029 221.393 820.577 221.852 820.567C223.441 820.536 225.03 820.61 226.627 820.62C226.849 820.62 227.099 820.599 227.279 820.44C227.841 819.976 228.459 820.113 229.056 819.986C229.653 819.858 230.18 819.309 230.812 819.374C231.103 819.405 231.437 819.364 231.7 819.184C232.2 818.847 232.713 818.741 233.241 818.729C233.846 818.708 234.463 818.761 235.053 818.592C235.636 818.433 236.157 817.863 236.788 817.981C237.787 817.305 238.843 817.357 239.905 817.379C240.356 817.389 240.842 817.41 241.252 817.167C241.842 816.819 242.431 816.819 243.035 816.809C244.243 816.777 245.457 816.756 246.665 816.714C247.338 816.693 248.032 816.852 248.657 816.271C248.713 816.219 248.831 816.209 248.879 816.262C249.4 816.82 249.892 816.177 250.399 816.199C250.774 816.209 251.162 816.136 251.502 816.463C251.654 816.61 251.766 816.632 251.918 816.485C252.183 816.242 252.488 816.189 252.793 816.179C253.932 816.169 255.07 816.222 256.201 816.116C257.167 816.02 258.151 816.285 259.109 815.705C259.588 815.42 260.157 815.557 260.65 815.948C260.949 816.19 261.241 816.085 261.518 815.885C261.809 815.673 262.087 815.663 262.371 815.916C262.503 816.022 262.656 816.128 262.794 816.138C264.536 816.222 266.278 816.285 268.014 816.349C268.992 816.381 269.985 816.138 270.915 816.855C271.102 816.992 271.36 816.918 271.588 816.929C273.101 817.014 274.614 817.088 276.127 817.161C276.433 817.171 276.765 817.065 277.029 817.224C277.973 817.825 278.959 817.719 279.937 817.751C282.207 817.835 284.477 817.867 286.753 817.878C289.175 817.9 291.598 817.878 294.019 817.857C294.471 817.857 294.963 817.941 295.359 817.71C295.949 817.361 296.538 817.361 297.136 817.351C297.816 817.341 298.496 817.319 299.184 817.288C300.385 817.235 301.599 817.488 302.772 816.782C303.036 816.624 303.369 816.719 303.674 816.708C304.736 816.665 305.791 816.655 306.853 816.602C307.449 816.571 308.054 816.581 308.63 816.169C308.963 815.926 309.372 816.075 309.727 816.359C309.789 816.412 309.887 816.496 309.928 816.453C310.699 815.714 311.552 816.116 312.371 815.979C312.517 815.957 312.67 815.883 312.802 815.767C313.149 815.483 313.517 815.419 313.899 815.409C314.885 815.409 315.891 815.515 316.828 815.072C317.8 814.607 318.778 814.787 319.75 814.607C319.826 814.597 319.902 814.554 319.965 814.501C320.451 814.09 320.978 814.153 321.513 814.121C322.346 814.068 323.172 813.952 323.998 813.868C324.56 813.414 325.171 813.478 325.775 813.447C326.303 813.415 326.837 813.362 327.365 813.331C327.822 813.3 328.177 812.761 328.662 812.782C329.19 812.804 329.718 812.698 330.252 812.635C330.321 812.625 330.397 812.572 330.467 812.519C331.022 812.045 331.633 812.108 332.237 812.055C332.688 812.014 333.18 812.086 333.576 811.834C334.158 811.453 334.742 811.412 335.345 811.359C335.567 811.338 335.797 811.253 335.998 811.116C336.352 810.873 336.713 810.799 337.094 810.779C337.469 810.758 337.872 810.748 338.198 810.515C338.704 810.156 339.218 810.134 339.746 810.081C340.045 810.05 340.336 809.913 340.621 809.754C340.773 809.67 340.898 809.586 341.043 809.711C341.411 810.017 341.738 809.858 342.105 809.596C342.432 809.353 342.856 809.415 343.188 809.184C343.639 808.867 344.049 808.804 344.48 809.162C344.82 808.898 345.167 808.741 345.556 808.751C346.234 808.748 346.914 808.736 347.595 808.736ZM7.38025 808.546C7.39438 808.767 7.39438 808.883 7.4009 809.001C7.42916 809.465 7.49764 809.886 7.77592 810.172C8.08789 810.49 8.38682 810.848 8.69227 811.176C9.37274 811.893 10.1217 811.82 10.8511 811.46C11.2674 811.248 11.6772 810.89 12.024 810.478C12.9957 809.359 13.7175 807.913 14.2588 806.257C14.523 805.465 15.0361 802.363 15.0991 801.328C15.1132 801.096 15.1056 800.873 15.0991 800.642C15.0785 800.283 14.9676 800.04 14.7241 799.893C14.3078 799.64 13.9469 799.45 13.461 799.703C12.9816 799.956 12.4196 799.872 11.8924 799.862C11.2674 799.84 10.713 800.062 10.2271 800.695C10.0054 800.979 9.67927 801.106 9.46405 801.402C9.0749 801.929 8.72814 802.531 8.36725 803.111C7.88679 804.906 7.32481 806.658 7.38025 808.546ZM357.326 828.05C357.41 827.111 357.096 826.151 357.014 825.138C356.938 824.199 356.598 823.385 356.542 822.5C356.473 821.349 355.834 820.747 355.605 819.787C355.39 818.911 354.828 818.405 354.613 817.496C354.494 817 354.155 816.589 353.87 816.23C353.398 815.66 352.892 815.154 352.392 814.637C352.273 814.521 352.121 814.457 351.982 814.405C351.913 814.374 351.83 814.396 351.767 814.437C351.705 814.49 351.635 814.584 351.615 814.69C351.469 815.334 351.483 816.04 351.198 816.632C350.858 817.339 351.58 818.141 351.143 818.89C351.073 819.005 351.122 819.333 351.164 819.544C351.226 819.871 351.399 820.189 351.399 820.505C351.406 822.076 351.899 823.397 352.392 824.673C352.85 825.855 353.398 826.995 354.044 827.934C354.627 828.789 355.342 829.475 356.127 829.971C356.675 830.308 357.21 829.528 357.293 828.852C357.312 828.642 357.312 828.409 357.326 828.05ZM30.9651 824.99C30.9651 824.42 30.9716 824.189 30.9651 823.967C30.9651 823.852 30.9445 823.746 30.9368 823.63C30.9227 823.228 30.5618 822.86 30.2705 822.966C29.6944 823.166 29.1672 823.662 28.5563 823.683C27.2443 824.643 26.0507 825.752 25.7866 828.2C25.7518 828.528 25.5572 828.865 25.5996 829.151C25.7105 830.048 25.9257 830.924 26.4181 831.493C26.7725 831.904 27.1888 832.189 27.591 832.485C27.716 832.579 27.89 832.559 28.0356 832.537C28.6465 832.443 29.1596 832.01 29.5629 831.324C29.8053 830.903 29.9857 830.395 30.1738 829.899C30.2846 829.615 30.4238 829.298 30.4444 828.98C30.5629 827.523 31.0901 826.172 30.9651 824.99ZM10.7185 52.6035C10.8087 52.582 10.8924 52.582 10.9543 52.5407C11.0859 52.4465 11.2185 52.3407 11.3359 52.2134C11.35 52.2035 11.2946 51.9919 11.2457 51.9176C10.6761 51.0101 10.0999 50.1027 9.52383 49.1953C8.6564 48.7308 8.1292 47.4531 7.24763 47.0217C6.88022 46.8416 6.58129 46.5044 6.27584 46.1672C5.37362 45.1325 4.40836 44.2466 3.39527 43.4978C3.06264 43.2548 2.65936 43.2334 2.30608 43.5606C2.25064 43.6135 2.17455 43.7292 2.18108 43.7821C2.25064 44.1094 2.32673 44.4366 2.42348 44.7424C2.74958 45.7656 3.08982 46.7903 3.42244 47.8135C3.8942 48.3837 4.37357 48.9325 4.83121 49.5225C5.18557 49.9771 5.54646 50.3242 6.01822 50.4515C6.30302 50.5358 6.55955 50.8316 6.83022 51.0217C7.17698 51.2531 7.51721 51.5919 7.87157 51.6548C8.62813 51.7919 9.29447 52.3837 10.0445 52.5093C10.2815 52.5506 10.5108 52.5721 10.7185 52.6035ZM371.166 799.207C371.11 798.68 371.096 797.972 370.944 797.349C370.444 795.28 369.618 793.53 368.494 792.125C368.258 791.829 367.98 791.65 367.675 791.597C367.599 791.587 367.523 791.576 367.453 791.576C367.232 791.554 367.002 791.545 366.781 791.535C366.33 791.513 366.059 792.073 366.239 792.642C367.19 795.597 368.134 798.553 369.321 801.328C369.585 801.951 369.987 802.214 370.369 802.541C370.445 802.604 370.66 802.447 370.73 802.31C370.861 802.045 370.994 801.73 371.029 801.412C371.11 800.726 371.117 800.04 371.166 799.207ZM29.3618 14.9576C29.3618 14.2403 29.39 13.8915 29.3618 13.5543C29.3335 13.2171 29.2509 12.8899 29.202 12.5626C29.1324 12.1196 29.015 11.6767 29.0215 11.232C29.0498 9.80726 28.64 8.56265 28.3693 7.26349C28.0497 5.73293 27.7313 5.33293 26.7519 4.57261C26.3497 4.26683 25.9399 3.97096 25.5301 3.68667C25.3779 3.58088 24.9887 3.86683 24.9681 4.08832C24.8572 5.24864 24.9192 6.33623 25.2529 7.43374C25.6975 8.88992 26.1616 10.3263 26.6823 11.718C27.2932 13.3328 28.0769 14.6948 29.1259 15.6965C29.1541 15.7179 29.265 15.6436 29.2715 15.5808C29.327 15.2535 29.3618 14.9262 29.3618 14.9576ZM354.015 10.1659C354.015 10.1659 353.994 10.5031 354.021 10.842C354.042 11.042 354.14 11.2221 354.202 11.4006C354.327 11.2734 354.479 11.1891 354.563 11.0205C354.833 10.4932 355.063 9.90148 355.347 9.38413C355.757 8.63538 355.833 7.77919 355.819 6.84035C355.805 5.88995 355.507 5.10979 355.264 4.29658C355.208 4.1065 355.028 4.12799 354.909 4.33955C354.77 4.59244 354.61 4.87839 354.555 5.18417C354.444 5.83871 354.465 6.55606 354.291 7.16762C354.056 8.03373 353.973 8.89984 354.015 10.1659ZM374.136 45.0366C374.04 45.0366 374.261 45.0366 374.491 45.0366C374.977 45.0366 375.352 44.6879 375.65 44.1292C375.789 43.8648 375.9 43.559 376.01 43.2631C376.101 43.0201 375.976 42.44 375.823 42.3772C375.073 42.0499 374.345 42.0185 373.699 42.8317C373.353 43.2747 373.033 43.7507 372.714 44.2251C372.665 44.2995 372.637 44.4366 372.637 44.5424C372.637 44.7226 372.734 44.8796 372.915 44.911C373.206 44.9738 373.511 44.9838 374.136 45.0366Z" fill="#FE1111"/>
</svg>
