<svg width="202" height="70" viewBox="0 0 202 70" fill="none" xmlns="http://www.w3.org/2000/svg">
<path d="M201.447 58.7724C198.766 62.6782 195.614 65.8879 191.572 67.9523C189.007 69.2632 186.316 69.6349 183.601 68.5368C181.525 67.6955 179.801 66.3441 178.562 64.2594C177.059 61.7288 176.319 58.9177 175.64 56.0661C175.481 55.3971 175.345 54.7213 175.145 54.0693C174.263 51.1771 172.97 50.1297 170.15 50.1838C168.871 50.2074 167.591 50.4338 166.322 50.6331C164.256 50.9609 162.206 51.4339 160.133 51.6805C157.781 51.9576 155.481 51.4406 153.193 50.8595C148.307 49.6195 144.045 47.0213 140.16 43.7169C136.98 41.014 133.956 38.1049 130.848 35.3107C125.979 30.9319 120.8 27.1444 114.557 25.3672C110.62 24.2489 106.67 23.4752 102.598 24.3908C101.974 24.5327 101.373 24.8233 100.749 24.9483C100.43 25.0125 100.077 24.8537 99.7378 24.7962C99.8294 24.4009 99.826 23.9212 100.043 23.6306C100.274 23.3197 100.695 23.0968 101.068 23.0022C102.866 22.546 104.658 21.9818 106.484 21.7757C108.333 21.5662 110.22 21.6946 112.086 21.7351C116.487 21.8297 120.675 22.867 124.72 24.7861C130.346 27.4519 135.192 31.2631 139.678 35.7398C141.921 37.9799 144.337 40.0781 146.906 41.862C149.766 43.8521 153.027 44.8792 156.499 44.8724C159.101 44.8691 161.701 44.9096 164.303 44.8522C165.426 44.8285 166.546 44.5819 167.669 44.4805C171.731 44.119 175.515 45.0414 178.878 47.5619C180.822 49.0181 181.796 51.248 182.495 53.5962C183.204 55.9748 183.751 58.4109 184.484 60.7793C184.806 61.8267 185.295 62.8674 185.909 63.7492C187.168 65.5534 189.285 66.0062 191.084 64.854C192.326 64.0601 193.517 63.1343 194.606 62.1139C196.072 60.7388 196.564 58.9785 195.909 56.9175C195.824 56.6472 195.831 56.1235 195.967 56.0357C196.194 55.8937 196.615 55.9039 196.859 56.0424C198.328 56.8736 199.767 57.7622 201.45 58.769L201.447 58.7724Z" fill="#FE1111"/>
<path d="M92.7066 20.6844C92.5064 21.1743 92.3231 21.546 91.6614 21.4716C88.7533 21.1405 85.8655 21.1709 82.9439 21.6575C80.3174 22.0967 77.6265 22.0494 74.9729 22.3197C72.7332 22.5494 70.5038 22.9245 68.271 23.2353C68.1115 23.259 67.9486 23.2995 67.7891 23.3063C63.5813 23.4955 59.3634 23.9482 55.1692 23.7827C51.9964 23.6576 48.8066 23.036 46.0445 20.8973C43.0142 18.5491 42.6036 14.8629 44.9959 11.9099C46.2582 10.3523 47.7683 8.9164 49.4005 7.83184C53.4013 5.17281 57.7244 3.45981 62.448 2.6996C65.6207 2.18942 68.78 2.12523 71.8985 2.39552C75.5837 2.7165 79.1297 3.96661 82.5061 5.69651C86.1472 7.56492 89.6695 9.6462 92.8457 12.3255C93.6906 13.0384 94.2234 14.1804 94.936 15.1737C95.0106 15.1264 95.2855 15.0487 95.3805 14.8663C96.4189 12.856 98.085 13.9101 99.4899 13.9642C99.8326 13.9777 100.376 14.8021 100.437 15.3089C100.803 18.2821 100.321 20.9919 98.1156 23.1272C97.0535 24.1543 95.8895 24.0462 94.712 23.6543C94.108 23.4515 93.6635 22.9718 93.5345 22.1406C93.4565 21.6338 92.9543 21.2047 92.6455 20.7418C92.9712 19.6708 93.297 18.5964 93.6262 17.5253C93.6872 17.4882 93.7551 17.4577 93.8128 17.4138C93.8467 17.3868 93.8671 17.3361 93.8942 17.2922C93.8264 17.3902 93.7585 17.4882 93.6906 17.5895C92.9271 17.0151 92.184 16.4036 91.4001 15.8664C84.4878 11.1328 76.7679 9.27792 68.7426 8.67314C66.8356 8.52785 64.8878 8.92992 62.9671 9.15629C59.5636 9.55836 56.3704 10.6835 53.5845 12.8526C52.7056 13.5385 51.9659 14.5554 51.4161 15.5792C50.8291 16.6671 51.3076 18.0828 52.3968 18.3632C53.6116 18.6741 54.8163 19.3633 56.1702 18.8836C56.8455 18.6437 57.6022 18.6572 58.3216 18.5761C60.1608 18.37 62.0034 18.2044 63.8392 17.9679C66.1501 17.6706 68.4508 17.1368 70.7685 17.0354C76.5881 16.7752 82.4043 16.9645 88.1493 18.0929C89.8663 18.4308 91.7802 18.62 92.7099 20.681L92.7066 20.6844ZM95.5807 22.8468C95.4654 22.7623 95.35 22.6778 95.2346 22.59C95.3703 22.6508 95.5095 22.7116 95.6452 22.7724C95.747 22.8468 95.8454 22.9245 95.9472 22.9988C95.8251 22.9481 95.7029 22.8974 95.5807 22.8434V22.8468Z" fill="#FE1111"/>
<path d="M0.678711 61.9585C2.05642 60.7928 3.45448 59.6339 4.822 58.4345C5.34458 57.9784 5.84001 57.921 6.36938 58.3298C6.74604 58.6203 7.08538 58.9717 7.44847 59.2826C9.69487 61.2186 12.1042 62.1612 15.0632 61.3402C16.5257 60.9347 18.0358 60.7726 19.4983 60.2218C23.4685 58.7217 25.6912 55.789 26.285 51.3291C26.5463 49.3695 26.9569 47.4335 27.1876 45.4671C27.493 42.8621 29.0744 41.3349 30.9136 39.9632C33.428 38.088 36.3022 37.9191 39.2137 37.8785C42.9736 37.8279 46.5027 39.0881 50.0046 40.2909C53.6864 41.5546 57.4123 42.0343 61.2061 41.6728C63.6493 41.4397 65.8889 40.399 67.4872 38.2333C69.0957 36.0507 70.6091 33.7869 72.2481 31.6347C74.1043 29.202 76.0622 26.8606 78.5258 25.0935C81.1489 23.2082 84.0468 22.2588 87.1958 22.2386C88.3326 22.2318 89.4728 22.2487 90.6096 22.296C91.0846 22.3163 91.5801 22.3872 92.0246 22.5663C92.2791 22.6676 92.6422 23.0832 92.6015 23.2623C92.5166 23.6306 92.2452 24.0157 91.9465 24.2354C91.7124 24.4111 91.3154 24.4448 91.0134 24.3908C87.3519 23.7454 84.8137 26.0227 82.4655 28.4283C80.477 30.4657 78.7803 32.8375 76.9649 35.0708C74.7252 37.8245 72.679 40.791 69.6623 42.6797C66.9646 44.369 64.0871 45.2745 60.955 45.4637C56.6183 45.7272 52.4444 44.8488 48.3011 43.6798C45.0944 42.7743 41.8809 42.1188 38.5283 42.2472C34.8974 42.3857 30.8898 44.8251 29.753 49.7952C29.2372 52.0555 28.8334 54.3429 28.3041 56.5999C26.8517 62.8133 23.1156 66.2393 17.3299 67.6313C14.3607 68.3442 11.663 67.7225 9.05013 66.7562C6.58655 65.844 4.09243 64.7324 2.09714 62.7322C1.71369 62.3504 1.13342 62.1984 0.678711 61.9585Z" fill="#FE1111"/>
<path d="M101.071 16.4914C101.475 13.7716 102.938 12.0451 104.743 10.7375C111.706 5.68636 119.297 2.27726 127.587 0.61832C131.058 -0.0776908 134.54 -0.172294 137.964 0.263557C141.961 0.770362 145.514 2.62527 148.208 6.07153C150.278 8.71705 150.438 12.9979 148.748 16.1164C146.508 20.2452 142.993 22.5629 138.816 23.8773C135.069 25.0564 131.503 23.9347 127.896 23.0393C123.199 21.8737 118.51 20.6405 113.762 19.7654C110.111 19.093 106.375 18.7653 102.809 20.5188C102.513 20.6641 101.926 20.5932 101.733 20.3668C101.533 20.1303 101.533 19.5424 101.645 19.1809C101.913 18.3193 102.476 17.7855 103.321 17.451C105.815 16.4644 108.353 16.2617 110.956 16.6469C114.146 17.1165 117.356 17.4713 120.515 18.1031C123.82 18.7653 127.187 18.2484 130.441 18.7788C134.56 19.4545 137.855 17.9172 140.957 15.4373C141.897 14.6838 142.691 13.6128 143.312 12.5282C144.235 10.9098 144.079 10.2713 142.867 8.81841C141.283 6.91959 139.124 6.21006 136.959 5.47688C133.977 4.46665 130.984 5.05117 128.082 5.62893C120.206 7.18988 112.782 10.278 105.601 14.052C104.373 14.6973 103.219 15.5082 102.018 16.2144C101.777 16.3563 101.478 16.3799 101.064 16.4982L101.071 16.4914ZM102.809 14.3358C102.771 14.2649 102.737 14.1939 102.7 14.123C102.642 14.2615 102.568 14.4 102.537 14.5453C102.527 14.596 102.615 14.6737 102.656 14.7413C102.707 14.6061 102.758 14.471 102.805 14.3358H102.809ZM103.701 18.2551L103.613 18.3666L103.755 18.3936L103.704 18.2551H103.701Z" fill="#FE1111"/>
</svg>
