<svg width="118" height="168" viewBox="0 0 118 168" fill="none" xmlns="http://www.w3.org/2000/svg">
<path d="M91.9435 63.8435C91.3899 63.6731 90.8459 63.4341 90.2804 63.3418C88.1593 62.9893 87.2288 62.1044 87.3648 59.9914C87.4554 58.5836 87.9947 57.2065 88.3239 55.8128C88.405 55.465 88.6341 54.935 88.4862 54.7859C87.0164 53.3024 85.8998 51.3432 83.5543 50.9718C83.4398 50.9102 83.3277 50.8464 83.2131 50.7848L83.5901 50.9363C84.1675 51.8969 84.1246 52.7771 83.4613 53.5792C83.0747 54.0406 82.6214 54.4523 82.2635 54.9326C81.9557 55.3443 81.5453 55.7915 82.4281 56.1417C83.4207 56.5345 84.2009 57.1284 83.707 58.4108C83.6378 58.5883 83.7285 58.8509 83.8048 59.0521C83.9265 59.3691 84.0983 59.6673 84.2463 59.9725C83.812 59.9181 83.3611 59.9204 82.953 59.7879C82.6882 59.7004 82.2993 59.4283 82.2874 59.2201C82.2158 57.9518 81.3019 57.6584 80.3261 57.3153C79.5864 57.0551 79.1641 56.4328 79.5506 55.678C80.0111 54.7765 79.5649 53.513 80.8462 52.9072C81.5071 52.5949 81.2972 51.8543 80.913 51.2959C80.7961 51.1279 80.6577 50.9741 80.5289 50.8132C80.443 50.9386 80.3499 51.0593 80.2736 51.1894C79.6437 52.24 79.0257 53.2977 78.3791 54.3364C78.267 54.5186 78.0451 54.6321 77.8733 54.7765C77.8279 54.5848 77.6943 54.3624 77.7468 54.2039C79.2476 49.7012 80.9083 45.2457 83.5448 41.2707C84.6566 39.5954 84.7998 37.6907 85.4989 35.9327C85.5633 35.7718 85.2078 35.3412 84.9549 35.1803C83.9814 34.5651 82.9507 34.0398 81.9748 33.4293C78.3481 31.165 76.5013 27.7767 75.6495 23.7069C74.7214 19.261 75.232 14.8931 76.246 10.5513C76.4417 9.71843 76.4751 9.24284 75.7044 8.63711C74.1153 7.38543 73.6477 5.69365 74.2585 3.71794C74.7858 2.0167 75.1151 1.79665 77.0764 1.8842C77.3484 1.89603 77.6824 1.5837 77.9067 1.34709C78.5199 0.694037 79.0901 0.447961 80.1137 0.601759C81.3497 0.788682 82.7145 0.561535 83.9504 0.239742C85.3724 -0.129373 86.6704 -0.0915151 87.9947 0.488185C88.4098 0.670376 88.8608 0.840737 89.3069 0.871497C90.5739 0.959043 91.4877 1.52455 92.0962 2.62006C92.3706 3.11458 92.6903 3.27074 93.1007 2.71471C93.3727 2.34796 93.6518 1.96228 94.0074 1.68308C94.7303 1.11284 95.6441 1.18619 96.3003 1.83924C96.5675 2.10425 96.8037 2.4284 96.9684 2.76676C98.0278 4.96016 100.063 6.55965 100.779 8.9589C100.822 9.0985 100.905 9.25467 101.017 9.34221C102.919 10.8447 103.248 12.8914 103.11 15.125C102.979 17.2214 102.47 19.164 101.003 20.7658C100.796 20.993 100.81 21.0096 101.323 21.4851C101.356 21.5159 101.483 21.4804 101.492 21.5041C101.898 22.5073 100.092 25.6874 98.9487 25.9193C98.6075 25.9879 98.0063 25.9831 97.9132 25.8081C97.739 25.4815 97.739 24.9681 97.8655 24.599C98.0588 24.0287 98.3379 23.449 98.7221 22.99C99.3687 22.2186 99.0609 22.1666 98.264 21.9371C97.374 21.6815 96.9946 20.8108 97.1879 19.8975C97.4026 18.8942 97.6627 18.0708 96.4339 17.3989C95.7109 17.0037 96.0545 16.0383 96.2263 15.2764C96.3528 14.7204 96.3194 14.1265 96.3552 13.5515C95.2361 13.7456 95.1383 12.0798 93.9429 12.2809C93.5015 12.3543 92.9575 12.0656 92.5137 11.8432C91.3828 11.2777 90.3854 10.4709 89.1495 11.8598C88.4408 12.6548 87.3528 11.997 86.5678 11.6255C85.7781 11.2517 85.1863 11.1807 84.4634 11.7012C83.4708 12.4158 82.3017 12.3685 81.1302 12.3496C79.8012 12.3283 79.0114 11.5995 78.3362 10.601C78.2312 10.4448 77.952 10.4046 77.754 10.31C77.6991 10.4496 77.6156 10.5844 77.5941 10.7288C76.9427 14.9783 76.7018 19.2279 77.5679 23.4845C78.7322 29.22 82.5164 32.8047 87.4721 35.4524C88.3669 35.9303 89.2306 35.8073 90.1444 35.4973C91.9315 34.8892 93.4323 33.841 94.8305 32.6201C95.4103 32.1138 95.94 31.5459 96.5651 31.1034C96.799 30.9378 97.3096 30.9212 97.5649 31.0632C99.4283 32.109 101.273 33.1927 103.098 34.3072C104.413 35.1116 105.501 36.103 106.293 37.5014C106.92 38.6088 107.913 39.541 108.848 40.4425C110.776 42.2976 112.084 44.4768 112.881 47.0227C114.226 51.3172 115.806 55.5431 117.027 59.8707C117.896 62.9467 118.242 66.1741 117.822 69.3684C117.366 72.83 113.711 74.8412 110.287 73.6605C108.684 73.1092 107.188 72.371 105.818 71.3275C101.759 68.2326 97.195 66.0037 92.571 63.8884C92.3706 63.7961 92.1177 63.8198 91.891 63.789L91.9482 63.8458H91.9435V63.8435ZM91.4591 4.08469C91.5092 4.29764 91.5617 4.50823 91.6118 4.72118C91.6858 4.64546 91.7574 4.57211 91.8313 4.49639C91.6929 4.37336 91.5522 4.24795 91.4138 4.12491C91.3852 3.91196 91.4353 3.61147 91.3112 3.50499C91.0177 3.24945 90.6431 3.08145 90.2948 2.89216C90.278 2.8827 90.1969 2.98681 90.1468 3.0365C90.3997 3.27074 90.6431 3.51682 90.9103 3.73687C91.075 3.8741 91.2754 3.97112 91.4591 4.08469ZM75.7211 3.68008C75.084 5.29141 75.3394 6.70635 76.4632 7.72615C76.5634 7.81606 76.7185 7.84446 76.8497 7.90361C76.8926 7.76164 77.0048 7.59838 76.9666 7.48481C76.5467 6.19764 76.1053 4.91756 75.671 3.63749C75.7307 3.44584 75.7927 3.25181 75.8523 3.06016C75.8094 3.26838 75.7664 3.4766 75.7235 3.68245L75.7211 3.68008ZM116.025 67.7925C115.966 66.6875 116.016 65.9824 115.877 65.3176C115.133 61.7471 114.718 58.1056 113.417 54.6511C112.802 53.0137 112.193 51.3338 111.919 49.6183C110.981 43.7669 106.567 40.1704 103.098 35.9682C102.53 35.2796 101.662 34.8253 100.9 34.3072C100.075 33.7464 99.216 33.2377 98.3666 32.71C97.0805 31.9103 97.0519 31.8866 96.1261 32.9774C94.6611 34.6999 92.9456 36.0747 90.8602 36.9903C89.1137 37.7593 88.8393 38.4006 89.4358 40.1704C89.8867 41.5073 89.9392 41.5215 91.0893 40.6484C93.1102 39.1199 95.1288 37.589 97.164 36.0818C97.2857 35.9918 97.5506 36.0889 97.7486 36.1007C97.7056 36.2332 97.7009 36.4035 97.6126 36.4911C95.4843 38.5969 93.3512 40.6981 91.2134 42.7944C90.4475 43.5445 89.6553 43.7314 88.7916 42.9151C88.6818 42.811 88.2667 42.8157 88.2619 42.837C88.0972 43.4877 88.102 44.4484 87.2168 44.3301C86.6871 44.2591 86.2362 43.4806 85.7828 42.9908C84.9978 42.1414 84.8308 42.1414 84.3393 43.1423C83.7022 44.446 83.0795 45.7592 82.4782 47.0819C82.2373 47.6142 82.0631 48.175 81.8603 48.7239C82.3733 48.75 82.9244 48.6695 83.3921 48.8281C84.1103 49.0741 84.8595 49.3794 85.4416 49.8455C86.4533 50.6571 87.453 51.5254 88.2619 52.5287C89.0994 53.5674 89.8104 54.1092 91.2849 53.6265C92.0986 53.3615 93.2391 53.7425 94.1195 54.0998C95.1741 54.5304 96.0832 55.2947 97.1044 55.8294C99.0728 56.8587 101.065 57.8406 103.065 58.806C103.368 58.9527 103.759 58.9125 104.11 58.9598C103.983 58.6948 103.871 58.4203 103.728 58.1648C101.578 54.3695 99.4212 50.5813 97.2809 46.7814C97.1879 46.6157 97.2261 46.3791 97.2046 46.1733C97.3907 46.2513 97.6221 46.2821 97.7557 46.4122C100.967 49.571 103.525 53.177 105.162 57.3698C105.739 58.8486 106.162 60.299 108.261 59.6744C108.376 59.6389 108.54 59.7619 108.681 59.8116C108.579 59.9157 108.495 60.0553 108.371 60.1192C107.2 60.7249 106.038 61.1792 104.63 60.8716C101.64 60.2162 99.0132 58.8367 96.4792 57.2089C95.3196 56.4635 94.1362 55.7419 92.9098 55.1077C91.922 54.5967 90.9628 54.8262 90.1826 55.6259C88.584 57.2656 88.4146 59.2934 88.7057 61.3993C88.7987 62.0807 89.3714 62.367 90.0657 62.3883C90.7552 62.412 91.4639 62.3836 92.132 62.5232C97.7844 63.7086 102.976 65.8239 107.429 69.6239C108.619 70.639 110.177 71.3157 111.668 71.8788C113.472 72.5603 115.045 71.7013 115.677 69.8487C115.942 69.0726 115.958 68.2113 116.025 67.7902V67.7925ZM93.9286 4.77796C94.098 5.81196 94.2197 6.55019 94.3414 7.28842C94.6897 6.89564 95.0023 6.45791 95.4055 6.12665C95.6107 5.95866 95.9758 5.95393 96.274 5.9279C97.2284 5.84508 96.997 5.35293 96.6367 4.86788C96.4148 4.56738 96.1476 4.25505 95.8279 4.08232C95.4533 3.8812 94.8544 3.60437 94.6086 3.75817C94.2221 3.99951 94.0503 4.57684 93.9286 4.7756V4.77796ZM87.2908 39.8273C87.2335 39.6073 87.1977 39.2145 87.0236 38.8951C86.8637 38.5993 86.5583 38.3793 86.3173 38.1261C86.2362 38.4337 86.1288 38.7365 86.0763 39.0489C86.0214 39.3801 86.1336 39.7918 85.9713 40.0403C85.5466 40.7004 85.2651 41.4055 86.2123 41.654C86.9925 41.8598 86.9138 40.885 87.2049 40.4307C87.2789 40.3147 87.2502 40.1349 87.2884 39.8273H87.2908ZM78.3815 4.17934C78.5199 4.69752 78.5962 4.98145 78.6726 5.26775C78.768 4.99091 78.8062 4.67149 78.9756 4.44907C79.2357 4.10835 79.5459 3.77473 79.9061 3.54521C80.4573 3.19266 80.8939 2.84011 80.6553 2.10898C80.1471 2.32903 79.5315 2.4426 79.1569 2.79989C78.7561 3.1832 78.5843 3.79839 78.3791 4.1817H78.3815V4.17934ZM99.7481 13.1659C99.7481 12.8606 99.7695 12.7778 99.7457 12.7116C99.5739 12.2407 99.3949 11.7722 99.216 11.3037C99.0919 11.7273 98.9726 12.1508 98.8461 12.5743C98.7412 12.9293 98.5837 13.2771 98.5431 13.6367C98.5264 13.7716 98.7722 14.0626 98.8986 14.0626C99.1563 14.0626 99.519 13.9845 99.6431 13.8047C99.7934 13.5894 99.7409 13.2345 99.7481 13.1659ZM87.9302 2.26278C87.193 1.86527 86.8112 1.58843 86.3817 1.45593C86.1622 1.38731 85.8592 1.57897 85.5943 1.65468C85.8425 2.1492 86.093 2.64372 86.3412 3.13824C86.7539 2.91109 87.1643 2.68395 87.9278 2.26514L87.9302 2.26278ZM89.0707 4.9223C89.1137 4.32367 89.1471 4.16987 89.1304 4.0208C89.1041 3.79839 89.0445 3.58307 88.9968 3.36302C88.856 3.52629 88.6985 3.68008 88.5768 3.85754C88.4933 3.98058 88.417 4.13674 88.4122 4.27871C88.3931 4.87734 88.4027 5.47597 88.4098 6.07223C88.4098 6.08406 88.5554 6.11482 88.5601 6.10299C88.7892 5.58008 89.0135 5.0548 89.0683 4.91993H89.0707V4.9223ZM101.6 14.2898C101.588 14.2424 101.468 13.7266 101.349 13.2108C101.287 13.7266 101.215 14.2448 101.17 14.763C101.144 15.0611 101.132 15.3664 101.163 15.6621C101.187 15.8751 101.292 16.0809 101.359 16.2915C101.437 16.088 101.559 15.8916 101.588 15.6811C101.628 15.3853 101.597 15.0824 101.597 14.2898H101.6ZM83.7834 3.22342C84.0029 3.13351 84.1365 3.08145 84.2677 3.02703C84.0864 2.83301 83.9218 2.61769 83.7118 2.45916C83.6474 2.41184 83.4589 2.52542 83.3277 2.56327C83.4827 2.78805 83.6378 3.01284 83.7834 3.22106V3.22342ZM85.8473 4.49403C85.7757 4.3355 85.6969 4.1675 85.6206 3.99714C85.5848 4.19826 85.5132 4.40412 85.5204 4.60287C85.5275 4.78033 85.623 4.95542 85.6802 5.13052C85.7327 4.9294 85.7852 4.72828 85.8496 4.49166L85.8473 4.49403ZM91.7049 6.22366C91.6572 6.34907 91.5784 6.46974 91.5713 6.59751C91.5641 6.72055 91.6333 6.85069 91.6667 6.97609C91.7144 6.85069 91.7955 6.72765 91.8027 6.59988C91.8099 6.47684 91.7407 6.35143 91.7049 6.22603V6.22366ZM82.8934 10.8494L82.9698 10.7548L82.8361 10.7406L82.891 10.8494H82.8934Z" fill="black"/>
<path d="M40.2435 68.1376C39.9837 70.8239 39.6452 74.8616 39.1923 78.8827C38.7155 83.1098 36.9515 86.8327 34.1768 90.0255C32.2865 92.2005 30.9325 94.643 29.7525 97.2252C28.3842 100.212 27.004 103.185 26.2149 106.399C25.2757 110.228 25.2281 114.112 25.2471 118.012C25.2543 119.771 25.3592 121.546 25.1613 123.286C24.6536 127.737 21.9217 130.869 18.3556 133.188C14.9444 135.406 11.0803 136.409 6.92294 135.846C4.973 135.581 3.18278 134.925 1.63093 133.742C1.04452 133.295 0.517702 132.665 0.198274 132.007C-0.481106 130.608 0.677416 128.985 2.27455 129.023C2.43665 129.027 2.75608 129.558 2.72032 129.598C1.44738 131.034 2.81091 131.683 3.6357 132.317C5.33296 133.621 7.39493 134.201 9.47598 134.182C13.4331 134.144 17.0016 133.051 19.8741 130.04C22.1768 127.626 23.3496 124.919 23.414 121.612C23.4903 117.795 23.5975 113.97 23.936 110.171C24.2769 106.344 25.588 102.747 27.1875 99.2511C27.8335 97.8382 28.8538 96.598 28.7847 94.8229C28.7513 93.9851 29.6786 93.0999 30.1935 92.2502C32.2245 88.8941 33.9074 85.3748 34.6917 81.5264C35.2686 78.6958 35.731 75.8202 35.9456 72.9422C36.8085 61.4586 38.6893 50.2212 43.4521 39.6087C44.1077 38.146 44.5916 36.6053 45.2328 35.1379C45.7215 34.0231 46.2435 32.8965 46.9325 31.9025C47.3758 31.2611 47.3973 30.9227 47.1375 30.144C46.5987 28.5322 45.6619 28.2719 44.1172 28.2742C40.0838 28.2837 37.5999 24.5016 39.0493 20.7172C40.3079 17.4345 42.9039 15.8535 46.2721 15.4748C47.3687 15.3517 48.2245 15.3943 48.8157 14.147C49.1446 13.4536 50.2269 12.9802 51.0659 12.6844C53.5928 11.7921 56.1434 10.9519 58.7274 10.2442C62.0052 9.34724 65.4974 10.9921 66.9706 14.0121C67.2852 14.6583 67.5951 15.2381 68.3818 15.3754C70.7942 15.8038 71.9909 17.5907 72.8967 19.5669C74.3675 22.7786 74.2459 26.111 73.2471 29.4198C72.8085 30.8753 72.2078 32.2906 71.5999 33.6894C70.5963 36.0017 69.5403 38.2904 69.178 40.8157C69.1351 41.1068 69.0659 41.4642 68.8729 41.6488C68.5606 41.947 68.1339 42.1293 67.7572 42.3589C67.6714 41.9376 67.4116 41.4571 67.5308 41.1021C68.4843 38.2857 69.495 35.4858 70.5201 32.693C71.4712 30.0943 72.2721 27.4553 72.0266 24.6555C71.7143 21.0911 70.3031 18.0546 67.4092 15.7801C66.6297 15.1695 65.9742 14.405 65.2233 13.7541C64.4533 13.0915 63.9408 13.2003 63.7406 14.1352C63.1589 16.8688 61.3186 18.4877 58.9038 19.5409C57.4259 20.1846 56.6249 21.2166 56.2459 22.7407C55.8979 24.1395 55.4164 25.5075 54.9468 26.8708C54.4605 28.2813 53.2733 28.9914 52.029 29.6541C51.7668 29.7937 51.6357 30.1724 51.4426 30.4422C51.8335 30.5818 52.2793 30.9085 52.6059 30.8185C53.0946 30.6836 53.4903 30.2387 53.9456 29.9594C54.2173 29.7913 54.5296 29.6848 54.8228 29.5499C54.8705 29.9239 55.0588 30.357 54.9301 30.6599C54.7727 31.0363 54.4056 31.3984 54.0361 31.5948C53.5761 31.8386 53.0087 31.8788 52.5129 32.0705C52.3413 32.1368 52.1005 32.4374 52.1363 32.551C52.2197 32.8019 52.4676 33.1971 52.6345 33.19C53.3806 33.1592 54.1553 33.1119 54.8514 32.8705C55.476 32.6551 55.8121 32.622 56.0457 33.3202C56.1863 33.7438 56.5415 34.0965 56.6893 34.5201C56.9539 35.2751 57.1375 36.0585 57.3544 36.8301C56.5916 36.5721 55.8288 36.3165 55.0659 36.0585C54.7036 35.9355 54.3484 35.7177 53.9813 35.6964C51.6428 35.5639 49.9742 34.4231 48.8895 32.4113C48.5773 31.8339 48.3055 32.0611 48.0743 32.3995C47.8598 32.7119 47.7048 33.074 47.588 33.4362C45.7334 39.1732 43.7572 44.8771 42.0838 50.6662C40.5701 55.9062 40.1649 61.3285 40.2459 68.1329V68.1376H40.2435ZM56.3222 15.9008C54.9611 15.7943 54.0981 16.6037 53.2972 17.5268C53.0802 17.7753 52.532 17.9907 53.0493 18.3599C53.2447 18.4995 53.7906 18.438 53.9789 18.2605C54.787 17.5007 55.5189 16.6629 56.2793 15.8558C56.4843 15.8085 56.6893 15.7612 56.8943 15.7138C56.8228 15.6476 56.6988 15.5221 56.6917 15.5269C56.5606 15.6428 56.4438 15.773 56.3246 15.9008H56.3222ZM45.6452 19.5149C46.9325 18.9516 48.1244 19.0415 49.2233 19.9764C49.3306 20.0687 49.588 20.0497 49.7453 19.9953C49.8168 19.9693 49.8431 19.7255 49.8311 19.5859C49.7263 18.3859 49.2137 17.9055 48.0695 18.1729C47.1708 18.3835 46.0934 18.4522 45.6953 19.5669C45.6404 19.5859 45.5808 19.6001 45.5308 19.6285C45.4998 19.645 45.4831 19.6853 45.4617 19.7137C45.5236 19.6474 45.5832 19.5835 45.6452 19.5172V19.5149ZM57.1851 13.5222C58.8419 13.6192 60.5058 13.6121 62.0695 14.3458C62.327 14.4665 62.9658 14.2417 63.1398 13.9837C63.4569 13.5127 63.3639 12.9187 62.7203 12.7009C62.0838 12.4879 61.4068 12.2489 60.7537 12.2678C59.4617 12.3057 58.2197 12.6276 57.24 13.5695C57.2018 13.6263 57.1637 13.6831 57.1279 13.7399C57.147 13.6666 57.1684 13.5956 57.1875 13.5222H57.1851ZM54.9181 24.6152C53.3973 24.7075 51.8764 24.7998 50.3556 24.8969C50.2197 24.9063 50.0528 24.9134 49.9575 24.9892C49.5332 25.3276 49.2733 27.1406 49.6476 27.5595C49.8788 27.8198 50.3842 28.0423 50.4366 27.382C50.5081 26.4992 50.8919 26.5228 51.4617 26.9394C52.6083 27.7772 53.1947 26.3501 54.1553 26.2578C54.8204 26.1939 55.1208 25.3537 54.8824 24.5774C54.9396 24.5655 55.0016 24.5632 55.0516 24.5348C55.0826 24.5182 55.0922 24.4638 55.1089 24.4259C55.0445 24.4874 54.9825 24.5513 54.9181 24.6129V24.6152ZM47.0373 16.7102C44.0338 16.6511 41.464 18.206 40.4462 20.7124C39.7477 22.4354 39.7596 24.1655 41.0516 25.6566C42.0862 26.8495 44.1935 27.3015 45.7263 26.6104C46.3627 26.3217 46.849 25.7063 47.4044 25.2401C46.737 25.2093 46.06 25.1051 45.3997 25.1643C43.4331 25.3347 41.116 23.4082 41.8097 21.1029C42.4462 18.9776 44.1935 17.4037 46.4176 17.2167C46.9515 17.1718 47.4926 17.2333 48.0314 17.2238C48.172 17.2215 48.3103 17.1363 48.4509 17.0889C48.3055 16.9895 48.172 16.8286 48.0147 16.8002C47.6381 16.7339 47.2495 16.7315 47.0373 16.715V16.7102ZM61.7406 15.4582C61.6261 15.3919 61.4807 15.2452 61.3997 15.2736C60.9038 15.4559 60.1363 15.56 59.9909 15.9055C59.5451 16.98 58.5463 17.0771 57.7191 17.4936C57.3115 17.6995 56.8872 17.8747 56.4938 18.0995C56.3437 18.1847 56.2531 18.3764 56.1363 18.5208C56.2793 18.5634 56.4199 18.6368 56.5653 18.6439C58.122 18.7196 61.1947 16.954 61.7334 15.676C61.7596 15.6121 61.7358 15.5292 61.7382 15.4559H61.7406V15.4582ZM53.6953 14.7766C53.5665 14.7269 53.4283 14.618 53.3115 14.637C52.644 14.7458 51.967 14.8405 51.3234 15.0346C50.9944 15.134 50.4533 15.4701 50.4772 15.631C50.5773 16.3055 50.8466 16.9587 51.0802 17.6096C51.0969 17.6546 51.4211 17.6735 51.4783 17.6049C52.1935 16.741 52.8895 15.8558 53.5856 14.9754C53.6309 14.9162 53.6571 14.8429 53.6929 14.7766H53.6953ZM47.7572 23.465C48.0505 23.0887 48.3222 22.897 48.3508 22.6768C48.4438 21.9432 47.8812 21.3018 47.1136 21.3917C46.6774 21.4438 46.2865 21.8721 45.8741 22.1301C46.4629 22.5467 47.0516 22.9656 47.7572 23.465ZM50.3294 19.6853C50.389 19.7799 50.6011 20.1113 50.8109 20.4403C51.2829 20.0781 51.7549 19.716 52.2292 19.3539C51.855 19.3231 51.4712 19.335 51.1136 19.2427C50.9682 19.2048 50.8514 18.9539 50.7751 18.7788C50.6607 18.5137 50.5892 18.1303 50.346 18.6865C50.2626 18.8782 50.3317 19.1362 50.3317 19.6853H50.3294ZM43.6142 22.0615C43.5165 22.2603 43.3758 22.4165 43.4116 22.4899C43.5618 22.8047 43.7644 23.0958 43.948 23.394C44.0123 23.2851 44.1577 23.1431 44.1291 23.0721C43.9909 22.7407 43.8073 22.4283 43.6142 22.0615ZM52.88 22.6816C53.321 22.6816 53.619 22.6981 53.9146 22.6697C53.9885 22.6626 54.0505 22.5135 54.1172 22.4307C53.8264 22.4023 53.5356 22.3597 53.2447 22.3573C53.1684 22.3573 53.0898 22.4899 52.8824 22.6816H52.88ZM56.2149 35.2112C56.11 35.055 56.0457 34.9627 55.9813 34.868C55.8741 34.9533 55.731 35.0195 55.669 35.1308C55.6261 35.2041 55.6977 35.3414 55.7167 35.4503C55.8788 35.3722 56.0409 35.2941 56.2149 35.2112ZM50.9515 22.0804C51.0636 22.0071 51.2114 21.9573 51.2757 21.8532C51.321 21.7822 51.2495 21.6402 51.2304 21.5313C51.0779 21.6023 50.9253 21.6733 50.7727 21.742C50.8323 21.8532 50.8919 21.9668 50.9515 22.0781V22.0804ZM55.6047 34.0917L55.6833 34.0065L55.5499 33.99L55.6047 34.0917ZM48.6154 28.9346L48.7322 29.0127L48.7537 28.9085L48.6154 28.9346ZM48.6893 27.4908L48.6154 27.6021L48.7227 27.6186L48.6893 27.4885V27.4908ZM45.4474 24.0046L45.5308 23.891L45.3806 23.8792L45.445 24.0046H45.4474Z" fill="black"/>
<path d="M110.014 110.496C110.014 112.862 109.913 115.233 110.04 117.593C110.208 120.78 110.517 123.96 110.829 127.138C111.112 130.012 111.337 132.899 111.85 135.735C112.361 138.566 113.157 141.348 113.902 144.129C114.452 146.182 115.211 148.18 115.715 150.244C116.399 153.042 115.932 155.538 113.447 157.376C112.166 158.322 110.955 159.363 109.712 160.361C107.159 162.406 104.264 163.222 101.015 162.949C99.2752 162.802 97.7013 162.342 96.6778 160.858C96.1297 160.066 95.4693 160.028 94.7034 160.106C92.4526 160.339 90.2088 160.677 87.9533 160.821C86.616 160.906 85.2248 160.875 83.9249 160.585C82.2385 160.21 81.6811 158.959 82.1706 157.261C82.7093 155.385 83.9881 154.099 85.6276 153.21C86.6816 152.639 87.8433 152.252 88.9815 151.86C91.1433 151.117 91.6188 150.532 91.7242 148.244C91.7476 147.711 91.7546 147.173 91.7242 146.642C91.4642 142.539 91.2487 138.432 90.9138 134.334C90.436 128.473 90.2791 122.606 90.518 116.736C90.6749 112.86 90.9747 108.984 91.3822 105.124C91.5556 103.489 92.1317 101.89 92.5908 100.293C92.8016 99.5588 92.5697 99.2946 91.8834 99.2828C91.2768 99.2733 90.6702 99.2851 90.066 99.271C84.9437 99.1483 82.18 95.6 83.3347 90.5324C83.8242 88.3855 84.4425 86.267 85.0561 84.1507C86.1195 80.4821 86.6371 76.7522 86.9298 72.935C87.2015 69.4009 87.0493 65.9517 86.5129 62.4836C86.4895 62.3374 86.6581 62.1628 86.7378 62C86.8736 62.1699 87.0985 62.3256 87.1313 62.5143C87.4779 64.6093 87.9697 66.6996 88.0892 68.8111C88.4593 75.332 87.5107 81.7066 85.7822 87.9915C85.3442 89.5864 85.103 91.2709 85.0304 92.9247C84.9461 94.8404 86.082 96.2299 87.9018 96.8433C89.7404 97.4638 91.6258 97.3883 93.5183 97.1689C97.1134 96.7513 100.704 96.2842 104.308 95.9398C106.711 95.7109 109.131 95.6118 111.543 95.5576C112.445 95.5363 112.81 95.1046 112.85 94.352C112.937 92.7643 113.138 91.1435 112.925 89.5887C112.576 87.0408 111.878 84.5424 111.431 82.0038C111.042 79.7862 110.763 77.5473 110.517 75.3107C110.478 74.9545 110.768 74.393 111.075 74.1995C111.71 73.7985 112.115 74.4119 112.255 74.8696C112.923 77.0377 113.67 79.2011 114.075 81.4235C114.537 83.9455 114.782 86.5218 114.9 89.0839C114.996 91.1954 114.956 93.3517 114.623 95.4325C114.34 97.2067 113.276 97.813 111.506 97.7328C107.412 97.5488 103.374 98.0371 99.3408 98.6694C97.8489 98.903 96.3452 99.0728 94.8392 99.179C94.0218 99.2356 93.6049 99.5824 93.4316 100.359C93.0498 102.06 92.373 103.739 92.2957 105.45C92.0333 111.161 91.7851 116.887 91.9092 122.599C92.0123 127.303 92.7219 131.991 93.0405 136.695C93.3262 140.876 93.5089 145.068 93.6096 149.256C93.6611 151.384 92.4807 152.839 90.5156 153.597C89.5296 153.977 88.4944 154.231 87.5107 154.614C86.1312 155.147 84.9812 156.001 84.2903 157.357C83.8429 158.24 84.0537 158.641 85.0187 158.768C85.541 158.837 86.0773 158.83 86.6043 158.82C89.2556 158.778 91.9045 158.697 94.5535 158.69C95.3709 158.688 95.7081 158.53 95.8159 157.584C95.9494 156.407 96.2843 155.182 96.83 154.135C98.3079 151.297 98.9778 148.277 99.0387 145.127C99.116 141.083 99.137 137.037 99.0106 132.996C98.9262 130.264 98.5492 127.539 98.3009 124.812C98.2798 124.583 98.2447 124.357 98.2377 124.128C98.0737 118.185 97.9121 112.242 97.7552 106.297C97.7435 105.839 97.6919 105.353 97.8184 104.931C98.0198 104.265 98.3594 103.643 98.6382 103.001C98.6054 103.591 98.5281 104.183 98.5492 104.77C98.6803 108.422 98.8068 112.074 98.9848 115.724C99.1042 118.157 99.2541 120.591 99.4883 123.017C99.8889 127.176 100.481 131.319 100.779 135.485C101.126 140.34 101.746 145.219 100.837 150.072C100.533 151.702 99.9006 153.274 99.3689 154.857C99.1277 155.574 98.7084 156.232 98.4742 156.952C97.973 158.499 98.4133 159.469 99.8818 160.063C101.334 160.651 102.866 160.759 104.32 160.2C105.718 159.662 107.093 158.992 108.36 158.193C109.571 157.428 110.578 156.341 111.77 155.534C113.574 154.314 113.862 152.599 113.403 150.707C112.939 148.789 112.323 146.904 111.67 145.04C110.047 140.416 109.021 135.7 108.976 130.769C108.904 122.915 108.672 115.061 108.665 107.207C108.665 105.027 109.215 102.845 109.536 100.668C109.571 100.432 109.752 100.217 109.866 99.9929C109.923 100.21 110.023 100.425 110.026 100.642C110.042 101.861 110.035 103.083 110.035 104.306V110.487H110.012V110.496H110.014Z" fill="black"/>
<path d="M4.02609 102.86C3.89096 98.7053 5.34364 94.9787 7.26447 91.3673C9.09119 87.9347 11.1278 84.5796 12.5998 81.0035C14.0115 77.5755 14.8875 73.9289 15.8672 70.3434C18.1765 61.9004 21.9337 54.1205 26.8251 46.8202C30.1141 41.9134 33.782 37.291 37.5682 32.7462C39.1512 30.8465 41.0937 29.5393 43.5768 29.0832C44.25 28.9585 44.9619 29.0103 45.6545 29.0126C45.7775 29.0126 46.0116 29.189 45.9995 29.2548C45.9682 29.4476 45.8837 29.6803 45.7365 29.7956C45.5652 29.9296 45.2973 29.939 45.085 30.0283C41.212 31.6976 38.4248 34.4579 36.5667 38.1351C34.1826 42.8562 32.5562 47.8382 31.2989 52.9355C30.172 57.5038 29.0861 62.0838 28.1161 66.6874C26.4028 74.82 23.0317 82.2755 18.6712 89.3501C17.9521 90.5186 17.2137 91.6777 16.4656 92.8298C16.4005 92.9309 16.1616 93.0155 16.0602 92.9732C15.9637 92.9332 15.8672 92.7004 15.8985 92.5876C16.0457 92.0797 16.2219 91.5789 16.4149 91.0852C20.6596 80.1477 24.1345 68.9774 26.9578 57.6143C28.2222 52.5194 29.8535 47.5373 31.8371 42.6634C31.9384 42.4141 31.9022 42.1132 31.9288 41.8381C31.714 42.0427 31.4582 42.219 31.2917 42.4565C24.8149 51.7599 19.6388 61.6371 17.2137 72.7345C15.8262 79.092 13.4782 85.0804 9.97921 90.6408C8.22247 93.4316 6.8084 96.4035 6.24132 99.6645C5.77076 102.373 5.51739 105.122 6.78427 107.703C7.27654 108.705 7.98358 109.671 8.80403 110.442C9.93095 111.505 10.9517 111.338 11.97 110.179C12.1727 109.951 12.3151 109.662 12.5419 109.466C12.9184 109.14 13.2683 109.213 13.3841 109.713C13.7533 111.303 12.6384 112.784 10.9758 112.97C9.46281 113.139 8.22006 112.589 7.16553 111.592C5.23747 109.765 4.25292 107.501 4.0285 104.915C3.97059 104.235 4.01885 103.546 4.01885 102.862H4.02609V102.86Z" fill="black"/>
<path d="M60.8184 165.426C65.9964 165.508 70.8107 163.985 75.6036 162.347C76.3715 162.085 77.1988 161.997 78 161.83C77.3676 162.304 76.7899 162.885 76.0933 163.23C73.83 164.349 71.5715 165.497 69.2249 166.42C65.5328 167.872 61.7028 168.231 57.7111 167.869C52.4261 167.39 47.1839 166.698 42.0558 165.376C38.4992 164.46 34.9925 163.329 31.5143 162.144C28.4998 161.117 25.8323 159.466 23.6665 157.091C22.3874 155.688 21.5387 154.116 21.5767 152.161C21.5838 151.783 21.6908 151.219 21.4911 151.058C20.6329 150.369 21.0751 149.828 21.4959 149.16C24.268 144.763 26.9283 140.299 29.7812 135.956C32.3536 132.042 34.4314 127.9 36.2858 123.615C39.8614 115.353 43.6867 107.195 47.1506 98.8889C49.6754 92.8326 52.0695 86.7291 55.0009 80.8522C55.172 80.5099 55.3099 80.1486 55.5215 79.8346C55.9946 79.1333 56.0802 78.0638 57.2428 78C57.0145 78.6965 56.8505 79.4214 56.5438 80.0825C52.8731 87.9805 50.3577 96.32 47.1411 104.39C44.1218 111.97 40.9622 119.497 37.9215 127.069C35.0638 134.186 30.725 140.341 25.6564 146.041C25.0477 146.726 24.4891 147.455 23.9018 148.159C21.9642 150.487 22.4635 152.558 23.607 154.253C24.2775 155.247 25.1642 156.146 26.0986 156.909C27.9553 158.425 30.1307 159.419 32.4059 160.149C39.8733 162.536 47.4834 164.257 55.317 164.923C57.15 165.079 58.9806 165.258 60.8136 165.428H60.8184V165.426Z" fill="black"/>
<path d="M6.25883 128C5.70199 127.779 4.71975 127.535 3.9072 127.025C2.90584 126.4 3.19741 125.174 3.03967 124.225C2.78635 122.717 3.77336 121.395 5.22402 120.866C6.11305 120.542 6.92083 120.991 7.04988 121.961C7.08812 122.241 7.0451 122.783 6.407 122.471C6.12261 122.332 5.61357 122.128 5.50124 122.241C4.97547 122.769 4.39712 123.337 4.13184 124.005C3.79487 124.852 4.80101 126.161 5.72828 126.053C6.60297 125.952 7.53741 125.635 8.26871 125.153C11.3732 123.105 13.5718 120.232 14.9699 116.897C16.2867 113.756 17.4267 110.505 18.2177 107.203C20.1846 98.9958 22.725 90.9884 26.0302 83.2089C28.8049 76.6813 30.5375 69.8695 31.8281 62.9191C33.6276 53.2417 36.7393 43.9964 41.9635 35.5357C42.9171 33.9901 44.1024 32.5785 45.2209 31.1339C45.338 30.9836 45.7323 31.0399 46 31C45.9044 31.1856 45.8327 31.3876 45.7132 31.5543C40.3958 38.8899 37.1384 47.1111 35.0902 55.8137C34.053 60.2297 33.2978 64.709 32.4805 69.1719C31.5604 74.1868 30.0882 79.0396 28.1835 83.7656C24.8257 92.0948 22.2614 100.654 20.2635 109.392C19.3123 113.55 17.9692 117.604 15.4813 121.148C14.3055 122.823 12.9027 124.364 11.464 125.832C10.2021 127.119 8.54833 127.786 6.26361 128H6.25883Z" fill="black"/>
<path d="M73.9509 56.453C73.9205 57.0027 73.9111 57.312 73.8877 57.619C73.8338 58.2971 74.1149 58.6208 74.8037 58.5613C75.106 58.5351 75.4129 58.5161 75.7128 58.5541C76.7483 58.6826 77.0623 59.0467 76.7343 60.0675C76.4953 60.8147 76.6241 61.1479 77.1583 61.7523C78.3063 63.0491 78.2314 64.5245 77.2286 65.9689C76.7061 66.7232 76.09 67.4109 75.5675 68.1652C74.8834 69.1551 73.9673 69.7524 72.8474 70.1236C66.592 72.201 60.4654 74.6138 54.5613 77.5859C52.8487 78.4473 51.1079 79.0993 49.1352 78.9875C45.8248 78.7995 44.1871 76.4651 45.3984 73.3122C45.9958 71.7536 46.8697 70.2806 47.774 68.8719C49.1868 66.6732 49.8896 64.3436 49.7327 61.7071C49.5921 59.3323 49.5382 56.9622 50.1591 54.6041C50.6792 52.6338 51.5133 50.9086 52.762 49.3024C54.8518 46.6111 57.5438 44.6194 60.0975 42.4683C61.693 41.1238 62.9465 39.6913 62.3022 37.3712C62.2741 37.2689 62.3842 37.1237 62.431 37C62.5575 37.069 62.7731 37.1166 62.7965 37.2118C62.9675 37.9328 63.3541 38.7323 63.1854 39.3748C62.8973 40.4551 62.335 41.495 61.7235 42.4421C61.2783 43.1345 60.5989 43.6866 59.978 44.2482C56.2482 47.62 53.9006 51.7105 52.8159 56.7409C51.867 61.136 50.3488 65.4049 48.4652 69.5144C47.9263 70.6923 47.4062 71.9154 47.1297 73.1742C46.5464 75.8274 47.8748 77.1457 50.5128 76.5936C51.464 76.3938 52.4223 76.0797 53.2868 75.6371C57.8905 73.2789 62.7028 71.4585 67.5736 69.7809C69.216 69.2146 70.9286 68.86 72.5639 68.2794C73.3863 67.9867 74.1594 67.4728 74.867 66.9374C75.5207 66.4424 75.8932 65.7737 75.0521 65.0527C74.9982 65.0051 74.9256 64.9171 74.9373 64.8624C75.0638 64.1652 75.4691 63.3799 75.2747 62.7969C75.0497 62.1163 74.3094 61.6285 74.7592 60.7433C74.8974 60.4697 75.2981 60.0128 74.5952 59.9248C74.0962 59.8629 73.3886 59.7487 73.4144 60.5649C73.473 62.2996 72.3437 63.3513 71.4042 64.5435C70.2773 65.9736 68.8482 66.9064 67.1402 67.4537C66.278 67.7298 65.4463 68.1105 64.5841 68.3913C64.0851 68.5531 63.5556 68.6078 63.0378 68.7125C63.476 68.3199 63.8696 67.8487 64.3639 67.5513C65.2729 67.004 66.2007 66.4258 67.1941 66.1021C69.5557 65.3335 71.0481 63.5179 72.0298 61.4858C72.9458 59.5869 73.6909 57.3287 71.9642 55.3132C71.6432 54.9372 71.2098 54.5041 70.767 54.4232C68.9911 54.0924 67.2339 53.8212 65.3737 54.1757C62.5857 54.7064 59.7859 54.6017 57.2463 53.0288C57.0424 52.9027 56.9347 52.6195 56.7824 52.4101C56.9815 52.4291 57.1971 52.4006 57.3775 52.472C59.8304 53.4238 62.2741 53.7141 64.9145 53.1263C66.5779 52.7575 68.3819 53.0407 70.1203 53.0312C70.3921 53.0312 70.6615 53.0169 70.9333 53.0097C70.7974 52.7408 70.706 52.4363 70.5186 52.2126C69.3964 50.8634 68.2203 49.5617 67.1355 48.1864C66.7208 47.6605 66.4865 46.9823 66.1984 46.3612C66.1492 46.2565 66.2523 46.0804 66.2827 45.9377C66.3999 45.9829 66.5521 45.9972 66.6318 46.0804C68.4194 47.9532 70.2539 49.783 71.9595 51.7295C73.1731 53.1144 74.2368 54.6493 73.9486 56.453H73.9509Z" fill="black"/>
<path d="M72.8911 94.7976C72.7227 98.5438 72.3977 102.203 72.4404 105.859C72.4808 109.43 72.8864 112.997 73.152 116.566C73.311 118.691 73.5221 120.811 73.6834 122.935C74.1934 129.62 76.0459 135.974 78.6267 142.119C79.9242 145.204 81.5087 148.171 82.9414 151.202C83.0481 151.426 82.9746 151.733 82.9841 152C82.7208 151.906 82.3887 151.884 82.2013 151.71C78.055 147.824 74.8599 143.339 73.2445 137.825C71.4133 131.572 70.372 125.211 70.3127 118.686C70.2771 114.645 69.9593 110.604 70.0044 106.565C70.0376 103.678 70.5215 100.8 70.6946 97.9112C70.8725 94.9416 70.9461 91.9627 71.0125 88.9884C71.1026 84.8693 71.1477 80.7526 71.1927 76.6335C71.1975 76.2605 71.0362 75.8852 71.0196 75.5099C71.0125 75.3446 71.1738 75.17 71.2592 75C71.4039 75.1605 71.6505 75.3045 71.679 75.4839C71.8735 76.6878 72.106 77.894 72.1676 79.1097C72.4404 84.3642 72.6563 89.621 72.8911 94.8V94.7976Z" fill="black"/>
<path d="M92.1116 64C92.8163 67.3553 93.0512 70.7536 92.9909 74.1905C92.9265 77.9151 92.9203 81.6419 92.8454 85.3665C92.835 85.9148 92.5772 86.4563 92.4359 87C92.3299 86.5084 92.1511 86.0235 92.1282 85.5274C91.8351 79.5554 91.5711 73.5811 91.2863 67.6068C91.2488 66.8093 91.2114 66.0005 91.0534 65.2257C90.8206 64.0884 91.3777 63.9751 92.1615 64.0566L92.1116 64.0023V64Z" fill="black"/>
<path d="M55.1081 71.9975C52.6267 72.0246 51.7699 71.224 52.0513 69.2397C52.1907 68.2525 52.5582 67.2112 53.1159 66.3787C55.0321 63.5226 57.0573 60.7377 58.3221 57.5231C58.4007 57.3217 58.6263 57.1719 58.7835 57C58.8392 57.2235 58.9964 57.4789 58.933 57.6631C58.3906 59.2323 57.8989 60.8286 57.2145 62.3389C56.3932 64.1488 55.3312 65.8556 54.4973 67.6606C54.1551 68.3998 53.7369 69.5 54.0588 70.0452C54.5378 70.8556 55.6582 70.3669 56.5276 70.1631C58.1903 69.7775 59.8632 69.4337 61.5362 69.0874C61.6781 69.058 61.8454 69.1464 62 69.1808C61.929 69.2839 61.8809 69.4386 61.782 69.4828C59.4906 70.5069 57.2652 71.7078 55.1056 72H55.1081V71.9975Z" fill="black"/>
<path d="M74.1839 72.9996C74.1839 72.9996 73.9816 72.7931 74.0014 72.6158C74.0211 72.4408 74.2382 72.2416 74.4182 72.1396C77.815 70.1936 80.1634 67.2904 82.127 64.0251C82.5291 63.3546 82.9805 62.7084 83.4591 62.0864C83.7403 61.7196 84.1079 61.4086 84.4606 61.1025C84.5617 61.015 84.764 60.9786 84.8923 61.0126C84.9589 61.032 84.9811 61.2556 84.9984 61.3892C85.0082 61.4596 84.9712 61.5447 84.9392 61.6127C83.5183 64.6617 82.0801 67.7034 79.8033 70.2519C78.3429 71.8869 75.96 73.0652 74.1839 72.9972V72.9996Z" fill="black"/>
<path d="M83 21.5782C83.4657 19.6596 84.2794 17.7611 85.6593 16.1565C85.7745 16.0234 86.1814 15.9505 86.2696 16.0384C86.4632 16.2343 86.7059 16.611 86.6397 16.8119C86.2353 18.0298 85.7034 19.2026 85.3015 20.4205C84.7377 22.1281 84.7745 22.1332 86.3603 22.9393C86.5956 23.0573 86.7868 23.2632 87 23.4289C86.7525 23.5972 86.5221 23.8634 86.2524 23.9186C84.4387 24.2953 83.0441 23.3385 83.0025 21.5782H83Z" fill="black"/>
<path d="M65.4503 28.177C65.9539 26.9756 65.4839 25.8507 65.0173 24.7072C64.9484 24.5356 65.1039 24.2399 65.1552 24C65.3566 24.0662 65.6641 24.06 65.7436 24.213C66.1766 25.0484 66.6307 25.8879 66.9241 26.7936C67.1609 27.5236 66.8092 28.2204 66.3445 28.7333C66.1748 28.9194 65.8532 28.9173 65.6005 29C65.5563 28.7622 65.5139 28.5244 65.4503 28.177Z" fill="black"/>
<path d="M62.9976 24.4588C62.9763 26.3018 61.345 28.059 59.6615 27.9985C59.4363 27.9909 59.2205 27.6859 59 27.517C59.147 27.3783 59.2774 27.159 59.4481 27.1136C60.8897 26.7253 61.7457 25.6765 62.3693 24.3202C62.4428 24.1614 62.706 24.1034 62.8814 24C62.9218 24.1538 62.9621 24.3051 63 24.4588H62.9976Z" fill="black"/>
<path d="M57.9859 66.6295C57.9859 67.1243 58.01 67.3344 57.9778 67.5359C57.9517 67.6979 57.8573 67.8467 57.795 68C57.6824 67.8424 57.5056 67.7023 57.4654 67.5271C57.3468 66.9973 57.2403 66.4565 57.2102 65.9158C57.1921 65.6027 56.6656 65.0882 57.3509 65.0006C57.5177 64.9787 57.8151 65.5501 57.9356 65.896C58.0421 66.2026 57.9839 66.5747 57.9859 66.6295Z" fill="black"/>
</svg>
