<svg width="145" height="23" viewBox="0 0 145 23" fill="none" xmlns="http://www.w3.org/2000/svg">
<path d="M1.12 7.1H2.86L3.61 22.46H0.37L1.12 7.1ZM3.88 2.66C3.88 3.4 3.7 3.92 3.34 4.22C2.98 4.52 2.54 4.67 2.02 4.67C1.52 4.67 1.08 4.52 0.7 4.22C0.34 3.92 0.16 3.4 0.16 2.66C0.16 1.94 0.34 1.42 0.7 1.1C1.08 0.78 1.52 0.62 2.02 0.62C2.54 0.62 2.98 0.78 3.34 1.1C3.7 1.42 3.88 1.94 3.88 2.66ZM24.6266 2.99L24.3566 4.13L24.1466 5L23.6366 6.95C23.3366 7.95 22.9866 8.93 22.5866 9.89C22.2066 10.83 21.6766 12.06 20.9966 13.58L20.3066 15.2C20.0866 15.74 19.6366 16.26 18.9566 16.76C18.5966 17.06 18.2066 17.21 17.7866 17.21C17.1466 17.21 16.5866 16.89 16.1066 16.25C15.7666 15.83 15.4866 15.39 15.2666 14.93C15.0466 14.45 14.8566 14.01 14.6966 13.61C14.5566 13.19 14.4666 12.92 14.4266 12.8C14.2866 12.44 14.1666 12.09 14.0666 11.75C13.8066 10.97 13.5966 10.38 13.4366 9.98C13.2766 9.58 13.0566 9.18 12.7766 8.78C12.5566 8.46 12.3666 8.08 12.2066 7.64C12.1866 7.58 12.1666 7.51 12.1466 7.43C12.1466 7.33 12.1366 7.25 12.1166 7.19C11.9766 7.31 11.8866 7.41 11.8466 7.49C11.8266 7.57 11.7966 7.67 11.7566 7.79C11.7366 7.91 11.7166 8.01 11.6966 8.09C10.9766 10.41 10.4466 12.55 10.1066 14.51L9.77664 15.95L9.74664 16.01C9.62664 16.59 9.52664 16.92 9.44664 17C9.40664 17.1 9.24664 17.18 8.96664 17.24C8.68664 17.32 8.38664 17.36 8.06664 17.36C7.74664 17.36 7.47664 17.32 7.25664 17.24C7.05664 17.18 6.95664 17.07 6.95664 16.91C7.47664 14.21 7.99664 11.81 8.51664 9.71C9.03664 7.61 9.64664 5.57 10.3466 3.59C10.4866 3.17 10.7266 2.85 11.0666 2.63C11.4266 2.39 11.8166 2.27 12.2366 2.27C12.8566 2.27 13.3866 2.49 13.8266 2.93L13.8566 2.96C14.3966 3.5 14.8166 4.15 15.1166 4.91C15.2766 5.33 15.4266 5.72 15.5666 6.08C15.7266 6.44 15.8666 6.76 15.9866 7.04C16.0466 7.14 16.0866 7.24 16.1066 7.34C16.1466 7.42 16.1866 7.5 16.2266 7.58C16.5066 8.2 16.8566 9.02 17.2766 10.04C17.4766 10.54 17.6666 11.01 17.8466 11.45C18.0266 11.87 18.1566 12.12 18.2366 12.2L18.2966 12.29L18.5366 11.6C19.0166 10.62 19.3166 9.95 19.4366 9.59L19.8266 8.54C20.0466 7.94 20.1766 7.59 20.2166 7.49L20.7566 6.05C21.1966 4.85 21.5366 3.95 21.7766 3.35L21.7466 3.5L21.7766 3.38C21.8966 2.94 22.0466 2.56 22.2266 2.24C22.3466 2.02 22.5366 1.86 22.7966 1.76C23.0566 1.64 23.3266 1.6 23.6066 1.64C23.9466 1.72 24.2366 1.92 24.4766 2.24L24.6266 2.99ZM33.8191 7.76C33.9191 8.32 33.9691 8.83 33.9691 9.29C33.9691 10.67 33.5991 12.1 32.8591 13.58C32.7791 13.78 32.6391 13.97 32.4391 14.15C32.2591 14.31 32.0791 14.43 31.8991 14.51C31.3191 14.77 30.7391 14.9 30.1591 14.9C29.3591 14.9 28.6491 14.66 28.0291 14.18C27.4291 13.7 27.0091 13.04 26.7691 12.2C26.6091 11.72 26.5091 11.01 26.4691 10.07L26.4391 9.47L26.4991 8.57C26.5991 7.53 26.6691 6.88 26.7091 6.62C26.7891 6.18 26.9291 5.75 27.1291 5.33C27.3291 4.89 27.4491 4.63 27.4891 4.55C27.6091 4.31 27.8091 4.12 28.0891 3.98C28.3891 3.82 28.6991 3.74 29.0191 3.74C29.2991 3.74 29.5391 3.8 29.7391 3.92L30.9691 4.76C31.3491 5 31.6791 5.23 31.9591 5.45C32.2391 5.65 32.4891 5.82 32.7091 5.96C33.3291 6.38 33.6991 6.98 33.8191 7.76ZM30.0991 12.89C30.5791 11.71 30.8191 10.59 30.8191 9.53C30.8191 8.51 30.5891 7.51 30.1291 6.53C30.1291 6.49 30.0891 6.47 30.0091 6.47C29.9491 6.45 29.8591 6.45 29.7391 6.47H29.7091V6.44V6.47C29.6891 6.49 29.6791 6.5 29.6791 6.5V6.53C29.4591 6.87 29.3191 7.23 29.2591 7.61C29.2191 7.97 29.1891 8.5 29.1691 9.2C29.1691 9.62 29.1591 9.94 29.1391 10.16C29.2191 11.02 29.3291 11.8 29.4691 12.5C29.4691 12.66 29.5491 12.81 29.7091 12.95C29.8891 13.07 30.0191 13.05 30.0991 12.89ZM29.7091 6.47L29.6791 6.5L29.7091 6.47ZM37.1055 17.39C36.9455 17.39 36.6855 17.3 36.3255 17.12L36.1155 17.03L35.9655 16.94C35.8255 16.76 35.7555 16.57 35.7555 16.37C35.7555 16.25 35.7755 16.16 35.8155 16.1L35.8455 16.04C36.0855 15.78 36.2855 15.61 36.4455 15.53C36.6655 15.43 36.8955 15.29 37.1355 15.11C37.3755 14.93 37.5455 14.8 37.6455 14.72L37.9455 14.48C38.6255 13.92 38.9655 13.28 38.9655 12.56C38.9655 12.32 38.9355 12.08 38.8755 11.84C38.8355 11.76 38.7955 11.64 38.7555 11.48C38.6555 11.08 38.5355 10.72 38.3955 10.4C38.2755 10.08 38.0755 9.62 37.7955 9.02L37.2255 7.79C37.0055 7.29 36.8955 6.8 36.8955 6.32C36.8955 5.9 36.9955 5.44 37.1955 4.94C37.3955 4.42 37.7455 3.74 38.2455 2.9C38.4255 2.56 38.7055 2.28 39.0855 2.06C39.4655 1.84 39.8855 1.73 40.3455 1.73C41.1055 1.73 41.8355 2.02 42.5355 2.6C42.7555 2.78 42.8255 3.1 42.7455 3.56C42.7055 3.82 42.5455 4.01 42.2655 4.13C42.1055 4.21 41.9455 4.25 41.7855 4.25H41.3355C41.0155 4.25 40.7855 4.32 40.6455 4.46C40.4055 4.8 40.2555 5.21 40.1955 5.69C40.1555 6.13 40.1355 6.44 40.1355 6.62C40.1355 7.58 40.3555 8.4 40.7955 9.08C41.0555 9.5 41.2655 9.96 41.4255 10.46C41.5855 10.94 41.7455 11.52 41.9055 12.2C41.9655 12.34 41.9955 12.54 41.9955 12.8C42.0155 12.86 42.0255 12.98 42.0255 13.16C41.9055 13.48 41.8355 13.66 41.8155 13.7C41.5755 14.3 41.3755 14.72 41.2155 14.96C40.7355 15.66 40.1455 16.22 39.4455 16.64C38.7655 17.06 38.0155 17.31 37.1955 17.39H37.1055ZM57.3897 15.62C54.8497 15.28 52.9097 14.19 51.5697 12.35C51.1097 11.71 50.8097 10.98 50.6697 10.16C50.6097 9.76 50.5797 9.37 50.5797 8.99C50.5797 7.29 51.1697 5.64 52.3497 4.04C53.2097 2.84 54.4797 2.26 56.1597 2.3C56.7797 2.42 57.1897 2.51 57.3897 2.57C57.5097 2.59 57.7297 2.72 58.0497 2.96C58.0897 3 58.1197 3.02 58.1397 3.02L58.1697 3.05C58.4697 3.35 58.6197 3.72 58.6197 4.16C58.6197 4.44 58.5397 4.71 58.3797 4.97C58.0997 5.31 57.7597 5.48 57.3597 5.48C57.1797 5.48 57.0397 5.46 56.9397 5.42C56.6597 5.36 56.3997 5.26 56.1597 5.12C56.0397 5.08 55.9697 5.06 55.9497 5.06C55.8897 5.06 55.8197 5.1 55.7397 5.18C55.2197 5.64 54.8397 6.17 54.5997 6.77C54.3597 7.37 54.1597 8.12 53.9997 9.02C53.9997 9.08 53.9897 9.12 53.9697 9.14C53.9697 9.16 53.9697 9.19 53.9697 9.23L54.0297 9.53L54.0897 9.65C54.3897 10.95 55.0397 11.96 56.0397 12.68C56.5797 13.1 57.0397 13.31 57.4197 13.31C57.6797 13.31 57.9297 13.23 58.1697 13.07C58.4097 12.93 58.6997 12.86 59.0397 12.86C59.2397 12.86 59.4397 12.91 59.6397 13.01C59.8397 13.11 59.9897 13.24 60.0897 13.4C60.1697 13.5 60.2097 13.67 60.2097 13.91C60.2097 14.13 60.1697 14.31 60.0897 14.45C59.9697 14.69 59.7497 14.92 59.4297 15.14C58.8297 15.56 58.1497 15.72 57.3897 15.62ZM74.8455 8.03C74.9855 8.05 75.0955 8.17 75.1755 8.39C75.2755 8.61 75.3255 8.84 75.3255 9.08C75.3255 9.38 75.2455 9.58 75.0855 9.68L74.8755 9.77C74.8155 9.83 74.7055 9.9 74.5455 9.98C74.2855 10.12 74.1555 10.32 74.1555 10.58C74.2755 11.72 74.4755 12.76 74.7555 13.7C74.8155 13.88 74.8655 14.1 74.9055 14.36C74.9455 14.6 74.9655 14.81 74.9655 14.99C74.9655 15.23 74.9755 15.38 74.9955 15.44C75.0555 15.74 74.9355 16.01 74.6355 16.25C74.3555 16.47 74.0255 16.58 73.6455 16.58C73.0455 16.58 72.6355 16.3 72.4155 15.74L72.3555 15.59C72.2755 15.37 72.2155 15.18 72.1755 15.02C72.1355 14.84 72.1055 14.7 72.0855 14.6C72.0255 14.34 71.9455 14.03 71.8455 13.67L71.5755 12.71L71.3055 11.72C71.1455 11.18 70.8155 10.91 70.3155 10.91C69.9755 10.91 69.4055 11.05 68.6055 11.33C67.9655 11.55 67.4055 11.72 66.9255 11.84C66.6655 11.9 66.4555 12.11 66.2955 12.47C65.6155 14.07 64.9855 15.28 64.4055 16.1C64.3055 16.24 64.1055 16.46 63.8055 16.76L63.6555 16.85L63.6255 16.88C63.5055 17 63.3755 17.06 63.2355 17.06C63.0355 17.06 62.8255 16.97 62.6055 16.79C62.4055 16.59 62.2455 16.37 62.1255 16.13C62.0255 15.87 61.9955 15.67 62.0355 15.53C62.0555 15.51 62.0655 15.49 62.0655 15.47C62.0655 15.43 62.0755 15.4 62.0955 15.38C62.1755 15.02 62.2755 14.72 62.3955 14.48C63.1155 12.84 63.9255 11.14 64.8255 9.38C66.0455 6.88 66.9455 4.84 67.5255 3.26C67.6255 3 67.8755 2.7 68.2755 2.36C68.4955 2.2 68.8055 2.12 69.2055 2.12C69.6855 2.12 70.1555 2.23 70.6155 2.45C71.0955 2.67 71.4055 2.94 71.5455 3.26L71.5155 3.23C72.3555 4.73 72.8755 6.12 73.0755 7.4C73.1155 7.6 73.1955 7.74 73.3155 7.82C73.4355 7.9 73.6555 7.94 73.9755 7.94C74.3555 7.94 74.6455 7.97 74.8455 8.03ZM70.0155 8.33L69.4155 6.14C68.7155 7.2 68.2455 8.23 68.0055 9.23L67.9755 9.35L69.4755 8.72C69.6555 8.64 69.7755 8.58 69.8355 8.54C69.8955 8.5 69.9455 8.45 69.9855 8.39L70.0155 8.33ZM78.4727 17.39C78.3127 17.39 78.0527 17.3 77.6927 17.12L77.4827 17.03L77.3327 16.94C77.1927 16.76 77.1227 16.57 77.1227 16.37C77.1227 16.25 77.1427 16.16 77.1827 16.1L77.2127 16.04C77.4527 15.78 77.6527 15.61 77.8127 15.53C78.0327 15.43 78.2627 15.29 78.5027 15.11C78.7427 14.93 78.9127 14.8 79.0127 14.72L79.3127 14.48C79.9927 13.92 80.3327 13.28 80.3327 12.56C80.3327 12.32 80.3027 12.08 80.2427 11.84C80.2027 11.76 80.1627 11.64 80.1227 11.48C80.0227 11.08 79.9027 10.72 79.7627 10.4C79.6427 10.08 79.4427 9.62 79.1627 9.02L78.5927 7.79C78.3727 7.29 78.2627 6.8 78.2627 6.32C78.2627 5.9 78.3627 5.44 78.5627 4.94C78.7627 4.42 79.1127 3.74 79.6127 2.9C79.7927 2.56 80.0727 2.28 80.4527 2.06C80.8327 1.84 81.2527 1.73 81.7127 1.73C82.4727 1.73 83.2027 2.02 83.9027 2.6C84.1227 2.78 84.1927 3.1 84.1127 3.56C84.0727 3.82 83.9127 4.01 83.6327 4.13C83.4727 4.21 83.3127 4.25 83.1527 4.25H82.7027C82.3827 4.25 82.1527 4.32 82.0127 4.46C81.7727 4.8 81.6227 5.21 81.5627 5.69C81.5227 6.13 81.5027 6.44 81.5027 6.62C81.5027 7.58 81.7227 8.4 82.1627 9.08C82.4227 9.5 82.6327 9.96 82.7927 10.46C82.9527 10.94 83.1127 11.52 83.2727 12.2C83.3327 12.34 83.3627 12.54 83.3627 12.8C83.3827 12.86 83.3927 12.98 83.3927 13.16C83.2727 13.48 83.2027 13.66 83.1827 13.7C82.9427 14.3 82.7427 14.72 82.5827 14.96C82.1027 15.66 81.5127 16.22 80.8127 16.64C80.1327 17.06 79.3827 17.31 78.5627 17.39H78.4727ZM98.781 8.03C98.921 8.05 99.031 8.17 99.111 8.39C99.211 8.61 99.261 8.84 99.261 9.08C99.261 9.38 99.181 9.58 99.021 9.68L98.811 9.77C98.751 9.83 98.641 9.9 98.481 9.98C98.221 10.12 98.091 10.32 98.091 10.58C98.211 11.72 98.411 12.76 98.691 13.7C98.751 13.88 98.801 14.1 98.841 14.36C98.881 14.6 98.901 14.81 98.901 14.99C98.901 15.23 98.911 15.38 98.931 15.44C98.991 15.74 98.871 16.01 98.571 16.25C98.291 16.47 97.961 16.58 97.581 16.58C96.981 16.58 96.571 16.3 96.351 15.74L96.291 15.59C96.211 15.37 96.151 15.18 96.111 15.02C96.071 14.84 96.041 14.7 96.021 14.6C95.961 14.34 95.881 14.03 95.781 13.67L95.511 12.71L95.241 11.72C95.081 11.18 94.751 10.91 94.251 10.91C93.911 10.91 93.341 11.05 92.541 11.33C91.901 11.55 91.341 11.72 90.861 11.84C90.601 11.9 90.391 12.11 90.231 12.47C89.551 14.07 88.921 15.28 88.341 16.1C88.241 16.24 88.041 16.46 87.741 16.76L87.591 16.85L87.561 16.88C87.441 17 87.311 17.06 87.171 17.06C86.971 17.06 86.761 16.97 86.541 16.79C86.341 16.59 86.181 16.37 86.061 16.13C85.961 15.87 85.931 15.67 85.971 15.53C85.991 15.51 86.001 15.49 86.001 15.47C86.001 15.43 86.011 15.4 86.031 15.38C86.111 15.02 86.211 14.72 86.331 14.48C87.051 12.84 87.861 11.14 88.761 9.38C89.981 6.88 90.881 4.84 91.461 3.26C91.561 3 91.811 2.7 92.211 2.36C92.431 2.2 92.741 2.12 93.141 2.12C93.621 2.12 94.091 2.23 94.551 2.45C95.031 2.67 95.341 2.94 95.481 3.26L95.451 3.23C96.291 4.73 96.811 6.12 97.011 7.4C97.051 7.6 97.131 7.74 97.251 7.82C97.371 7.9 97.591 7.94 97.911 7.94C98.291 7.94 98.581 7.97 98.781 8.03ZM93.951 8.33L93.351 6.14C92.651 7.2 92.181 8.23 91.941 9.23L91.911 9.35L93.411 8.72C93.591 8.64 93.711 8.58 93.771 8.54C93.831 8.5 93.881 8.45 93.921 8.39L93.951 8.33ZM107.178 9.23L106.758 8.45C106.698 8.59 106.618 8.77 106.518 8.99C106.418 9.21 106.298 9.5 106.158 9.86C106.038 10.22 105.878 10.74 105.678 11.42C105.458 12.26 105.058 13.38 104.478 14.78C104.378 14.96 104.298 15.12 104.238 15.26C104.198 15.4 104.158 15.51 104.118 15.59L103.788 16.34C103.688 16.62 103.548 16.83 103.368 16.97C103.188 17.09 102.908 17.22 102.528 17.36C102.288 17.36 102.028 17.3 101.748 17.18C101.488 17.08 101.328 16.92 101.268 16.7L101.208 16.52C101.108 16.22 101.058 15.98 101.058 15.8C101.058 15.06 101.128 14.51 101.268 14.15C101.568 13.39 101.938 12.35 102.378 11.03C102.418 10.91 102.558 10.51 102.798 9.83L103.128 8.87C103.528 7.63 103.918 6.51 104.298 5.51C104.338 5.45 104.428 5.28 104.568 5C104.708 4.7 104.808 4.52 104.868 4.46C105.068 4.1 105.358 3.89 105.738 3.83C106.058 3.79 106.288 3.77 106.428 3.77C107.088 3.77 107.648 3.94 108.108 4.28C108.568 4.62 108.898 5.11 109.098 5.75L109.368 6.53C109.528 7.01 109.658 7.37 109.758 7.61C109.838 7.75 109.878 7.84 109.878 7.88C109.918 8.12 109.958 8.32 109.998 8.48C110.058 8.62 110.118 8.69 110.178 8.69C110.258 8.69 110.388 8.59 110.568 8.39C111.148 7.49 111.758 6.49 112.398 5.39L112.608 5.06C112.728 4.82 112.828 4.64 112.908 4.52C113.268 3.88 113.528 3.45 113.688 3.23C113.828 2.97 114.098 2.68 114.498 2.36C114.838 2.12 115.158 2 115.458 2C115.938 2 116.418 2.18 116.898 2.54C117.378 2.88 117.658 3.28 117.738 3.74C118.058 5.36 118.328 6.87 118.548 8.27C118.648 8.87 118.808 9.93 119.028 11.45C119.168 12.71 119.348 13.95 119.568 15.17C119.628 15.59 119.448 15.96 119.028 16.28C118.828 16.4 118.608 16.46 118.368 16.46C118.188 16.46 118.018 16.41 117.858 16.31C117.398 16.05 117.088 15.74 116.928 15.38C116.748 15 116.588 14.56 116.448 14.06C116.328 13.56 116.228 13.09 116.148 12.65C116.008 12.17 115.908 11.68 115.848 11.18C115.628 10.06 115.438 9.22 115.278 8.66C115.138 8.08 114.908 7.5 114.588 6.92C114.348 7.4 114.218 7.68 114.198 7.76C114.178 7.8 114.068 8 113.868 8.36C113.528 8.96 112.998 9.77 112.278 10.79C111.778 11.51 111.038 11.87 110.058 11.87C109.858 11.87 109.708 11.86 109.608 11.84C108.888 11.68 108.398 11.37 108.138 10.91L107.478 9.77L107.178 9.23ZM128.741 7.76C128.841 8.32 128.891 8.83 128.891 9.29C128.891 10.67 128.521 12.1 127.781 13.58C127.701 13.78 127.561 13.97 127.361 14.15C127.181 14.31 127.001 14.43 126.821 14.51C126.241 14.77 125.661 14.9 125.081 14.9C124.281 14.9 123.571 14.66 122.951 14.18C122.351 13.7 121.931 13.04 121.691 12.2C121.531 11.72 121.431 11.01 121.391 10.07L121.361 9.47L121.421 8.57C121.521 7.53 121.591 6.88 121.631 6.62C121.711 6.18 121.851 5.75 122.051 5.33C122.251 4.89 122.371 4.63 122.411 4.55C122.531 4.31 122.731 4.12 123.011 3.98C123.311 3.82 123.621 3.74 123.941 3.74C124.221 3.74 124.461 3.8 124.661 3.92L125.891 4.76C126.271 5 126.601 5.23 126.881 5.45C127.161 5.65 127.411 5.82 127.631 5.96C128.251 6.38 128.621 6.98 128.741 7.76ZM125.021 12.89C125.501 11.71 125.741 10.59 125.741 9.53C125.741 8.51 125.511 7.51 125.051 6.53C125.051 6.49 125.011 6.47 124.931 6.47C124.871 6.45 124.781 6.45 124.661 6.47H124.631V6.44V6.47C124.611 6.49 124.601 6.5 124.601 6.5V6.53C124.381 6.87 124.241 7.23 124.181 7.61C124.141 7.97 124.111 8.5 124.091 9.2C124.091 9.62 124.081 9.94 124.061 10.16C124.141 11.02 124.251 11.8 124.391 12.5C124.391 12.66 124.471 12.81 124.631 12.95C124.811 13.07 124.941 13.05 125.021 12.89ZM124.631 6.47L124.601 6.5L124.631 6.47ZM132.027 17.39C131.867 17.39 131.607 17.3 131.247 17.12L131.037 17.03L130.887 16.94C130.747 16.76 130.677 16.57 130.677 16.37C130.677 16.25 130.697 16.16 130.737 16.1L130.767 16.04C131.007 15.78 131.207 15.61 131.367 15.53C131.587 15.43 131.817 15.29 132.057 15.11C132.297 14.93 132.467 14.8 132.567 14.72L132.867 14.48C133.547 13.92 133.887 13.28 133.887 12.56C133.887 12.32 133.857 12.08 133.797 11.84C133.757 11.76 133.717 11.64 133.677 11.48C133.577 11.08 133.457 10.72 133.317 10.4C133.197 10.08 132.997 9.62 132.717 9.02L132.147 7.79C131.927 7.29 131.817 6.8 131.817 6.32C131.817 5.9 131.917 5.44 132.117 4.94C132.317 4.42 132.667 3.74 133.167 2.9C133.347 2.56 133.627 2.28 134.007 2.06C134.387 1.84 134.807 1.73 135.267 1.73C136.027 1.73 136.757 2.02 137.457 2.6C137.677 2.78 137.747 3.1 137.667 3.56C137.627 3.82 137.467 4.01 137.187 4.13C137.027 4.21 136.867 4.25 136.707 4.25H136.257C135.937 4.25 135.707 4.32 135.567 4.46C135.327 4.8 135.177 5.21 135.117 5.69C135.077 6.13 135.057 6.44 135.057 6.62C135.057 7.58 135.277 8.4 135.717 9.08C135.977 9.5 136.187 9.96 136.347 10.46C136.507 10.94 136.667 11.52 136.827 12.2C136.887 12.34 136.917 12.54 136.917 12.8C136.937 12.86 136.947 12.98 136.947 13.16C136.827 13.48 136.757 13.66 136.737 13.7C136.497 14.3 136.297 14.72 136.137 14.96C135.657 15.66 135.067 16.22 134.367 16.64C133.687 17.06 132.937 17.31 132.117 17.39H132.027ZM142.046 11.93C141.846 11.93 141.626 11.87 141.386 11.75C141.146 11.61 140.966 11.47 140.846 11.33C140.606 10.99 140.436 10.57 140.336 10.07C140.176 9.03 140.096 7.87 140.096 6.59C140.096 5.31 140.206 3.68 140.426 1.7C140.446 1.62 140.526 1.54 140.666 1.46C140.806 1.36 140.926 1.31 141.026 1.31C141.686 1.39 142.086 1.52 142.226 1.7C142.566 2.1 142.736 2.51 142.736 2.93C142.756 3.43 142.766 4.18 142.766 5.18V7.46H142.676V11.33C142.676 11.49 142.626 11.63 142.526 11.75C142.426 11.87 142.266 11.93 142.046 11.93ZM142.436 13.7C142.376 13.7 142.286 13.71 142.166 13.73C142.046 13.73 141.946 13.75 141.866 13.79C141.566 13.95 141.346 14.12 141.206 14.3C141.126 14.4 141.086 14.53 141.086 14.69C141.086 14.91 141.196 15.15 141.416 15.41C141.836 15.91 142.366 16.16 143.006 16.16C143.266 16.16 143.566 16.11 143.906 16.01C144.086 15.95 144.236 15.83 144.356 15.65C144.476 15.47 144.536 15.27 144.536 15.05C144.536 14.85 144.476 14.66 144.356 14.48C143.936 13.92 143.296 13.66 142.436 13.7Z" fill="#FE1111"/>
</svg>
