<svg width="90" height="18" viewBox="0 0 90 18" fill="none" xmlns="http://www.w3.org/2000/svg">
<path d="M1.316 16.524C1.092 16.5053 0.905333 16.412 0.756 16.244C0.625333 16.0573 0.56 15.852 0.56 15.628C0.56 15.46 0.597333 15.3293 0.672 15.236C0.821333 15.012 0.970667 14.8067 1.12 14.62C1.43733 14.2093 1.68933 13.8267 1.876 13.472C2.62267 11.96 3.388 10.28 4.172 8.432C4.24667 8.30133 4.284 8.13333 4.284 7.928C4.284 7.648 4.16267 7.43333 3.92 7.284C3.32267 6.892 3.024 6.39733 3.024 5.8C3.024 5.464 3.11733 5.08133 3.304 4.652C3.73333 3.68133 4.396 2.43067 5.292 0.899999C5.36667 0.787999 5.52533 0.694666 5.768 0.619999C6.02933 0.545332 6.26267 0.507999 6.468 0.507999C6.76667 0.507999 7.01867 0.610666 7.224 0.816C7.448 1.00267 7.59733 1.22667 7.672 1.488C7.784 1.89867 7.84 2.356 7.84 2.86C7.84 3.00933 7.82133 3.252 7.784 3.588C7.336 6.22 6.412 9.06667 5.012 12.128L4.704 12.772C4.62933 12.9213 4.424 13.3507 4.088 14.06C4.032 14.172 4.004 14.2933 4.004 14.424C4.004 14.648 4.06933 14.8533 4.2 15.04C4.34933 15.2267 4.52667 15.3387 4.732 15.376C5.516 15.544 6.11333 15.628 6.524 15.628C6.84133 15.628 7.15867 15.5813 7.476 15.488C7.812 15.376 8.25067 15.1987 8.792 14.956C8.88533 14.9187 9.044 14.8347 9.268 14.704C9.492 14.5547 9.70667 14.4613 9.912 14.424H9.968C10.08 14.424 10.192 14.4613 10.304 14.536C10.4347 14.6107 10.5373 14.6947 10.612 14.788C10.668 14.9 10.696 15.04 10.696 15.208C10.696 15.3387 10.6773 15.4413 10.64 15.516C10.528 15.7213 10.332 15.9173 10.052 16.104C9.79067 16.2907 9.53867 16.412 9.296 16.468C7.616 16.804 6.36533 16.972 5.544 16.972C4.984 16.972 4.13467 16.8973 2.996 16.748C2.92133 16.7293 2.36133 16.6547 1.316 16.524ZM12.5816 16.524C12.3576 16.5053 12.171 16.412 12.0216 16.244C11.891 16.0573 11.8256 15.852 11.8256 15.628C11.8256 15.46 11.863 15.3293 11.9376 15.236C12.087 15.012 12.2363 14.8067 12.3856 14.62C12.703 14.2093 12.955 13.8267 13.1416 13.472C13.8883 11.96 14.6536 10.28 15.4376 8.432C15.5123 8.30133 15.5496 8.13333 15.5496 7.928C15.5496 7.648 15.4283 7.43333 15.1856 7.284C14.5883 6.892 14.2896 6.39733 14.2896 5.8C14.2896 5.464 14.383 5.08133 14.5696 4.652C14.999 3.68133 15.6616 2.43067 16.5576 0.899999C16.6323 0.787999 16.791 0.694666 17.0336 0.619999C17.295 0.545332 17.5283 0.507999 17.7336 0.507999C18.0323 0.507999 18.2843 0.610666 18.4896 0.816C18.7136 1.00267 18.863 1.22667 18.9376 1.488C19.0496 1.89867 19.1056 2.356 19.1056 2.86C19.1056 3.00933 19.087 3.252 19.0496 3.588C18.6016 6.22 17.6776 9.06667 16.2776 12.128L15.9696 12.772C15.895 12.9213 15.6896 13.3507 15.3536 14.06C15.2976 14.172 15.2696 14.2933 15.2696 14.424C15.2696 14.648 15.335 14.8533 15.4656 15.04C15.615 15.2267 15.7923 15.3387 15.9976 15.376C16.7816 15.544 17.379 15.628 17.7896 15.628C18.107 15.628 18.4243 15.5813 18.7416 15.488C19.0776 15.376 19.5163 15.1987 20.0576 14.956C20.151 14.9187 20.3096 14.8347 20.5336 14.704C20.7576 14.5547 20.9723 14.4613 21.1776 14.424H21.2336C21.3456 14.424 21.4576 14.4613 21.5696 14.536C21.7003 14.6107 21.803 14.6947 21.8776 14.788C21.9336 14.9 21.9616 15.04 21.9616 15.208C21.9616 15.3387 21.943 15.4413 21.9056 15.516C21.7936 15.7213 21.5976 15.9173 21.3176 16.104C21.0563 16.2907 20.8043 16.412 20.5616 16.468C18.8816 16.804 17.631 16.972 16.8096 16.972C16.2496 16.972 15.4003 16.8973 14.2616 16.748C14.187 16.7293 13.627 16.6547 12.5816 16.524ZM24.2113 17.196C24.1553 17.1587 24.0433 17.084 23.8753 16.972C23.7073 16.8413 23.5766 16.7013 23.4833 16.552C23.4086 16.4027 23.3713 16.2907 23.3713 16.216C23.3713 16.0107 23.4739 15.768 23.6793 15.488C23.7353 15.3947 23.8099 15.32 23.9033 15.264C24.3886 14.872 24.8646 14.676 25.3313 14.676C25.6113 14.676 25.8539 14.7227 26.0593 14.816C26.2086 14.872 26.3206 15.012 26.3953 15.236C26.4886 15.46 26.5073 15.656 26.4513 15.824C26.2833 16.272 26.0033 16.6173 25.6113 16.86C25.2193 17.1027 24.7526 17.2147 24.2113 17.196ZM30.7604 17.364C29.9951 17.084 29.3791 16.7107 28.9124 16.244C28.4457 15.7773 28.1564 15.1707 28.0444 14.424C27.9884 14.0693 27.9324 13.4907 27.8764 12.688C28.0631 9.02933 29.2391 5.62267 31.4044 2.468C31.5724 2.22533 31.9084 1.88933 32.4124 1.46C32.9164 1.068 33.4764 0.871999 34.0924 0.871999C34.9324 0.871999 35.6511 1.17067 36.2484 1.768C37.2191 2.70133 37.7697 3.96133 37.9004 5.548C37.9377 6.108 37.9564 6.53733 37.9564 6.836C37.9564 10.42 36.6777 13.5747 34.1204 16.3C33.3551 17.1027 32.5431 17.504 31.6844 17.504C31.3484 17.504 31.0404 17.4573 30.7604 17.364ZM30.8724 15.488C31.4137 15.488 31.9177 15.3667 32.3844 15.124C32.7764 14.8067 33.1217 14.396 33.4204 13.892C34.2231 12.716 34.8297 11.512 35.2404 10.28C35.6511 9.02933 35.8564 7.66667 35.8564 6.192C35.8564 5.94933 35.8377 5.548 35.8004 4.988C35.8004 4.95067 35.7724 4.77333 35.7164 4.456C35.6604 4.13867 35.5577 3.80267 35.4084 3.448C35.3711 3.29867 35.2591 3.15867 35.0724 3.028C34.8857 2.87867 34.7084 2.804 34.5404 2.804C34.3911 2.804 34.2324 2.85067 34.0644 2.944C33.8964 3.01867 33.7751 3.10267 33.7004 3.196C32.6177 4.95067 31.7777 6.63067 31.1804 8.236C30.6017 9.84133 30.3124 11.4933 30.3124 13.192C30.3124 13.6587 30.3404 14.1347 30.3964 14.62C30.4151 14.788 30.4711 14.9747 30.5644 15.18C30.6764 15.3853 30.7791 15.488 30.8724 15.488ZM40.1793 17.364C40.086 17.364 39.974 17.308 39.8433 17.196C39.7313 17.084 39.6567 16.972 39.6193 16.86C39.5633 16.692 39.5353 16.4773 39.5353 16.216C39.5353 15.9733 39.526 15.768 39.5073 15.6L39.6753 14.48C39.8807 13.192 40.1607 11.3907 40.5153 9.076C40.5527 8.74 40.5713 8.488 40.5713 8.32C40.5713 7.38667 40.1513 6.76133 39.3113 6.444C39.218 6.40667 39.1433 6.29467 39.0873 6.108C39.05 5.90267 39.0593 5.76267 39.1153 5.688C39.9367 4.26933 40.5993 3.23333 41.1033 2.58C41.178 2.468 41.262 2.328 41.3553 2.16C41.4673 1.97333 41.542 1.83333 41.5793 1.74C41.7847 1.31067 41.9807 0.974666 42.1673 0.731999C42.3727 0.489332 42.6247 0.367999 42.9233 0.367999C43.1287 0.367999 43.3527 0.433332 43.5953 0.564C44.062 0.806667 44.2953 1.21733 44.2953 1.796C44.2953 2.15067 44.202 2.664 44.0153 3.336C43.9407 3.59733 43.894 3.79333 43.8753 3.924C43.334 6.64933 42.466 10.7187 41.2713 16.132C41.2153 16.4867 41.094 16.7667 40.9073 16.972C40.814 17.084 40.6927 17.1773 40.5433 17.252C40.4127 17.3267 40.2913 17.364 40.1793 17.364ZM45.7034 17.196C45.6474 17.1587 45.5354 17.084 45.3674 16.972C45.1994 16.8413 45.0688 16.7013 44.9754 16.552C44.9008 16.4027 44.8634 16.2907 44.8634 16.216C44.8634 16.0107 44.9661 15.768 45.1714 15.488C45.2274 15.3947 45.3021 15.32 45.3954 15.264C45.8808 14.872 46.3568 14.676 46.8234 14.676C47.1034 14.676 47.3461 14.7227 47.5514 14.816C47.7008 14.872 47.8128 15.012 47.8874 15.236C47.9808 15.46 47.9994 15.656 47.9434 15.824C47.7754 16.272 47.4954 16.6173 47.1034 16.86C46.7114 17.1027 46.2448 17.2147 45.7034 17.196ZM50.1246 16.524C49.9006 16.5053 49.7139 16.412 49.5646 16.244C49.4339 16.0573 49.3686 15.852 49.3686 15.628C49.3686 15.46 49.4059 15.3293 49.4806 15.236C49.6299 15.012 49.7793 14.8067 49.9286 14.62C50.2459 14.2093 50.4979 13.8267 50.6846 13.472C51.4313 11.96 52.1966 10.28 52.9806 8.432C53.0553 8.30133 53.0926 8.13333 53.0926 7.928C53.0926 7.648 52.9713 7.43333 52.7286 7.284C52.1313 6.892 51.8326 6.39733 51.8326 5.8C51.8326 5.464 51.9259 5.08133 52.1126 4.652C52.5419 3.68133 53.2046 2.43067 54.1006 0.899999C54.1753 0.787999 54.3339 0.694666 54.5766 0.619999C54.8379 0.545332 55.0713 0.507999 55.2766 0.507999C55.5753 0.507999 55.8273 0.610666 56.0326 0.816C56.2566 1.00267 56.4059 1.22667 56.4806 1.488C56.5926 1.89867 56.6486 2.356 56.6486 2.86C56.6486 3.00933 56.6299 3.252 56.5926 3.588C56.1446 6.22 55.2206 9.06667 53.8206 12.128L53.5126 12.772C53.4379 12.9213 53.2326 13.3507 52.8966 14.06C52.8406 14.172 52.8126 14.2933 52.8126 14.424C52.8126 14.648 52.8779 14.8533 53.0086 15.04C53.1579 15.2267 53.3353 15.3387 53.5406 15.376C54.3246 15.544 54.9219 15.628 55.3326 15.628C55.6499 15.628 55.9673 15.5813 56.2846 15.488C56.6206 15.376 57.0593 15.1987 57.6006 14.956C57.6939 14.9187 57.8526 14.8347 58.0766 14.704C58.3006 14.5547 58.5153 14.4613 58.7206 14.424H58.7766C58.8886 14.424 59.0006 14.4613 59.1126 14.536C59.2433 14.6107 59.3459 14.6947 59.4206 14.788C59.4766 14.9 59.5046 15.04 59.5046 15.208C59.5046 15.3387 59.4859 15.4413 59.4486 15.516C59.3366 15.7213 59.1406 15.9173 58.8606 16.104C58.5993 16.2907 58.3473 16.412 58.1046 16.468C56.4246 16.804 55.1739 16.972 54.3526 16.972C53.7926 16.972 52.9433 16.8973 51.8046 16.748C51.7299 16.7293 51.1699 16.6547 50.1246 16.524ZM62.3971 17.364C61.6318 17.084 61.0158 16.7107 60.5491 16.244C60.0825 15.7773 59.7931 15.1707 59.6811 14.424C59.6251 14.0693 59.5691 13.4907 59.5131 12.688C59.6998 9.02933 60.8758 5.62267 63.0411 2.468C63.2091 2.22533 63.5451 1.88933 64.0491 1.46C64.5531 1.068 65.1131 0.871999 65.7291 0.871999C66.5691 0.871999 67.2878 1.17067 67.8851 1.768C68.8558 2.70133 69.4065 3.96133 69.5371 5.548C69.5745 6.108 69.5931 6.53733 69.5931 6.836C69.5931 10.42 68.3145 13.5747 65.7571 16.3C64.9918 17.1027 64.1798 17.504 63.3211 17.504C62.9851 17.504 62.6771 17.4573 62.3971 17.364ZM62.5091 15.488C63.0505 15.488 63.5545 15.3667 64.0211 15.124C64.4131 14.8067 64.7585 14.396 65.0571 13.892C65.8598 12.716 66.4665 11.512 66.8771 10.28C67.2878 9.02933 67.4931 7.66667 67.4931 6.192C67.4931 5.94933 67.4745 5.548 67.4371 4.988C67.4371 4.95067 67.4091 4.77333 67.3531 4.456C67.2971 4.13867 67.1945 3.80267 67.0451 3.448C67.0078 3.29867 66.8958 3.15867 66.7091 3.028C66.5225 2.87867 66.3451 2.804 66.1771 2.804C66.0278 2.804 65.8691 2.85067 65.7011 2.944C65.5331 3.01867 65.4118 3.10267 65.3371 3.196C64.2545 4.95067 63.4145 6.63067 62.8171 8.236C62.2385 9.84133 61.9491 11.4933 61.9491 13.192C61.9491 13.6587 61.9771 14.1347 62.0331 14.62C62.0518 14.788 62.1078 14.9747 62.2011 15.18C62.3131 15.3853 62.4158 15.488 62.5091 15.488ZM70.6324 16.524C70.4084 16.5053 70.2217 16.412 70.0724 16.244C69.9417 16.0573 69.8764 15.852 69.8764 15.628C69.8764 15.46 69.9137 15.3293 69.9884 15.236C70.1377 15.012 70.2871 14.8067 70.4364 14.62C70.7537 14.2093 71.0057 13.8267 71.1924 13.472C71.9391 11.96 72.7044 10.28 73.4884 8.432C73.5631 8.30133 73.6004 8.13333 73.6004 7.928C73.6004 7.648 73.4791 7.43333 73.2364 7.284C72.6391 6.892 72.3404 6.39733 72.3404 5.8C72.3404 5.464 72.4337 5.08133 72.6204 4.652C73.0497 3.68133 73.7124 2.43067 74.6084 0.899999C74.6831 0.787999 74.8417 0.694666 75.0844 0.619999C75.3457 0.545332 75.5791 0.507999 75.7844 0.507999C76.0831 0.507999 76.3351 0.610666 76.5404 0.816C76.7644 1.00267 76.9137 1.22667 76.9884 1.488C77.1004 1.89867 77.1564 2.356 77.1564 2.86C77.1564 3.00933 77.1377 3.252 77.1004 3.588C76.6524 6.22 75.7284 9.06667 74.3284 12.128L74.0204 12.772C73.9457 12.9213 73.7404 13.3507 73.4044 14.06C73.3484 14.172 73.3204 14.2933 73.3204 14.424C73.3204 14.648 73.3857 14.8533 73.5164 15.04C73.6657 15.2267 73.8431 15.3387 74.0484 15.376C74.8324 15.544 75.4297 15.628 75.8404 15.628C76.1577 15.628 76.4751 15.5813 76.7924 15.488C77.1284 15.376 77.5671 15.1987 78.1084 14.956C78.2017 14.9187 78.3604 14.8347 78.5844 14.704C78.8084 14.5547 79.0231 14.4613 79.2284 14.424H79.2844C79.3964 14.424 79.5084 14.4613 79.6204 14.536C79.7511 14.6107 79.8537 14.6947 79.9284 14.788C79.9844 14.9 80.0124 15.04 80.0124 15.208C80.0124 15.3387 79.9937 15.4413 79.9564 15.516C79.8444 15.7213 79.6484 15.9173 79.3684 16.104C79.1071 16.2907 78.8551 16.412 78.6124 16.468C76.9324 16.804 75.6817 16.972 74.8604 16.972C74.3004 16.972 73.4511 16.8973 72.3124 16.748C72.2377 16.7293 71.6777 16.6547 70.6324 16.524ZM81.9672 17.476C81.6872 17.5507 81.2858 17.392 80.7632 17C80.6512 16.944 80.5952 16.776 80.5952 16.496C80.5952 16.3467 80.6232 16.244 80.6792 16.188C80.8845 15.9827 81.1458 15.7867 81.4632 15.6C81.7805 15.3947 82.0138 15.2453 82.1632 15.152C83.7872 14.0693 84.8792 12.8093 85.4392 11.372C85.6445 10.868 85.7472 10.4107 85.7472 10C85.7472 9.384 85.5512 8.824 85.1592 8.32C84.9725 8.07733 84.7392 7.82533 84.4592 7.564C84.1978 7.30267 84.0112 7.116 83.8992 7.004C83.1712 6.36933 82.8072 5.66933 82.8072 4.904C82.8072 4.53067 82.9005 4.12933 83.0872 3.7C83.4605 2.86 83.8898 2.216 84.3752 1.768C84.8792 1.30133 85.5232 1.068 86.3072 1.068C87.4085 1.068 88.2392 1.10533 88.7992 1.18C88.9112 1.19867 89.0325 1.28267 89.1632 1.432C89.2938 1.58133 89.3778 1.684 89.4152 1.74C89.4898 1.83333 89.5272 1.936 89.5272 2.048C89.5272 2.23467 89.3965 2.37467 89.1352 2.468C88.6872 2.61733 88.3512 2.73867 88.1272 2.832C87.1565 3.14933 86.4845 3.392 86.1112 3.56C85.8498 3.672 85.6445 3.868 85.4952 4.148C85.3645 4.428 85.2992 4.736 85.2992 5.072C85.2992 5.464 85.3925 5.76267 85.5792 5.968C85.7472 6.15467 85.9058 6.31333 86.0552 6.444C86.2045 6.57467 86.3352 6.696 86.4472 6.808C86.9138 7.2 87.2872 7.564 87.5672 7.9C88.3698 8.81467 88.7712 9.73867 88.7712 10.672C88.7712 11.3627 88.5565 12.1373 88.1272 12.996C86.9325 15.2733 84.8792 16.7667 81.9672 17.476Z" fill="#FE1111"/>
</svg>
