<svg width="231" height="49" viewBox="0 0 231 49" fill="none" xmlns="http://www.w3.org/2000/svg">
<path d="M7.16 29.36C6.36 29.3333 5.58667 29.16 4.84 28.84C4.09333 28.52 3.48 28.08 3 27.52C2.41333 26.8533 1.93333 26.2267 1.56 25.64C1.21333 25.0533 1 24.4133 0.92 23.72C0.706667 22.2267 0.6 20.8533 0.6 19.6C0.6 16.4533 1.24 13.04 2.52 9.36C3.26667 7.14667 4.10667 5.36 5.04 4C6.42667 1.97333 8.29333 0.959999 10.64 0.959999C11.0933 0.959999 11.5733 0.999999 12.08 1.08C12.5867 1.16 12.9333 1.21333 13.12 1.24C13.4667 1.29333 13.7733 1.45333 14.04 1.72C15.16 2.84 15.72 4.06667 15.72 5.4C15.72 5.82667 15.6667 6.24 15.56 6.64C15.48 6.88 15.24 7.12 14.84 7.36C14.7333 7.41333 14.64 7.44 14.56 7.44C14.4267 7.44 14.2933 7.4 14.16 7.32C14.0267 7.21333 13.9467 7.09333 13.92 6.96C13.7867 6.66667 13.64 6.17333 13.48 5.48C13.3467 4.81333 12.9733 4.2 12.36 3.64C12.0667 3.4 11.7067 3.28 11.28 3.28C10.88 3.28 10.5867 3.37333 10.4 3.56C10.2133 3.74667 9.96 3.98667 9.64 4.28C9.32 4.54667 9.06667 4.8 8.88 5.04C8.58667 5.46667 8.29333 5.93333 8 6.44C7.73333 6.94667 7.56 7.26667 7.48 7.4C7 8.28 6.62667 9.18667 6.36 10.12C6.09333 11.0533 5.81333 12.2267 5.52 13.64C5.41333 14.2 5.22667 15.04 4.96 16.16C4.72 17.1467 4.6 18.32 4.6 19.68C4.6 20.64 4.64 21.6267 4.72 22.64C4.8 24 5.26667 25.3467 6.12 26.68C6.33333 27.0533 6.62667 27.3333 7 27.52C7.37333 27.7067 7.76 27.8 8.16 27.8C8.45333 27.8 8.69333 27.76 8.88 27.68C10.4533 27.0667 11.7333 26.44 12.72 25.8C13.7333 25.16 14.6533 24.28 15.48 23.16C16.5733 21.6933 17.2 20.84 17.36 20.6C18.16 19.2933 18.6 18.5867 18.68 18.48C19.32 17.4133 19.72 16.7467 19.88 16.48C20.0667 16.4 20.2667 16.4267 20.48 16.56C20.6933 16.6667 20.9333 16.8533 21.2 17.12C21.3067 17.2533 21.36 17.4533 21.36 17.72C21.36 17.9067 21.3333 18.0267 21.28 18.08C20.64 19.44 20.1067 20.44 19.68 21.08C19.28 21.72 18.6 22.6533 17.64 23.88L17 24.72C16.3867 25.4933 15.6533 26.1867 14.8 26.8C13.9733 27.4133 13 28.0267 11.88 28.64C11.24 28.9867 10.5467 29.2 9.8 29.28C9.08 29.36 8.2 29.3867 7.16 29.36ZM27.2956 29.36C26.5756 29.2 26.0023 28.76 25.5756 28.04C25.469 27.88 25.3223 27.6533 25.1356 27.36C24.949 27.0667 24.7756 26.84 24.6156 26.68C24.509 26.5467 24.349 26.4533 24.1356 26.4C23.9223 26.3467 23.7623 26.36 23.6556 26.44C23.3623 26.6 23.029 26.84 22.6556 27.16C22.2823 27.4533 22.029 27.6533 21.8956 27.76C21.229 28.24 20.4556 28.48 19.5756 28.48C19.389 28.48 19.109 28.4533 18.7356 28.4C18.2556 28.32 17.8423 28.1333 17.4956 27.84C17.149 27.5467 16.909 27.16 16.7756 26.68C16.5623 25.9333 16.4556 25.12 16.4556 24.24C16.4556 22.96 16.709 21.7333 17.2156 20.56C17.7223 19.3867 18.349 18.32 19.0956 17.36C19.8156 16.3733 20.7756 15.1867 21.9756 13.8L22.8156 12.84C23.2156 12.4133 23.6556 12.0933 24.1356 11.88C24.8823 11.48 25.509 11.28 26.0156 11.28C26.2823 11.28 26.5356 11.32 26.7756 11.4L29.4556 12.16C29.8823 12.32 30.2023 12.5733 30.4156 12.92C30.6556 13.2667 30.7756 13.6667 30.7756 14.12C30.7756 14.36 30.7356 14.6267 30.6556 14.92C29.6156 17.7467 28.709 21.1333 27.9356 25.08C27.909 25.16 27.8956 25.28 27.8956 25.44C27.8956 25.9733 28.1623 26.5067 28.6956 27.04C28.8023 27.1467 28.949 27.24 29.1356 27.32C29.349 27.3733 29.549 27.4 29.7356 27.4C29.949 27.4 30.109 27.36 30.2156 27.28C30.4556 27.1467 30.6956 27 30.9356 26.84C31.2023 26.6533 31.4023 26.4667 31.5356 26.28C32.789 24.7333 33.8956 23.2533 34.8556 21.84C36.5623 18.7467 37.5223 17.2 37.7356 17.2H37.9356C38.4156 17.2 38.7756 17.3333 39.0156 17.6C39.149 17.7867 39.2156 17.9733 39.2156 18.16C39.2156 18.3467 39.1223 18.6933 38.9356 19.2C38.5356 20.1333 38.0823 21 37.5756 21.8C37.0956 22.5733 36.3623 23.6533 35.3756 25.04C35.109 25.4667 34.629 26.1067 33.9356 26.96L33.3356 27.72C32.3223 29 30.989 29.64 29.3356 29.64C28.829 29.64 28.149 29.5467 27.2956 29.36ZM20.2956 25.68C20.3756 25.6267 20.4556 25.5867 20.5356 25.56C20.6423 25.5067 20.7356 25.4533 20.8156 25.4C22.3623 24.1467 23.629 22.7333 24.6156 21.16C25.629 19.56 26.3223 17.84 26.6956 16C26.7756 15.8133 26.869 15.5867 26.9756 15.32C27.0823 15.0267 27.149 14.8 27.1756 14.64L27.2156 14.44C27.2156 14.1733 27.1223 13.92 26.9356 13.68C26.909 13.6533 26.829 13.64 26.6956 13.64C26.429 13.64 26.2023 13.7067 26.0156 13.84C24.9223 14.72 23.989 15.7467 23.2156 16.92C22.4423 18.0933 21.6956 19.4533 20.9756 21C20.9223 21.1067 20.869 21.24 20.8156 21.4C20.789 21.5333 20.7356 21.6667 20.6556 21.8C20.3623 22.44 20.149 22.9733 20.0156 23.4C19.909 23.8267 19.869 24.2667 19.8956 24.72C19.9223 24.8267 19.989 24.9867 20.0956 25.2C20.2023 25.4133 20.269 25.5733 20.2956 25.68ZM35.3416 29.64C35.1282 29.5867 34.9282 29.4133 34.7416 29.12C34.5549 28.8267 34.4882 28.5867 34.5416 28.4C34.7016 27.5467 34.8349 26.9067 34.9416 26.48C35.4749 23.6267 35.9816 21.32 36.4616 19.56C37.0216 17.64 37.5016 16.16 37.9016 15.12C37.9549 14.96 38.0749 14.6 38.2616 14.04C38.4749 13.48 38.7149 13.0133 38.9816 12.64C39.2749 12.2667 39.6216 12.0533 40.0216 12C40.1549 11.9733 40.3416 11.96 40.5816 11.96C40.9016 11.96 41.2216 12 41.5416 12.08C41.7282 12.1067 41.8749 12.24 41.9816 12.48C42.0882 12.6933 42.1416 12.9467 42.1416 13.24C42.1416 13.48 42.0882 13.8133 41.9816 14.24C41.8749 14.72 41.8216 15.0667 41.8216 15.28C41.8216 15.5467 41.9149 15.7733 42.1016 15.96C42.3149 16.1467 42.5282 16.1867 42.7416 16.08C42.9816 15.9733 43.2882 15.8267 43.6616 15.64C44.0616 15.4533 44.4082 15.32 44.7016 15.24C45.3149 15.1067 45.8749 15.04 46.3816 15.04C47.0216 15.04 47.5682 15.1867 48.0216 15.48C48.5016 15.7467 48.8882 16.2267 49.1816 16.92L50.2616 16.32C51.4082 15.6267 52.4749 15.0133 53.4616 14.48C53.7816 14.32 54.1016 14.24 54.4216 14.24C54.8749 14.24 55.2882 14.3867 55.6616 14.68C56.0616 14.9467 56.3549 15.32 56.5416 15.8C56.9149 16.7067 57.1282 17.4133 57.1816 17.92C57.2616 18.8 57.3016 19.6933 57.3016 20.6L57.3816 22.4C57.4082 23.28 57.7949 24.32 58.5416 25.52C58.9682 26.2133 59.4616 26.56 60.0216 26.56C61.0616 26.56 62.2616 25.56 63.6216 23.56L67.1816 18.44L67.6616 17.68C68.1149 16.7733 68.4882 16.3067 68.7816 16.28C69.1282 16.2267 69.3816 16.2933 69.5416 16.48C69.7016 16.64 69.8216 16.92 69.9016 17.32C69.9549 17.6667 69.8882 18.08 69.7016 18.56C69.5149 19.0133 69.1149 19.7067 68.5016 20.64C67.9149 21.5467 67.1816 22.6267 66.3016 23.88L65.7816 24.6C64.9016 25.8267 64.0616 26.8133 63.2616 27.56C62.7016 28.0933 62.0616 28.5333 61.3416 28.88C60.6482 29.2 59.9416 29.36 59.2216 29.36C57.6749 29.36 56.3149 28.56 55.1416 26.96C54.6082 26.24 54.2616 25.4133 54.1016 24.48C53.9682 23.52 53.8882 22.2533 53.8616 20.68C53.8616 19.6933 53.8482 18.9733 53.8216 18.52C53.8216 18.36 53.7549 18.2 53.6216 18.04C53.5149 17.8533 53.3949 17.7333 53.2616 17.68C53.1816 17.6267 53.0616 17.6 52.9016 17.6C52.7149 17.6 52.5149 17.6533 52.3016 17.76C50.8616 18.6667 49.7549 20.08 48.9816 22L48.5016 23.32C48.3149 23.88 48.0882 24.4933 47.8216 25.16C47.6882 25.56 47.4482 25.88 47.1016 26.12C46.7816 26.36 46.4216 26.48 46.0216 26.48C45.7282 26.48 45.4749 26.4267 45.2616 26.32C45.1016 26.2667 44.9549 26.16 44.8216 26C44.6882 25.84 44.6082 25.6933 44.5816 25.56C44.5549 25.32 44.5416 24.9733 44.5416 24.52C44.5416 23.9867 44.5682 23.5867 44.6216 23.32C44.7016 22.8133 44.8482 22.08 45.0616 21.12L45.4616 18.92V18.8C45.4616 18.64 45.4349 18.48 45.3816 18.32C45.3282 18.1333 45.2482 18 45.1416 17.92C45.0882 17.8667 44.9682 17.84 44.7816 17.84C44.5149 17.84 44.3282 17.8533 44.2216 17.88C44.1149 17.88 43.9682 17.9733 43.7816 18.16C42.2882 19.6533 41.0616 21.2133 40.1016 22.84C39.1416 24.44 38.4882 26.1867 38.1416 28.08C38.0349 28.64 37.8216 29.0667 37.5016 29.36C37.1549 29.6533 36.7416 29.8 36.2616 29.8C35.9416 29.8 35.6349 29.7467 35.3416 29.64ZM68.7722 10.56C68.4522 10.48 68.1855 10.32 67.9722 10.08C67.7589 9.84 67.6522 9.56 67.6522 9.24C67.6522 9.08 67.6655 8.94667 67.6922 8.84C68.0655 7.48 68.9589 6.45333 70.3722 5.76H70.4522C70.6122 5.76 70.7455 5.8 70.8522 5.88C71.5722 6.09333 71.9322 6.58667 71.9322 7.36C71.9322 7.70667 71.8522 8.08 71.6922 8.48C71.5589 8.85333 71.3989 9.18667 71.2122 9.48C70.9455 9.85333 70.7322 10.1067 70.5722 10.24C70.2522 10.48 69.8522 10.6 69.3722 10.6C69.1055 10.6 68.9055 10.5867 68.7722 10.56ZM69.6922 27.92C69.2122 27.5467 68.7855 27.0533 68.4122 26.44C68.0122 25.8267 67.7989 25.2533 67.7722 24.72C67.7455 24.3733 67.7055 24.08 67.6522 23.84C67.5989 23.5733 67.5589 23.3467 67.5322 23.16C67.3189 21.88 67.2122 20.9467 67.2122 20.36C67.2122 19.7467 67.3589 18.9333 67.6522 17.92C67.7055 17.7333 67.7722 17.5067 67.8522 17.24C67.9055 16.9467 67.9589 16.6133 68.0122 16.24C68.0389 15.8933 68.1855 15.5333 68.4522 15.16C68.8255 14.6533 69.3322 14.4 69.9722 14.4C70.2122 14.4 70.4789 14.5333 70.7722 14.8C71.0922 15.04 71.2522 15.2667 71.2522 15.48V19.08V20.88C71.3055 22.5067 71.3989 23.7067 71.5322 24.48C71.5855 24.7733 71.7189 25.08 71.9322 25.4C72.1722 25.6933 72.3322 25.8933 72.4122 26C72.6255 26.24 72.9455 26.36 73.3722 26.36C73.6122 26.36 73.8389 26.3067 74.0522 26.2C75.0389 25.6133 75.7989 24.72 76.3322 23.52C76.3855 23.3333 76.4522 23.1067 76.5322 22.84C76.6389 22.5733 76.7455 22.3467 76.8522 22.16C77.2255 21.6 77.7055 20.7067 78.2922 19.48C78.5589 18.92 78.8389 18.36 79.1322 17.8C79.4522 17.2133 79.7855 16.7067 80.1322 16.28C80.4255 15.9867 80.5722 15.84 80.5722 15.84C80.8655 15.6 81.1322 15.5067 81.3722 15.56C81.6122 15.5867 81.8122 15.72 81.9722 15.96C82.1322 16.2 82.2122 16.4667 82.2122 16.76C82.2122 17.08 82.0789 17.5067 81.8122 18.04C80.6922 20.3333 79.8655 22.0533 79.3322 23.2C79.0922 23.8133 78.7722 24.3733 78.3722 24.88C77.9989 25.3867 77.4655 26.0533 76.7722 26.88L76.2122 27.52C75.8122 27.9733 75.2922 28.3333 74.6522 28.6C74.0389 28.84 73.3989 28.96 72.7322 28.96C71.5322 28.96 70.5189 28.6133 69.6922 27.92ZM83.9003 29.24C83.7136 29.2933 83.4336 29.32 83.0603 29.32C82.127 29.32 81.3003 28.9733 80.5803 28.28C79.8603 27.56 79.3136 26.6267 78.9403 25.48C78.567 24.3333 78.3803 23.1333 78.3803 21.88C78.3803 21.1867 78.4603 20.1733 78.6203 18.84C78.727 17.8267 78.7936 17.0667 78.8203 16.56C79.0603 11.8933 80.6603 7.58667 83.6203 3.64C84.3403 2.68 85.287 1.97333 86.4603 1.52C86.8603 1.33333 87.3003 1.24 87.7803 1.24C88.5003 1.24 89.1936 1.50667 89.8603 2.04C90.6603 2.68 91.0603 3.49333 91.0603 4.48C91.0603 4.82667 91.0336 5.09333 90.9803 5.28C90.367 8.05333 89.2203 10.7467 87.5403 13.36C85.8336 16 84.2603 18.0533 82.8203 19.52C81.967 20.4 81.607 21.5067 81.7403 22.84L81.9803 25.44C82.007 25.7867 82.1403 26.12 82.3803 26.44C82.6203 26.7333 82.887 26.9067 83.1803 26.96C83.287 26.9867 83.4203 27 83.5803 27C83.9536 27 84.3003 26.88 84.6203 26.64C85.6603 25.92 86.7536 24.8133 87.9003 23.32C87.8736 23.3467 88.287 22.7733 89.1403 21.6C89.9936 20.3467 90.7136 19.32 91.3003 18.52C91.9136 17.72 92.4336 17.1467 92.8603 16.8C92.967 16.6933 93.087 16.64 93.2203 16.64C93.407 16.64 93.567 16.7733 93.7003 17.04C93.8603 17.4133 93.9403 17.7733 93.9403 18.12C93.9403 18.4133 93.887 18.6533 93.7803 18.84C93.1936 19.9867 92.2336 21.4667 90.9003 23.28C89.5936 25.0667 88.4736 26.4267 87.5403 27.36C86.5803 28.2667 85.367 28.8933 83.9003 29.24ZM82.3003 15.92C82.3536 15.9733 82.407 16 82.4603 16C82.6203 16 82.7936 15.8667 82.9803 15.6L84.0203 14.04C85.1403 12.36 86.0203 11 86.6603 9.96C87.167 9.16 87.647 8.06667 88.1003 6.68C88.2603 6.22667 88.3403 5.78667 88.3403 5.36C88.3403 4.96 88.2603 4.56 88.1003 4.16C88.047 3.92 87.9403 3.78666 87.7803 3.76H87.7003C87.567 3.76 87.447 3.81333 87.3403 3.92C86.6203 4.64 86.167 5.14667 85.9803 5.44C84.2736 8.24 82.9803 11.4267 82.1003 15C82.1003 15.0533 82.1136 15.1867 82.1403 15.4C82.167 15.6133 82.2203 15.7867 82.3003 15.92ZM99.9909 29.36C99.2709 29.2 98.6976 28.76 98.2709 28.04C98.1643 27.88 98.0176 27.6533 97.8309 27.36C97.6443 27.0667 97.4709 26.84 97.3109 26.68C97.2043 26.5467 97.0443 26.4533 96.8309 26.4C96.6176 26.3467 96.4576 26.36 96.3509 26.44C96.0576 26.6 95.7243 26.84 95.3509 27.16C94.9776 27.4533 94.7243 27.6533 94.5909 27.76C93.9243 28.24 93.1509 28.48 92.2709 28.48C92.0843 28.48 91.8043 28.4533 91.4309 28.4C90.9509 28.32 90.5376 28.1333 90.1909 27.84C89.8443 27.5467 89.6043 27.16 89.4709 26.68C89.2576 25.9333 89.1509 25.12 89.1509 24.24C89.1509 22.96 89.4043 21.7333 89.9109 20.56C90.4176 19.3867 91.0443 18.32 91.7909 17.36C92.5109 16.3733 93.4709 15.1867 94.6709 13.8L95.5109 12.84C95.9109 12.4133 96.3509 12.0933 96.8309 11.88C97.5776 11.48 98.2043 11.28 98.7109 11.28C98.9776 11.28 99.2309 11.32 99.4709 11.4L102.151 12.16C102.578 12.32 102.898 12.5733 103.111 12.92C103.351 13.2667 103.471 13.6667 103.471 14.12C103.471 14.36 103.431 14.6267 103.351 14.92C102.311 17.7467 101.404 21.1333 100.631 25.08C100.604 25.16 100.591 25.28 100.591 25.44C100.591 25.9733 100.858 26.5067 101.391 27.04C101.498 27.1467 101.644 27.24 101.831 27.32C102.044 27.3733 102.244 27.4 102.431 27.4C102.644 27.4 102.804 27.36 102.911 27.28C103.151 27.1467 103.391 27 103.631 26.84C103.898 26.6533 104.098 26.4667 104.231 26.28C105.484 24.7333 106.591 23.2533 107.551 21.84C109.258 18.7467 110.218 17.2 110.431 17.2H110.631C111.111 17.2 111.471 17.3333 111.711 17.6C111.844 17.7867 111.911 17.9733 111.911 18.16C111.911 18.3467 111.818 18.6933 111.631 19.2C111.231 20.1333 110.778 21 110.271 21.8C109.791 22.5733 109.058 23.6533 108.071 25.04C107.804 25.4667 107.324 26.1067 106.631 26.96L106.031 27.72C105.018 29 103.684 29.64 102.031 29.64C101.524 29.64 100.844 29.5467 99.9909 29.36ZM92.9909 25.68C93.0709 25.6267 93.1509 25.5867 93.2309 25.56C93.3376 25.5067 93.4309 25.4533 93.5109 25.4C95.0576 24.1467 96.3243 22.7333 97.3109 21.16C98.3243 19.56 99.0176 17.84 99.3909 16C99.4709 15.8133 99.5643 15.5867 99.6709 15.32C99.7776 15.0267 99.8443 14.8 99.8709 14.64L99.9109 14.44C99.9109 14.1733 99.8176 13.92 99.6309 13.68C99.6043 13.6533 99.5243 13.64 99.3909 13.64C99.1243 13.64 98.8976 13.7067 98.7109 13.84C97.6176 14.72 96.6843 15.7467 95.9109 16.92C95.1376 18.0933 94.3909 19.4533 93.6709 21C93.6176 21.1067 93.5643 21.24 93.5109 21.4C93.4843 21.5333 93.4309 21.6667 93.3509 21.8C93.0576 22.44 92.8443 22.9733 92.7109 23.4C92.6043 23.8267 92.5643 24.2667 92.5909 24.72C92.6176 24.8267 92.6843 24.9867 92.7909 25.2C92.8976 25.4133 92.9643 25.5733 92.9909 25.68ZM142.749 16.92C142.802 16.9733 142.869 17.0667 142.949 17.2C143.056 17.3333 143.096 17.44 143.069 17.52C141.602 20.9333 139.869 23.6133 137.869 25.56C137.682 25.6933 137.482 25.88 137.269 26.12C137.056 26.3333 136.896 26.5067 136.789 26.64C136.176 27.3067 135.616 27.8133 135.109 28.16C133.509 29.4667 132.496 31.2667 132.069 33.56C131.562 36.84 130.282 40.3867 128.229 44.2C127.882 44.9733 127.309 45.8533 126.509 46.84C126.109 47.3733 125.589 47.7733 124.949 48.04C124.309 48.3067 123.642 48.44 122.949 48.44C121.882 48.44 120.989 48.1733 120.269 47.64C119.629 47.1333 119.122 46.5067 118.749 45.76C118.376 45.04 118.189 44.28 118.189 43.48C118.189 42.76 118.349 42.08 118.669 41.44C119.682 39.3067 121.082 37.5067 122.869 36.04C124.549 34.68 126.322 33.16 128.189 31.48C128.829 30.9467 129.216 30.24 129.349 29.36C129.456 28.9067 129.589 28.2533 129.749 27.4C129.749 27.4 129.842 26.9333 130.029 26C128.962 26.7733 127.536 27.16 125.749 27.16C125.216 27.16 124.856 27.1467 124.669 27.12C124.082 27.0933 123.509 26.84 122.949 26.36C122.389 25.8533 122.096 25.32 122.069 24.76L121.989 23.92C121.962 23.6533 121.922 23.1467 121.869 22.4C121.816 21.6533 121.789 20.9867 121.789 20.4C121.789 19.2 121.909 18 122.149 16.8C122.282 16 122.576 15.2667 123.029 14.6C123.509 13.9067 124.082 13.56 124.749 13.56C125.042 13.56 125.362 13.64 125.709 13.8C125.922 13.9333 126.096 14.12 126.229 14.36C126.362 14.5733 126.429 14.8133 126.429 15.08C126.429 15.2667 126.416 15.4 126.389 15.48C125.776 17.56 125.469 20.04 125.469 22.92C125.469 23.1867 125.509 23.5067 125.589 23.88C125.696 24.2267 125.762 24.52 125.789 24.76C125.869 24.9467 126.016 25.1067 126.229 25.24C126.469 25.3467 126.696 25.4 126.909 25.4C127.096 25.4 127.256 25.36 127.389 25.28C129.016 24.4 130.109 23.1733 130.669 21.6C130.829 21.1733 130.989 20.6667 131.149 20.08C131.309 19.4933 131.429 19.0533 131.509 18.76C131.616 18.3067 131.802 17.6267 132.069 16.72C132.336 16.16 132.629 15.6133 132.949 15.08C133.029 14.8933 133.242 14.72 133.589 14.56C133.962 14.3733 134.282 14.3067 134.549 14.36C134.816 14.3867 135.056 14.5333 135.269 14.8C135.509 15.0667 135.669 15.3333 135.749 15.6C135.749 16.6933 135.536 17.9467 135.109 19.36C134.896 19.9733 134.736 20.56 134.629 21.12C134.549 21.6533 134.456 22.4 134.349 23.36L134.229 24.36C134.202 24.4933 134.162 24.8 134.109 25.28C134.056 25.7333 134.082 25.9333 134.189 25.88C134.536 25.7467 134.802 25.6 134.989 25.44C135.202 25.28 135.456 25.0533 135.749 24.76C136.522 23.96 137.189 23.1333 137.749 22.28C138.336 21.4267 139.122 20.1867 140.109 18.56L141.429 16.32C141.482 16.1867 141.602 16.12 141.789 16.12C142.029 16.12 142.242 16.2133 142.429 16.4C142.562 16.5333 142.669 16.7067 142.749 16.92ZM127.949 36.68C128.056 36.44 128.216 35.9867 128.429 35.32C128.669 34.68 128.776 34.24 128.749 34C128.696 34.1333 128.389 34.3733 127.829 34.72C127.296 35.0667 126.962 35.2933 126.829 35.4C124.802 36.8933 123.082 38.64 121.669 40.64C121.002 41.4667 120.669 42.3467 120.669 43.28C120.669 43.7333 120.776 44.24 120.989 44.8C121.122 45.3867 121.509 45.8 122.149 46.04C122.309 46.0933 122.456 46.12 122.589 46.12C122.829 46.12 123.069 46.0667 123.309 45.96C123.549 45.88 123.736 45.7467 123.869 45.56C124.002 45.4 124.189 45.1733 124.429 44.88C124.696 44.6133 124.882 44.36 124.989 44.12C125.789 42.28 126.776 39.8 127.949 36.68ZM157.053 38.64C155.746 38.64 154.68 38.24 153.853 37.44C153.053 36.64 152.653 35.5867 152.653 34.28C152.653 33.4533 152.706 32.72 152.813 32.08C152.893 31.44 153.066 30.8267 153.333 30.24L153.733 29.32C154.24 28.2 154.56 27.4133 154.693 26.96C154.8 26.6667 154.853 26.3467 154.853 26C154.853 25.68 154.813 25.4267 154.733 25.24C153.906 23.24 153.493 20.9733 153.493 18.44C153.493 17.08 153.653 15.04 153.973 12.32C154.346 8.96 155.453 5.81333 157.293 2.88C158.173 1.46667 159.413 0.759999 161.013 0.759999C162.826 0.759999 164.16 1.58667 165.013 3.24C166.133 5.58666 166.76 7.65333 166.893 9.44C167 10.48 167.186 12.04 167.453 14.12C167.48 14.3067 167.653 14.52 167.973 14.76C168.32 15 168.6 15.1067 168.813 15.08L169.613 14.96C169.8 14.9333 170.013 14.9067 170.253 14.88C170.52 14.8533 170.826 14.84 171.173 14.84C171.306 14.84 171.48 14.9067 171.693 15.04C171.933 15.1467 172.106 15.2267 172.213 15.28C172.186 15.3333 172.146 15.4133 172.093 15.52C172.066 15.6267 172.026 15.7067 171.973 15.76C171.893 15.84 171.586 16.08 171.053 16.48C170.76 16.6933 170.426 16.9067 170.053 17.12C169.013 17.68 168.253 18.4 167.773 19.28C167.32 20.1333 167.053 21.2 166.973 22.48C166.68 26.9867 165.626 30.9733 163.813 34.44C162.346 37.24 160.093 38.64 157.053 38.64ZM158.253 21.76C159 21.4667 159.693 21.08 160.333 20.6C161 20.0933 161.733 19.48 162.533 18.76C162.746 18.5467 162.933 18.3067 163.093 18.04C163.28 17.7733 163.373 17.52 163.373 17.28C163.453 16.24 163.493 15.2133 163.493 14.2C163.493 10.7867 162.973 7.77333 161.933 5.16C161.853 5 161.72 4.85333 161.533 4.72C161.453 4.64 161.306 4.54667 161.093 4.44C160.933 4.38666 160.8 4.36 160.693 4.36C160.426 4.36 160.213 4.50666 160.053 4.8C159.013 6.61333 158.266 8.58667 157.813 10.72C157.386 12.8533 157.146 15.4 157.093 18.36C157.093 18.84 157.2 19.8 157.413 21.24C157.44 21.48 157.533 21.6533 157.693 21.76C157.853 21.84 158.04 21.84 158.253 21.76ZM158.573 35.52C158.706 35.36 158.88 35.1333 159.093 34.84C159.333 34.5733 159.52 34.32 159.653 34.08C160.4 32.88 161 31.6267 161.453 30.32C161.933 29.04 162.253 27.88 162.413 26.84L163.053 24.04C163.106 23.8267 163.106 23.6267 163.053 23.44C163 23.2 162.933 23.0267 162.853 22.92C162.773 22.8133 162.68 22.76 162.573 22.76C162.44 22.76 162.226 22.84 161.933 23C161.533 23.2133 161.213 23.48 160.973 23.8C160.76 24.12 160.52 24.56 160.253 25.12C159.88 25.92 159.533 26.4667 159.213 26.76C158.386 27.56 157.8 28.4133 157.453 29.32C157.133 30.2533 156.8 31.5333 156.453 33.16C156.426 33.2667 156.413 33.4267 156.413 33.64C156.413 34.2267 156.64 34.8133 157.093 35.4C157.36 35.6667 157.653 35.8 157.973 35.8C158.266 35.8 158.466 35.7067 158.573 35.52ZM172.787 28.84C172.121 28.7333 171.587 28.2667 171.187 27.44C170.761 26.6133 170.547 25.7733 170.547 24.92C170.547 24.6267 170.561 24.4133 170.587 24.28C170.987 22.2 171.387 20.4533 171.787 19.04C172.187 17.6 172.747 16.24 173.467 14.96C173.521 14.88 173.601 14.7333 173.707 14.52C173.841 14.3067 173.974 14.1333 174.107 14C174.534 13.52 175.121 13.32 175.867 13.4C176.107 13.4533 176.307 13.5733 176.467 13.76C176.654 13.9467 176.747 14.16 176.747 14.4C176.747 14.8 176.681 15.2267 176.547 15.68C176.067 16.9867 175.587 18.2133 175.107 19.36C174.814 20.1067 174.561 20.88 174.347 21.68C174.161 22.4533 173.947 23.44 173.707 24.64C173.681 24.72 173.667 24.8667 173.667 25.08C173.667 25.32 173.681 25.5333 173.707 25.72C173.734 25.88 173.761 26.0267 173.787 26.16C173.814 26.32 173.934 26.4533 174.147 26.56C174.387 26.64 174.587 26.64 174.747 26.56C175.974 25.8667 177.081 24.9467 178.067 23.8C179.374 22.2 180.454 20.7867 181.307 19.56C182.161 18.3333 182.867 17.0267 183.427 15.64C183.534 15.4 183.761 15.08 184.107 14.68C184.187 14.5733 184.334 14.48 184.547 14.4C184.787 14.2933 185.014 14.24 185.227 14.24C185.334 14.24 185.441 14.2667 185.547 14.32C185.947 14.5333 186.161 14.84 186.187 15.24L186.227 16.16C186.281 17.3333 186.294 18.2133 186.267 18.8C186.241 19.7333 186.294 20.88 186.427 22.24C186.587 23.6 186.787 24.7867 187.027 25.8C187.054 25.9333 187.107 26.0533 187.187 26.16C187.294 26.2667 187.374 26.36 187.427 26.44C187.534 26.6 187.707 26.68 187.947 26.68C188.161 26.68 188.307 26.6 188.387 26.44C188.521 26.1733 188.721 25.84 188.987 25.44C189.414 24.7467 189.667 24.2933 189.747 24.08C190.014 23.5733 190.361 22.7867 190.787 21.72L191.267 20.56C191.561 20 191.921 19.4133 192.347 18.8C192.481 18.6133 192.614 18.3733 192.747 18.08C192.907 17.76 193.054 17.5733 193.187 17.52C193.241 17.4933 193.334 17.48 193.467 17.48C193.654 17.48 193.841 17.52 194.027 17.6C194.401 17.6533 194.627 17.7467 194.707 17.88L194.827 18.12L194.747 18.44L194.467 19.2C194.281 19.7867 194.161 20.1333 194.107 20.24C193.867 20.64 193.654 21.0933 193.467 21.6C193.307 22.0533 192.987 22.7333 192.507 23.64C192.054 24.5467 191.707 25.1733 191.467 25.52C191.307 25.76 191.161 26.0533 191.027 26.4C190.894 26.7733 190.747 27.0667 190.587 27.28C190.187 27.8667 189.561 28.3067 188.707 28.6C188.521 28.6267 188.241 28.64 187.867 28.64C187.361 28.64 186.987 28.6267 186.747 28.6C186.241 28.5733 185.801 28.3467 185.427 27.92C185.107 27.5733 184.841 27.12 184.627 26.56C184.441 26 184.241 25.2667 184.027 24.36C183.894 23.7467 183.761 23.2533 183.627 22.88C183.521 22.5333 183.387 22.0667 183.227 21.48C183.094 20.8667 183.014 20.5867 182.987 20.64C182.827 20.8533 182.641 21.0667 182.427 21.28C182.294 21.44 182.147 21.6133 181.987 21.8C181.827 21.9867 181.681 22.1733 181.547 22.36C180.427 23.96 179.121 25.44 177.627 26.8C176.907 27.5733 176.067 28.1733 175.107 28.6C174.681 28.8133 174.187 28.92 173.627 28.92C173.441 28.92 173.161 28.8933 172.787 28.84ZM200.772 29.36C200.052 29.2 199.479 28.76 199.052 28.04C198.946 27.88 198.799 27.6533 198.612 27.36C198.426 27.0667 198.252 26.84 198.092 26.68C197.986 26.5467 197.826 26.4533 197.612 26.4C197.399 26.3467 197.239 26.36 197.132 26.44C196.839 26.6 196.506 26.84 196.132 27.16C195.759 27.4533 195.506 27.6533 195.372 27.76C194.706 28.24 193.932 28.48 193.052 28.48C192.866 28.48 192.586 28.4533 192.212 28.4C191.732 28.32 191.319 28.1333 190.972 27.84C190.626 27.5467 190.386 27.16 190.252 26.68C190.039 25.9333 189.932 25.12 189.932 24.24C189.932 22.96 190.186 21.7333 190.692 20.56C191.199 19.3867 191.826 18.32 192.572 17.36C193.292 16.3733 194.252 15.1867 195.452 13.8L196.292 12.84C196.692 12.4133 197.132 12.0933 197.612 11.88C198.359 11.48 198.986 11.28 199.492 11.28C199.759 11.28 200.012 11.32 200.252 11.4L202.932 12.16C203.359 12.32 203.679 12.5733 203.892 12.92C204.132 13.2667 204.252 13.6667 204.252 14.12C204.252 14.36 204.212 14.6267 204.132 14.92C203.092 17.7467 202.186 21.1333 201.412 25.08C201.386 25.16 201.372 25.28 201.372 25.44C201.372 25.9733 201.639 26.5067 202.172 27.04C202.279 27.1467 202.426 27.24 202.612 27.32C202.826 27.3733 203.026 27.4 203.212 27.4C203.426 27.4 203.586 27.36 203.692 27.28C203.932 27.1467 204.172 27 204.412 26.84C204.679 26.6533 204.879 26.4667 205.012 26.28C206.266 24.7333 207.372 23.2533 208.332 21.84C210.039 18.7467 210.999 17.2 211.212 17.2H211.412C211.892 17.2 212.252 17.3333 212.492 17.6C212.626 17.7867 212.692 17.9733 212.692 18.16C212.692 18.3467 212.599 18.6933 212.412 19.2C212.012 20.1333 211.559 21 211.052 21.8C210.572 22.5733 209.839 23.6533 208.852 25.04C208.586 25.4667 208.106 26.1067 207.412 26.96L206.812 27.72C205.799 29 204.466 29.64 202.812 29.64C202.306 29.64 201.626 29.5467 200.772 29.36ZM193.772 25.68C193.852 25.6267 193.932 25.5867 194.012 25.56C194.119 25.5067 194.212 25.4533 194.292 25.4C195.839 24.1467 197.106 22.7333 198.092 21.16C199.106 19.56 199.799 17.84 200.172 16C200.252 15.8133 200.346 15.5867 200.452 15.32C200.559 15.0267 200.626 14.8 200.652 14.64L200.692 14.44C200.692 14.1733 200.599 13.92 200.412 13.68C200.386 13.6533 200.306 13.64 200.172 13.64C199.906 13.64 199.679 13.7067 199.492 13.84C198.399 14.72 197.466 15.7467 196.692 16.92C195.919 18.0933 195.172 19.4533 194.452 21C194.399 21.1067 194.346 21.24 194.292 21.4C194.266 21.5333 194.212 21.6667 194.132 21.8C193.839 22.44 193.626 22.9733 193.492 23.4C193.386 23.8267 193.346 24.2667 193.372 24.72C193.399 24.8267 193.466 24.9867 193.572 25.2C193.679 25.4133 193.746 25.5733 193.772 25.68ZM209.858 28.88C209.458 28.88 209.058 28.6933 208.658 28.32C208.231 27.92 208.045 27.56 208.098 27.24C208.551 24.5733 209.471 21.2933 210.858 17.4C210.991 17.08 211.098 16.72 211.178 16.32C211.231 15.92 211.271 15.6533 211.298 15.52C211.458 14.56 211.645 13.8533 211.858 13.4C212.045 13.0533 212.205 12.7733 212.338 12.56C212.471 12.3467 212.658 12.2 212.898 12.12C213.058 12.0667 213.178 12.04 213.258 12.04C213.578 12.04 213.885 12.1867 214.178 12.48C214.285 12.6133 214.378 12.8133 214.458 13.08C214.538 13.32 214.525 13.5067 214.418 13.64C214.845 13.1333 215.351 12.7333 215.938 12.44C216.551 12.12 217.165 11.96 217.778 11.96C218.471 11.96 219.285 12.32 220.218 13.04C220.885 13.5467 221.258 14.2667 221.338 15.2C221.391 15.8933 221.418 16.92 221.418 18.28C221.418 19.4 221.431 20.2267 221.458 20.76C221.485 21.1867 221.551 21.6533 221.658 22.16C221.765 22.6667 221.831 23 221.858 23.16C221.965 23.48 222.205 23.7467 222.578 23.96C222.951 24.1467 223.205 24.1867 223.338 24.08C223.818 23.7333 224.311 23.2667 224.818 22.68C225.325 22.0667 225.738 21.4933 226.058 20.96C226.671 19.9467 227.205 19.04 227.658 18.24C228.138 17.4133 228.525 16.6667 228.818 16C228.925 15.7867 229.085 15.68 229.298 15.68C229.591 15.68 229.991 15.9333 230.498 16.44C230.738 16.68 230.845 16.8267 230.818 16.88C229.938 18.6933 229.111 20.2133 228.338 21.44C227.591 22.6667 226.671 23.8933 225.578 25.12C224.698 26.1067 223.725 26.6 222.658 26.6C222.205 26.6 221.778 26.5467 221.378 26.44C220.445 26.1733 219.805 25.6933 219.458 25C218.685 23.64 218.245 22.2667 218.138 20.88C218.085 20.4 218.031 19.68 217.978 18.72C217.925 17.76 217.871 17.04 217.818 16.56C217.791 16.4 217.698 16.2267 217.538 16.04C217.405 15.8533 217.285 15.76 217.178 15.76H217.098C216.831 15.76 216.511 15.92 216.138 16.24C215.151 17.1467 214.498 18.1867 214.178 19.36C213.831 20.4 213.511 21.5067 213.218 22.68L212.618 24.72C212.378 25.4667 212.058 26.3333 211.658 27.32C211.578 27.5867 211.471 27.88 211.338 28.2C211.231 28.3867 211.031 28.5467 210.738 28.68C210.418 28.8133 210.125 28.88 209.858 28.88Z" fill="black"/>
</svg>
